<svg width="42" height="42" viewBox="0 0 42 42" fill="none" xmlns="http://www.w3.org/2000/svg">
<g clip-path="url(#clip0_679_35569)">
<path d="M21 0C9.45 0 0 9.45 0 21C0 32.55 9.45 42 21 42C32.55 42 42 32.55 42 21C42 9.45 32.55 0 21 0Z" fill="url(#paint0_linear_679_35569)"/>
<mask id="mask0_679_35569" style="mask-type:alpha" maskUnits="userSpaceOnUse" x="0" y="0" width="42" height="42">
<path d="M21 0C9.45 0 0 9.45 0 21C0 32.55 9.45 42 21 42C32.55 42 42 32.55 42 21C42 9.45 32.55 0 21 0Z" fill="url(#paint1_linear_679_35569)"/>
<path d="M21 0C9.45 0 0 9.45 0 21C0 32.55 9.45 42 21 42C32.55 42 42 32.55 42 21C42 9.45 32.55 0 21 0Z" fill="url(#paint2_linear_679_35569)"/>
</mask>
<g mask="url(#mask0_679_35569)">
</g>
<g clip-path="url(#clip1_679_35569)">
<path d="M28 13C28 11.6155 27.5895 10.2622 26.8203 9.11101C26.0511 7.95987 24.9579 7.06266 23.6788 6.53285C22.3997 6.00303 20.9922 5.86441 19.6344 6.13451C18.2765 6.4046 17.0292 7.07129 16.0503 8.05026C15.0713 9.02922 14.4046 10.2765 14.1345 11.6344C13.8644 12.9922 14.003 14.3997 14.5328 15.6788C15.0627 16.9579 15.9599 18.0511 17.111 18.8203C18.2622 19.5895 19.6155 20 21 20C22.8558 19.9975 24.6348 19.2592 25.947 17.947C27.2592 16.6348 27.9975 14.8558 28 13ZM21 17.3333C19.8512 17.3319 18.7498 16.8749 17.9374 16.0626C17.1251 15.2502 16.6681 14.1488 16.6667 13C16.6714 12.3159 16.8402 11.6428 17.1587 11.0373C18.7991 12.3096 20.8161 13.0001 22.892 13C23.7062 12.9969 24.5165 12.888 25.3027 12.676C25.3107 12.7853 25.336 12.8893 25.336 13C25.3346 14.1493 24.8772 15.2511 24.0643 16.0635C23.2514 16.8759 22.1493 17.3326 21 17.3333Z" fill="white"/>
<path d="M20.1853 21.9282C20.2006 21.8532 20.2413 21.7857 20.3006 21.7371C20.3598 21.6885 20.434 21.6619 20.5106 21.6616H21.4893C21.5658 21.6621 21.6399 21.6889 21.6991 21.7374C21.7583 21.7859 21.7991 21.8533 21.8146 21.9282L23.104 27.7309C23.119 27.8059 23.1595 27.8733 23.2185 27.9219C23.2775 27.9705 23.3515 27.9972 23.428 27.9976L29.684 28.0056C29.8462 28.0056 30.006 27.9661 30.1496 27.8905C30.2932 27.8149 30.4162 27.7055 30.5081 27.5718C30.6 27.4381 30.6579 27.284 30.6769 27.1228C30.696 26.9617 30.6755 26.7984 30.6173 26.6469C29.8779 24.6945 28.5617 23.0134 26.8438 21.8271C25.1259 20.6408 23.0877 20.0054 21 20.0054C18.9123 20.0054 16.874 20.6408 15.1561 21.8271C13.4382 23.0134 12.1221 24.6945 11.3826 26.6469C11.3244 26.7984 11.304 26.9617 11.323 27.1228C11.342 27.284 11.4 27.4381 11.4918 27.5718C11.5837 27.7055 11.7067 27.8149 11.8503 27.8905C11.9939 27.9661 12.1537 28.0056 12.316 28.0056L18.5706 27.9976C18.6473 27.9973 18.7214 27.9706 18.7807 27.922C18.8399 27.8735 18.8806 27.806 18.896 27.7309L20.1853 21.9282Z" fill="white"/>
<path d="M36 30.3333C36 29.9797 35.8595 29.6406 35.6095 29.3905C35.3594 29.1405 35.0203 29 34.6667 29H7.33333C6.97971 29 6.64057 29.1405 6.39052 29.3905C6.14048 29.6406 6 29.9797 6 30.3333C6 30.687 6.14048 31.0261 6.39052 31.2761C6.64057 31.5262 6.97971 31.6667 7.33333 31.6667H8V33.6667C8 34.0203 8.14048 34.3594 8.39052 34.6095C8.64057 34.8595 8.97971 35 9.33333 35H32.6667C33.0203 35 33.3594 34.8595 33.6095 34.6095C33.8595 34.3594 34 34.0203 34 33.6667V31.6667H34.6667C35.0203 31.6667 35.3594 31.5262 35.6095 31.2761C35.8595 31.0261 36 30.687 36 30.3333Z" fill="white"/>
</g>
</g>
<defs>
<linearGradient id="paint0_linear_679_35569" x1="21" y1="0" x2="21" y2="42" gradientUnits="userSpaceOnUse">
<stop stop-color="#F8A4CE"/>
<stop offset="1" stop-color="#FA9AC7"/>
</linearGradient>
<linearGradient id="paint1_linear_679_35569" x1="21" y1="0" x2="21" y2="42" gradientUnits="userSpaceOnUse">
<stop stop-color="#6ED7FA"/>
<stop offset="1" stop-color="#09ADE2"/>
</linearGradient>
<linearGradient id="paint2_linear_679_35569" x1="21" y1="0" x2="21" y2="42" gradientUnits="userSpaceOnUse">
<stop stop-color="#FC88C2"/>
<stop offset="1" stop-color="#E36FA6"/>
</linearGradient>
<clipPath id="clip0_679_35569">
<rect width="42" height="42" fill="white"/>
</clipPath>
<clipPath id="clip1_679_35569">
<rect width="30" height="29" fill="white" transform="translate(6 6)"/>
</clipPath>
</defs>
</svg>
