<svg width="42" height="42" viewBox="0 0 42 42" fill="none" xmlns="http://www.w3.org/2000/svg">
<g clip-path="url(#clip0_662_43096)">
<path d="M21 0C9.45 0 0 9.45 0 21C0 32.55 9.45 42 21 42C32.55 42 42 32.55 42 21C42 9.45 32.55 0 21 0ZM21 7C24.85 7 28 10.85 28 15.75C28 20.65 24.85 24.5 21 24.5C17.15 24.5 14 20.65 14 15.75C14 10.85 17.15 7 21 7ZM32.55 34.125C29.575 36.75 25.375 38.5 21 38.5C16.625 38.5 12.425 36.75 9.45 34.125C8.75 33.425 8.575 32.375 9.275 31.675C11.2 29.4 13.825 27.825 16.625 26.95C17.7476 27.5113 18.8702 27.8475 20.0829 27.9588C20.3827 27.9863 20.4588 34.6944 21.03 34.6944C21.9524 34.6944 21.9524 27.9555 21.9524 27.9555C21.9524 27.9555 24.2634 27.5058 25.375 26.95C28.35 27.825 30.8 29.4 32.725 31.675C33.425 32.375 33.425 33.425 32.55 34.125Z" fill="url(#paint0_linear_662_43096)"/>
</g>
<defs>
<linearGradient id="paint0_linear_662_43096" x1="21" y1="0" x2="21" y2="42" gradientUnits="userSpaceOnUse">
<stop stop-color="#6ED7FA"/>
<stop offset="1" stop-color="#09ADE2"/>
</linearGradient>
<clipPath id="clip0_662_43096">
<rect width="42" height="42" fill="white"/>
</clipPath>
</defs>
</svg>
