<svg width="8" height="8" viewBox="0 0 8 8" fill="none" xmlns="http://www.w3.org/2000/svg">
<g clip-path="url(#clip0_811_117035)">
<path fill-rule="evenodd" clip-rule="evenodd" d="M6.92169 0.398926C7.39128 0.398926 7.77251 0.780173 7.77251 1.24975V6.51202C7.77251 6.9816 7.39127 7.36285 6.92169 7.36285H1.65942C1.18984 7.36285 0.808594 6.9816 0.808594 6.51202V1.24975C0.808594 0.780173 1.18983 0.398926 1.65942 0.398926L6.92169 0.398926ZM2.99109 6.1561V3.08603H1.97044V6.1561H2.99109ZM6.6708 6.1561V4.39555C6.6708 3.45252 6.1673 3.01384 5.4959 3.01384C4.95451 3.01384 4.71199 3.31159 4.57621 3.52071V3.08603H3.55582C3.56935 3.37413 3.55582 6.1561 3.55582 6.1561H4.5762V4.44156C4.5762 4.34978 4.58281 4.25805 4.60985 4.19245C4.68349 4.00918 4.8515 3.81931 5.13342 3.81931C5.50249 3.81931 5.65037 4.10096 5.65037 4.51349V6.1561H6.6708ZM2.48766 1.60567C2.13846 1.60567 1.91031 1.83525 1.91031 2.13615C1.91031 2.43073 2.13152 2.66663 2.47415 2.66663H2.48074C2.83662 2.66663 3.05814 2.43073 3.05814 2.13615C3.05155 1.83567 2.83724 1.60632 2.48766 1.60567Z" fill="#1F053F"/>
</g>
<defs>
<clipPath id="clip0_811_117035">
<rect width="6.96392" height="6.96392" fill="white" transform="translate(0.808594 0.399414)"/>
</clipPath>
</defs>
</svg>
