<svg width="8" height="7" viewBox="0 0 8 7" fill="none" xmlns="http://www.w3.org/2000/svg">
<g clip-path="url(#clip0_803_109099)">
<path fill-rule="evenodd" clip-rule="evenodd" d="M6.69524 0.102051C7.15838 0.102051 7.53438 0.478067 7.53438 0.941199V6.13127C7.53438 6.5944 7.15837 6.97042 6.69524 6.97042H1.50516C1.04203 6.97042 0.666016 6.5944 0.666016 6.13127V0.941199C0.666016 0.478067 1.04202 0.102051 1.50516 0.102051L6.69524 0.102051ZM2.81856 5.78023V2.75229H1.81192V5.78023H2.81856ZM6.44779 5.78023V4.04384C6.44779 3.11375 5.9512 2.68108 5.289 2.68108C4.75504 2.68108 4.51586 2.97475 4.38194 3.181V2.75229H3.37555C3.38889 3.03643 3.37555 5.78023 3.37555 5.78023H4.38192V4.08922C4.38192 3.9987 4.38844 3.90823 4.41511 3.84353C4.48774 3.66276 4.65345 3.47551 4.9315 3.47551C5.29551 3.47551 5.44136 3.75329 5.44136 4.16016V5.78023H6.44779ZM2.32204 1.29224C1.97763 1.29224 1.75261 1.51867 1.75261 1.81544C1.75261 2.10598 1.97079 2.33864 2.30872 2.33864H2.31522C2.66621 2.33864 2.8847 2.10598 2.8847 1.81544C2.87819 1.51908 2.66683 1.29288 2.32204 1.29224Z" fill="black"/>
</g>
<defs>
<clipPath id="clip0_803_109099">
<rect width="6.86837" height="6.86837" fill="white" transform="translate(0.666016 0.103027)"/>
</clipPath>
</defs>
</svg>
