<svg width="10" height="10" viewBox="0 0 10 10" fill="none" xmlns="http://www.w3.org/2000/svg">
<g clip-path="url(#clip0_621_9021)">
<path fill-rule="evenodd" clip-rule="evenodd" d="M8.01767 0.927734C8.6208 0.927734 9.11046 1.41741 9.11046 2.02053V8.77938C9.11046 9.38251 8.62079 9.87218 8.01767 9.87218H1.25881C0.655689 9.87218 0.166016 9.38251 0.166016 8.77938V2.02053C0.166016 1.41741 0.655672 0.927734 1.25881 0.927734L8.01767 0.927734ZM2.96921 8.32224V4.37905H1.65829V8.32224H2.96921ZM7.69542 8.32224V6.06099C7.69542 4.84977 7.04873 4.28632 6.18638 4.28632C5.49102 4.28632 5.17953 4.66875 5.00514 4.93734V4.37905H3.69455C3.71193 4.74907 3.69455 8.32224 3.69455 8.32224H5.00512V6.12009C5.00512 6.0022 5.01361 5.88439 5.04834 5.80013C5.14292 5.56473 5.35872 5.32087 5.72081 5.32087C6.19485 5.32087 6.38478 5.68262 6.38478 6.21247V8.32224H7.69542ZM2.32261 2.47767C1.87409 2.47767 1.58105 2.77254 1.58105 3.15902C1.58105 3.53738 1.86518 3.84037 2.30526 3.84037H2.31371C2.77081 3.84037 3.05533 3.53738 3.05533 3.15902C3.04686 2.77309 2.77161 2.47851 2.32261 2.47767Z" fill="black"/>
</g>
<defs>
<clipPath id="clip0_621_9021">
<rect width="8.94444" height="8.94444" fill="white" transform="translate(0.166016 0.927734)"/>
</clipPath>
</defs>
</svg>
