<svg width="15" height="16" viewBox="0 0 15 16" fill="none" xmlns="http://www.w3.org/2000/svg">
<g clip-path="url(#clip0_700_35521)">
<path d="M9.5 5.5498L5.5 9.5498M10.5 0.549805H2.5C1.94772 0.549805 1.5 0.997521 1.5 1.5498V13.5498C1.5 14.1021 1.94772 14.5498 2.5 14.5498H12.5C13.0523 14.5498 13.5 14.1021 13.5 13.5498V3.5498L10.5 0.549805ZM7.5 10.5498C5.84315 10.5498 4.5 9.20665 4.5 7.5498C4.5 5.89295 5.84315 4.5498 7.5 4.5498C9.15685 4.5498 10.5 5.89295 10.5 7.5498C10.5 9.20665 9.15685 10.5498 7.5 10.5498Z" stroke="white"/>
</g>
<defs>
<clipPath id="clip0_700_35521">
<rect width="15" height="15" fill="white" transform="translate(0 0.0498047)"/>
</clipPath>
</defs>
</svg>
