<svg width="31" height="6" viewBox="0 0 31 6" fill="none" xmlns="http://www.w3.org/2000/svg">
<path d="M2.31628 0.669871H2.88755L4.87715 5.31884H4.14172L3.67551 4.16973H1.46265L1.00301 5.31884H0.267578L2.31628 0.669871ZM3.44569 3.61816L2.57893 1.4841H2.5658L1.68591 3.61816H3.44569Z" fill="white"/>
<path d="M8.08876 5.31884H7.49779V4.8395H7.48465C7.41023 5.00585 7.2811 5.14155 7.09724 5.24661C6.91338 5.34729 6.70107 5.39764 6.4603 5.39764C6.30709 5.39764 6.16263 5.37356 6.02693 5.32541C5.89122 5.28163 5.77084 5.21159 5.66578 5.11528C5.56509 5.01898 5.48411 4.89641 5.42282 4.74757C5.36154 4.59435 5.33089 4.41487 5.33089 4.20913V2.20639H5.92186V4.04497C5.92186 4.18943 5.94156 4.31419 5.98096 4.41925C6.02036 4.51994 6.07289 4.60311 6.13855 4.66877C6.20422 4.73006 6.27864 4.77602 6.36181 4.80667C6.44936 4.83293 6.5391 4.84606 6.63103 4.84606C6.7536 4.84606 6.86742 4.82636 6.97248 4.78697C7.07754 4.74757 7.16947 4.68628 7.24827 4.60311C7.32706 4.51556 7.38835 4.40612 7.43212 4.27479C7.4759 4.14347 7.49779 3.98806 7.49779 3.80858V2.20639H8.08876V5.31884Z" fill="white"/>
<path d="M10.6474 2.71857H9.80037V4.13033C9.80037 4.21788 9.80255 4.30543 9.80693 4.39299C9.81131 4.47616 9.82663 4.55277 9.8529 4.62281C9.88354 4.68847 9.92731 4.74319 9.98422 4.78697C10.0455 4.82636 10.1331 4.84606 10.2469 4.84606C10.3169 4.84606 10.3891 4.8395 10.4636 4.82636C10.538 4.81323 10.6058 4.78916 10.6671 4.75414V5.29257C10.5971 5.33197 10.5052 5.35824 10.3913 5.37137C10.2819 5.38888 10.1965 5.39764 10.1352 5.39764C9.90762 5.39764 9.73032 5.36699 9.60338 5.30571C9.4808 5.24004 9.38888 5.15687 9.32759 5.05619C9.27068 4.9555 9.23566 4.84387 9.22253 4.7213C9.21377 4.59435 9.20939 4.4674 9.20939 4.34046V2.71857H8.52649V2.20639H9.20939V1.33307H9.80037V2.20639H10.6474V2.71857Z" fill="white"/>
<path d="M11.8892 3.76262C11.8892 3.92021 11.9133 4.06686 11.9615 4.20256C12.0096 4.33389 12.0775 4.44771 12.165 4.54401C12.2526 4.63594 12.3598 4.71036 12.4868 4.76727C12.6137 4.8198 12.756 4.84606 12.9136 4.84606C13.0712 4.84606 13.2134 4.8198 13.3404 4.76727C13.4673 4.71036 13.5746 4.63594 13.6621 4.54401C13.7497 4.44771 13.8175 4.33389 13.8657 4.20256C13.9139 4.06686 13.9379 3.92021 13.9379 3.76262C13.9379 3.60503 13.9139 3.46057 13.8657 3.32924C13.8175 3.19353 13.7497 3.07972 13.6621 2.98779C13.5746 2.89148 13.4673 2.81706 13.3404 2.76453C13.2134 2.70763 13.0712 2.67917 12.9136 2.67917C12.756 2.67917 12.6137 2.70763 12.4868 2.76453C12.3598 2.81706 12.2526 2.89148 12.165 2.98779C12.0775 3.07972 12.0096 3.19353 11.9615 3.32924C11.9133 3.46057 11.8892 3.60503 11.8892 3.76262ZM11.2589 3.76262C11.2589 3.53498 11.3004 3.32267 11.3836 3.12568C11.4712 2.92869 11.5894 2.75578 11.7382 2.60694C11.887 2.4581 12.0621 2.3421 12.2635 2.25893C12.4649 2.17137 12.6816 2.1276 12.9136 2.1276C13.1456 2.1276 13.3623 2.17137 13.5636 2.25893C13.765 2.3421 13.9401 2.4581 14.089 2.60694C14.2378 2.75578 14.3538 2.92869 14.437 3.12568C14.5245 3.32267 14.5683 3.53498 14.5683 3.76262C14.5683 3.99025 14.5245 4.20475 14.437 4.40612C14.3538 4.60311 14.2378 4.77602 14.089 4.92486C13.9401 5.06932 13.765 5.18532 13.5636 5.27288C13.3623 5.35605 13.1456 5.39764 12.9136 5.39764C12.6816 5.39764 12.4649 5.35605 12.2635 5.27288C12.0621 5.18532 11.887 5.06932 11.7382 4.92486C11.5894 4.77602 11.4712 4.60311 11.3836 4.40612C11.3004 4.20475 11.2589 3.99025 11.2589 3.76262Z" fill="white"/>
<path d="M15.3087 2.20639H15.8602V2.6923H15.8734C15.8865 2.64853 15.9193 2.59381 15.9719 2.52815C16.0288 2.46248 16.0988 2.4012 16.182 2.34429C16.2695 2.283 16.3702 2.23266 16.484 2.19326C16.6022 2.14949 16.7314 2.1276 16.8714 2.1276C17.1035 2.1276 17.2983 2.17575 17.4558 2.27206C17.6134 2.36836 17.7426 2.51282 17.8433 2.70544C17.9439 2.51282 18.0862 2.36836 18.2701 2.27206C18.4539 2.17575 18.64 2.1276 18.8282 2.1276C19.069 2.1276 19.266 2.167 19.4192 2.24579C19.5724 2.32459 19.6928 2.42965 19.7803 2.56098C19.8679 2.68793 19.927 2.83457 19.9576 3.00092C19.9926 3.16289 20.0102 3.33143 20.0102 3.50653V5.31884H19.4192V3.58533C19.4192 3.46713 19.4104 3.35332 19.3929 3.24388C19.3798 3.13444 19.3491 3.03813 19.301 2.95496C19.2528 2.87178 19.185 2.80612 19.0974 2.75797C19.0099 2.70544 18.8939 2.67917 18.7494 2.67917C18.4649 2.67917 18.2613 2.76672 18.1387 2.94182C18.0162 3.11693 17.9549 3.34237 17.9549 3.61816V5.31884H17.3639V3.69039C17.3639 3.54155 17.3552 3.40585 17.3377 3.28327C17.3245 3.1607 17.2939 3.05564 17.2457 2.96809C17.2019 2.87616 17.1363 2.80612 17.0487 2.75797C16.9656 2.70544 16.8517 2.67917 16.7073 2.67917C16.6022 2.67917 16.4993 2.70106 16.3987 2.74483C16.3024 2.78423 16.217 2.84552 16.1426 2.92869C16.0682 3.01187 16.0091 3.11912 15.9653 3.25044C15.9215 3.37739 15.8996 3.52842 15.8996 3.70352V5.31884H15.3087V2.20639Z" fill="white"/>
<path d="M20.9134 2.58724C21.0798 2.43403 21.2724 2.32021 21.4913 2.24579C21.7102 2.167 21.929 2.1276 22.1479 2.1276C22.3755 2.1276 22.5703 2.15605 22.7323 2.21296C22.8987 2.26987 23.0344 2.34648 23.1394 2.44278C23.2445 2.53909 23.3211 2.65072 23.3692 2.77767C23.4218 2.90024 23.448 3.02938 23.448 3.16508V4.75414C23.448 4.86357 23.4502 4.96426 23.4546 5.05619C23.459 5.14812 23.4656 5.23567 23.4743 5.31884H22.949C22.9359 5.16125 22.9293 5.00366 22.9293 4.84606H22.9162C22.7848 5.04743 22.6294 5.1897 22.45 5.27288C22.2705 5.35605 22.0625 5.39764 21.8262 5.39764C21.6817 5.39764 21.5438 5.37794 21.4125 5.33854C21.2812 5.29914 21.1651 5.24004 21.0645 5.16125C20.9682 5.08245 20.8915 4.98615 20.8346 4.87233C20.7777 4.75414 20.7493 4.61843 20.7493 4.46522C20.7493 4.26385 20.7931 4.09531 20.8806 3.95961C20.9725 3.8239 21.0951 3.71446 21.2483 3.63129C21.4059 3.54374 21.5876 3.48245 21.7933 3.44743C22.0034 3.40804 22.2267 3.38834 22.4631 3.38834H22.8965V3.25701C22.8965 3.17821 22.8811 3.09942 22.8505 3.02062C22.8199 2.94182 22.7739 2.87178 22.7126 2.8105C22.6513 2.74483 22.5747 2.69449 22.4828 2.65947C22.3909 2.62007 22.2814 2.60038 22.1545 2.60038C22.0407 2.60038 21.94 2.61132 21.8524 2.63321C21.7692 2.65509 21.6926 2.68355 21.6226 2.71857C21.5526 2.74921 21.4891 2.78642 21.4322 2.8302C21.3753 2.87397 21.3205 2.91556 21.268 2.95496L20.9134 2.58724ZM22.5813 3.82171C22.4412 3.82171 22.2967 3.83047 22.1479 3.84798C22.0034 3.86111 21.8699 3.88957 21.7474 3.93334C21.6292 3.97712 21.5307 4.0384 21.4519 4.1172C21.3775 4.196 21.3402 4.29668 21.3402 4.41925C21.3402 4.59873 21.3993 4.72787 21.5175 4.80667C21.6401 4.88546 21.8043 4.92486 22.01 4.92486C22.172 4.92486 22.3099 4.89859 22.4237 4.84606C22.5375 4.78916 22.6294 4.71693 22.6995 4.62937C22.7695 4.54182 22.8199 4.44552 22.8505 4.34046C22.8811 4.23102 22.8965 4.12377 22.8965 4.0187V3.82171H22.5813Z" fill="white"/>
<path d="M25.9732 2.71857H25.1261V4.13033C25.1261 4.21788 25.1283 4.30543 25.1327 4.39299C25.137 4.47616 25.1524 4.55277 25.1786 4.62281C25.2093 4.68847 25.2531 4.74319 25.31 4.78697C25.3712 4.82636 25.4588 4.84606 25.5726 4.84606C25.6427 4.84606 25.7149 4.8395 25.7893 4.82636C25.8637 4.81323 25.9316 4.78916 25.9929 4.75414V5.29257C25.9228 5.33197 25.8309 5.35824 25.7171 5.37137C25.6076 5.38888 25.5223 5.39764 25.461 5.39764C25.2334 5.39764 25.0561 5.36699 24.9291 5.30571C24.8065 5.24004 24.7146 5.15687 24.6533 5.05619C24.5964 4.9555 24.5614 4.84387 24.5483 4.7213C24.5395 4.59435 24.5351 4.4674 24.5351 4.34046V2.71857H23.8522V2.20639H24.5351V1.33307H25.1261V2.20639H25.9732V2.71857Z" fill="white"/>
<path d="M26.7816 2.20639H27.3726V5.31884H26.7816V2.20639ZM26.6437 1.09012C26.6437 0.971923 26.6853 0.871239 26.7685 0.788065C26.856 0.700514 26.9589 0.656738 27.0771 0.656738C27.1953 0.656738 27.296 0.700514 27.3791 0.788065C27.4667 0.871239 27.5105 0.971923 27.5105 1.09012C27.5105 1.20831 27.4667 1.31118 27.3791 1.39873C27.296 1.48191 27.1953 1.5235 27.0771 1.5235C26.9589 1.5235 26.856 1.48191 26.7685 1.39873C26.6853 1.31118 26.6437 1.20831 26.6437 1.09012Z" fill="white"/>
<path d="M30.5391 3.03375C30.4296 2.91994 30.3136 2.83457 30.1911 2.77767C30.0729 2.71638 29.9306 2.68574 29.7642 2.68574C29.6023 2.68574 29.46 2.71638 29.3374 2.77767C29.2192 2.83457 29.1186 2.91556 29.0354 3.02062C28.9566 3.1213 28.8953 3.2395 28.8515 3.3752C28.8121 3.50653 28.7924 3.64442 28.7924 3.78888C28.7924 3.93334 28.8165 4.07124 28.8647 4.20256C28.9128 4.32951 28.9807 4.44114 29.0682 4.53745C29.1558 4.63375 29.2608 4.71036 29.3834 4.76727C29.506 4.8198 29.6439 4.84606 29.7971 4.84606C29.9634 4.84606 30.1057 4.81761 30.2239 4.7607C30.3421 4.69942 30.4515 4.61186 30.5522 4.49805L30.9725 4.91829C30.8192 5.08902 30.6398 5.21159 30.434 5.28601C30.2326 5.36043 30.0181 5.39764 29.7905 5.39764C29.5497 5.39764 29.3287 5.35824 29.1273 5.27944C28.9303 5.20065 28.7596 5.09121 28.6151 4.95113C28.4707 4.80667 28.3591 4.63594 28.2803 4.43895C28.2015 4.23758 28.1621 4.01652 28.1621 3.77575C28.1621 3.53498 28.2015 3.31392 28.2803 3.11255C28.3591 2.91118 28.4685 2.73827 28.6086 2.59381C28.753 2.44935 28.9238 2.33772 29.1207 2.25893C29.3221 2.17575 29.5454 2.13417 29.7905 2.13417C30.0181 2.13417 30.2348 2.17575 30.4406 2.25893C30.6507 2.33772 30.8324 2.46029 30.9856 2.62664L30.5391 3.03375Z" fill="white"/>
</svg>
