<svg width="16" height="16" viewBox="0 0 16 16" fill="none" xmlns="http://www.w3.org/2000/svg">
<path d="M0.505316 0.50829L0.505326 0.508297C0.574156 0.417442 0.6787 0.37086 0.782745 0.37086C0.856468 0.37086 0.928193 0.392904 0.991141 0.439431L0.991596 0.439767L0.991594 0.439769L2.71715 1.7383L2.94505 1.56738C3.16425 1.40255 3.35603 1.25343 3.52695 1.12052C3.57977 1.07945 3.6306 1.03992 3.67964 1.00196C3.67966 1.00194 3.67969 1.00192 3.67972 1.0019L0.505316 0.50829ZM0.505316 0.50829L0.504561 0.509327C0.460985 0.569245 0.43629 0.642862 0.43629 0.717315V13.8031C0.43629 14.7953 1.24338 15.6048 2.23796 15.6048H13.8708C14.863 15.6048 15.6724 14.7977 15.6724 13.8031V6.53371C15.6724 6.34112 15.5157 6.18726 15.326 6.18726H12.762M0.505316 0.50829L12.762 6.18726M12.762 6.18726V0.717315C12.762 0.524716 12.6052 0.37086 12.4155 0.37086C12.3411 0.37086 12.2675 0.395555 12.2076 0.439132L12.2076 0.439127L12.2068 0.439666L10.4743 1.73631L10.2464 1.56728C10.2464 1.56725 10.2463 1.56721 10.2463 1.56718C9.9549 1.34919 9.71021 1.16011 9.50332 0.997711L9.50314 0.997572C9.27641 0.820852 9.07854 0.666795 8.91888 0.557068C8.83905 0.502196 8.76702 0.457189 8.70446 0.425684C8.64382 0.395149 8.58411 0.373089 8.53126 0.373089C8.47833 0.373089 8.41886 0.395201 8.35861 0.425777C8.29646 0.457313 8.22505 0.502351 8.14592 0.557222C7.99186 0.664045 7.80179 0.812929 7.5837 0.983757L7.56594 0.997668L7.56589 0.997711C7.35878 1.16028 7.11625 1.3494 6.82704 1.56743L6.59915 1.73835L6.37119 1.56738L12.762 6.18726ZM12.3456 14.8906L12.1621 14.3802L12.1621 14.3802C12.1068 14.2263 12.0814 14.1199 12.0694 13.441C12.0574 12.7611 12.0591 11.4983 12.0624 9.0251C12.0629 8.68753 12.0634 8.32766 12.064 7.94394C12.0663 6.4252 12.0691 4.5328 12.0691 2.1703V1.41023L11.461 1.86627L11.4609 1.86637C11.3398 1.9567 11.2321 2.04034 11.1343 2.11626C11.1192 2.12798 11.1044 2.13952 11.0897 2.15088L11.0495 2.09899M12.3456 14.8906L8.76151 1.32252C8.95944 1.47139 9.13676 1.60608 9.29561 1.72675C9.34587 1.76493 9.39429 1.80171 9.44092 1.83708L9.45361 1.84677C9.69733 2.03283 9.90923 2.19459 10.079 2.31302C10.1654 2.37328 10.2421 2.42323 10.3076 2.45977C10.3712 2.49534 10.4306 2.52197 10.4804 2.52941L10.4804 2.52968L10.4864 2.53002C10.5076 2.53123 10.5284 2.52656 10.5461 2.52082C10.5645 2.51486 10.5839 2.5063 10.6036 2.49626C10.643 2.47619 10.6886 2.44758 10.7383 2.41367C10.8378 2.34576 10.9597 2.25201 11.0898 2.15082L11.0495 2.09899M12.3456 14.8906L11.8104 14.9096H2.23796C1.62796 14.9096 1.13143 14.4131 1.13143 13.8031V1.41988L1.73548 1.86437L12.3456 14.8906ZM11.0495 2.09899C10.7887 2.30178 10.5681 2.46892 10.4901 2.46446L11.4216 1.81374C11.3 1.90448 11.1918 1.98852 11.094 2.06443C11.0789 2.07615 11.0641 2.08767 11.0495 2.09899ZM2.07508 2.11962L2.07507 2.11963L1.73551 1.8644C1.86244 1.95793 1.97551 2.04218 2.07508 2.11962ZM8.53349 1.1515L8.76144 1.32246L4.88614 1.32252C5.10532 1.48733 5.29708 1.63643 5.46799 1.76933C5.52078 1.81038 5.57158 1.84988 5.62058 1.88782C5.84723 2.06558 6.04504 2.22071 6.20464 2.33125C6.28447 2.38654 6.35649 2.43191 6.41906 2.46368C6.47968 2.49446 6.53947 2.51676 6.59246 2.51676C6.64585 2.51676 6.70597 2.49457 6.76704 2.46375C6.82998 2.43198 6.9023 2.3866 6.98242 2.33131C7.13935 2.22301 7.33299 2.07186 7.55497 1.89861L7.56863 1.88795C7.56867 1.88791 7.56872 1.88788 7.56876 1.88784C7.61206 1.85432 7.65675 1.81959 7.703 1.78364C7.87859 1.64718 8.07657 1.49331 8.30534 1.32261L8.30547 1.32252L8.53349 1.1515ZM4.65812 1.1515L4.88607 1.32247L2.73269 2.46223L2.73933 2.52756C2.73959 2.52754 2.73985 2.52751 2.7401 2.52748C2.78737 2.52246 2.84329 2.49728 2.90074 2.46516C2.96085 2.43155 3.03139 2.3852 3.10985 2.32979C3.26584 2.21965 3.45855 2.06988 3.67158 1.90431L3.67551 1.90126C3.67551 1.90125 3.67552 1.90125 3.67553 1.90124C3.70435 1.87886 3.73387 1.8559 3.76412 1.83237C3.95402 1.68468 4.17294 1.51442 4.42997 1.32261L4.43009 1.32252L4.65812 1.1515ZM13.8685 14.9096C13.2585 14.9096 12.762 14.4131 12.762 13.8031V6.88017H14.9751V13.8031C14.9751 14.4131 14.4785 14.9096 13.8685 14.9096Z" fill="#6000D1" stroke="#0F1312" stroke-width="0.131327"/>
<path d="M6.94623 5.81637L6.94622 5.81612L7.28583 11.243L7.27949 11.1776L7.28603 11.2429L7.28601 11.2429C7.67127 11.2055 8.01691 11.0186 8.26178 10.7201C8.50697 10.4212 8.61898 10.0451 8.58167 9.66034C8.5443 9.27502 8.35732 8.9293 8.05877 8.6844C7.76055 8.43976 7.38506 8.32519 7.0004 8.36436L6.95917 8.36643H6.23432C5.82489 8.36643 5.49104 8.03258 5.49104 7.62314C5.49104 7.2137 5.82489 6.87986 6.23432 6.87986H8.05278C8.24538 6.87986 8.39924 6.72309 8.39924 6.5334C8.39924 6.3408 8.24248 6.18695 8.05278 6.18695H6.95573L6.94623 5.81637ZM6.94402 11.2771V11.2177H6.87836L6.88489 11.2831L6.94402 11.2771ZM6.31678 11.1754V11.241L6.31901 5.83142L6.25336 5.83299L6.25336 5.83314C6.25337 5.83321 6.25337 5.83328 6.25337 5.83335L6.26096 6.1523L5.94949 6.21498L5.94931 6.21502C5.1717 6.37381 4.66972 7.13269 4.82616 7.9102L4.82618 7.9103C4.96165 8.57831 5.55464 9.06156 6.23432 9.06156H6.23432H6.23433H6.23433H6.23433H6.23433H6.23433H6.23434H6.23434H6.23434H6.23434H6.23435H6.23435H6.23435H6.23435H6.23435H6.23436H6.23436H6.23436H6.23436H6.23437H6.23437H6.23437H6.23437H6.23438H6.23438H6.23438H6.23438H6.23438H6.23439H6.23439H6.23439H6.23439H6.2344H6.2344H6.2344H6.23441H6.23441H6.23441H6.23441H6.23442H6.23442H6.23442H6.23443H6.23443H6.23443H6.23444H6.23444H6.23445H6.23445H6.23445H6.23445H6.23445H6.23446H6.23446H6.23446H6.23446H6.23446H6.23447H6.23447H6.23447H6.23447H6.23447H6.23448H6.23448H6.23448H6.23448H6.23449H6.23449H6.23449H6.23449H6.23449H6.2345H6.2345H6.2345H6.2345H6.23451H6.23451H6.23451H6.23451H6.23452H6.23452H6.23452H6.23452H6.23453H6.23453H6.23453H6.23454H6.23454H6.23454H6.23454H6.23455H6.23455H6.23455H6.23455H6.23456H6.23456H6.23456H6.23457H6.23457H6.23457H6.23458H6.23458H6.23458H6.23459H6.23459H6.23459H6.23459H6.2346H6.2346H6.2346H6.23461H6.23461H6.23461H6.23462H6.23462H6.23462H6.23463H6.23463H6.23463H6.23464H6.23464H6.23465H6.23465H6.23465H6.23466H6.23466H6.23466H6.23467H6.23467H6.23468H6.23468H6.23468H6.23469H6.23469H6.23469H6.2347H6.2347H6.23471H6.23471H6.23471H6.23472H6.23472H6.23473H6.23473H6.23474H6.23474H6.23474H6.23475H6.23475H6.23476H6.23476H6.23477H6.23477H6.23478H6.23478H6.23478H6.23479H6.23479H6.2348H6.2348H6.23481H6.23481H6.23482H6.23482H6.23483H6.23483H6.23484H6.23484H6.23485H6.23485H6.23486H6.23486H6.23487H6.23487H6.23488H6.23488H6.23489H6.23489H6.2349H6.2349H6.23491H6.23491H6.23492H6.23492H6.23493H6.23494H6.23494H6.23495H6.23495H6.23496H6.23496H6.23497H6.23498H6.23498H6.23499H6.23499H6.235H6.235H6.23501H6.23502H6.23502H6.23503H6.23503H6.23504H6.23505H6.23505H6.23506H6.23507H6.23507H6.23508H6.23508H6.23509H6.2351H6.2351H6.23511H6.23512H6.23512H6.23513H6.23514H6.23514H6.23515H6.23516H6.23516H6.23517H6.23518H6.23518H6.23519H6.2352H6.23521H6.23521H6.23522H6.23523H6.23523H6.23524H6.23525H6.23526H6.23526H6.23527H6.23528H6.23528H6.23529H6.2353H6.23531H6.23532H6.23532H6.23533H6.23534H6.23535H6.23535H6.23536H6.23537H6.23538H6.23539H6.23539H6.2354H6.23541H6.23542H6.23543H6.23543H6.23544H6.23545H6.23546H6.23547H6.23548H6.23548H6.23549H6.2355H6.23551H6.23552H6.23553H6.23554H6.23554H6.23555H6.23556H6.23557H6.23558H6.23559H6.2356H6.23561H6.23562H6.23562H6.23563H6.23564H6.23565H6.23566H6.23567H6.23568H6.23569H6.2357H6.23571H6.23572H6.23573H6.23574H6.23575H6.23576H6.23577H6.23578H6.23579H6.2358H6.23581H6.23582H6.23583H6.23584H6.23585H6.23586H6.23587H6.23588H6.23589H6.2359H6.23591H6.23592H6.23593H6.23594H6.23595H6.23596H6.23597H6.23598H6.23599H6.236H6.23601H6.23602H6.23604H6.23605H6.23606H6.23607H6.23608H6.23609H6.2361H6.23611H6.23612H6.23614H6.23615H6.23616H6.23617H6.23618H6.23619H6.23621H6.23622H6.23623H6.23624H6.23625H6.23626H6.23628H6.23629H6.2363H6.23631H6.23632H6.23634H6.23635H6.23636H6.23637H6.23639H6.2364H6.23641H6.23642H6.23644H6.23645H6.23646H6.23647H6.23649H6.2365H6.23651H6.23653H6.23654H6.23655H6.96304C7.37248 9.06156 7.70633 9.39541 7.70633 9.80485C7.70633 10.2143 7.37248 10.5481 6.96304 10.5481H5.14458C4.95198 10.5481 4.79813 10.7049 4.79813 10.8946C4.79813 11.0872 4.95489 11.241 5.14458 11.241H6.25111V11.1754H6.31678Z" fill="#6000D1" stroke="#6000D1" stroke-width="0.131327"/>
</svg>
