<svg width="13" height="13" viewBox="0 0 13 13" fill="none" xmlns="http://www.w3.org/2000/svg">
<g clip-path="url(#clip0_928_119880)">
<path d="M6.54944 0.979492L0.951172 6.47722L6.54944 11.975L12.1477 6.47722L6.54944 0.979492ZM8.1668 7.38237L7.55215 7.87471V6.5292H5.39427V8.11751H4.23895V5.82136C4.23895 5.58545 4.43298 5.39477 4.67334 5.39477H7.55215V4.06746L9.78415 6.08456L8.62884 7.01038L8.1668 7.38237Z" fill="#161616"/>
<path d="M6.5488 12.1356L0.787109 6.47755L6.5488 0.819336L12.3106 6.47755L6.5488 12.1356ZM1.11381 6.47755L6.5488 11.8148L11.9838 6.47755L6.5488 1.14017L1.11381 6.47755ZM5.50917 8.23145H4.12291V5.82168C4.12291 5.52388 4.36944 5.28163 4.67269 5.28163H7.4361V3.80914L9.95985 6.08999L7.4361 8.11398V6.64314H5.50917V8.23145ZM4.35386 8.00451H5.27808V6.4162H7.66705V7.63611L9.60731 6.07978L7.66705 4.3263V5.50857H4.67269C4.49692 5.50857 4.35386 5.64907 4.35386 5.82168V8.00451Z" fill="#161616"/>
</g>
<defs>
<clipPath id="clip0_928_119880">
<rect width="11.5235" height="11.5235" fill="white" transform="translate(0.787109 0.816406)"/>
</clipPath>
</defs>
</svg>
