<svg width="12" height="13" viewBox="0 0 12 13" fill="none" xmlns="http://www.w3.org/2000/svg">
<g clip-path="url(#clip0_928_119874)">
<path d="M5.81702 0.979492L0.21875 6.47722L5.81702 11.975L11.4153 6.47722L5.81702 0.979492ZM7.43437 7.38237L6.81972 7.87471V6.5292H4.66185V8.11751H3.50653V5.82136C3.50653 5.58545 3.70056 5.39477 3.94091 5.39477H6.81972V4.06746L9.05173 6.08456L7.89642 7.01038L7.43437 7.38237Z" fill="#161616"/>
<path d="M5.81638 12.1356L0.0546875 6.47755L5.81638 0.819336L11.5782 6.47755L5.81638 12.1356ZM0.381388 6.47755L5.81638 11.8148L11.2514 6.47755L5.81638 1.14017L0.381388 6.47755ZM4.77675 8.23145H3.39048V5.82168C3.39048 5.52388 3.63702 5.28163 3.94027 5.28163H6.70368V3.80914L9.22742 6.08999L6.70368 8.11398V6.64314H4.77675V8.23145ZM3.62143 8.00451H4.54566V6.4162H6.93463V7.63611L8.87489 6.07978L6.93463 4.3263V5.50857H3.94027C3.7645 5.50857 3.62143 5.64907 3.62143 5.82168V8.00451Z" fill="#161616"/>
</g>
<defs>
<clipPath id="clip0_928_119874">
<rect width="11.5235" height="11.5235" fill="white" transform="translate(0.0546875 0.816406)"/>
</clipPath>
</defs>
</svg>
