<svg width="13" height="13" viewBox="0 0 13 13" fill="none" xmlns="http://www.w3.org/2000/svg">
<g clip-path="url(#clip0_928_119868)">
<path d="M6.54944 0.792969L0.951172 6.2907L6.54944 11.7884L12.1477 6.2907L6.54944 0.792969ZM8.1668 7.19584L7.55215 7.68819V6.34268H5.39427V7.93099H4.23895V5.63483C4.23895 5.39893 4.43298 5.20825 4.67334 5.20825H7.55215V3.88094L9.78415 5.89803L8.62884 6.82386L8.1668 7.19584Z" fill="#161616"/>
<path d="M6.5488 11.9491L0.787109 6.29103L6.5488 0.632812L12.3106 6.29103L6.5488 11.9491ZM1.11381 6.29103L6.5488 11.6283L11.9838 6.29103L6.5488 0.953646L1.11381 6.29103ZM5.50917 8.04492H4.12291V5.63516C4.12291 5.33735 4.36944 5.09511 4.67269 5.09511H7.4361V3.62261L9.95985 5.90346L7.4361 7.92746V6.45661H5.50917V8.04492ZM4.35386 7.81798H5.27808V6.22967H7.66705V7.44958L9.60731 5.89326L7.66705 4.13978V5.32205H4.67269C4.49692 5.32205 4.35386 5.46254 4.35386 5.63516V7.81798Z" fill="#161616"/>
</g>
<defs>
<clipPath id="clip0_928_119868">
<rect width="11.5235" height="11.5235" fill="white" transform="translate(0.787109 0.630859)"/>
</clipPath>
</defs>
</svg>
