<svg width="12" height="13" viewBox="0 0 12 13" fill="none" xmlns="http://www.w3.org/2000/svg">
<g clip-path="url(#clip0_928_119862)">
<path d="M5.81702 0.792969L0.21875 6.2907L5.81702 11.7884L11.4153 6.2907L5.81702 0.792969ZM7.43437 7.19584L6.81972 7.68819V6.34268H4.66185V7.93099H3.50653V5.63483C3.50653 5.39893 3.70056 5.20825 3.94091 5.20825H6.81972V3.88094L9.05173 5.89803L7.89642 6.82386L7.43437 7.19584Z" fill="#161616"/>
<path d="M5.81638 11.9491L0.0546875 6.29103L5.81638 0.632812L11.5782 6.29103L5.81638 11.9491ZM0.381388 6.29103L5.81638 11.6283L11.2514 6.29103L5.81638 0.953646L0.381388 6.29103ZM4.77675 8.04492H3.39048V5.63516C3.39048 5.33735 3.63702 5.09511 3.94027 5.09511H6.70368V3.62261L9.22742 5.90346L6.70368 7.92746V6.45661H4.77675V8.04492ZM3.62143 7.81798H4.54566V6.22967H6.93463V7.44958L8.87489 5.89326L6.93463 4.13978V5.32205H3.94027C3.7645 5.32205 3.62143 5.46254 3.62143 5.63516V7.81798Z" fill="#161616"/>
</g>
<defs>
<clipPath id="clip0_928_119862">
<rect width="11.5235" height="11.5235" fill="white" transform="translate(0.0546875 0.630859)"/>
</clipPath>
</defs>
</svg>
