<svg width="13" height="14" viewBox="0 0 13 14" fill="none" xmlns="http://www.w3.org/2000/svg">
<g clip-path="url(#clip0_818_118204)">
<path d="M6.4019 0.96875L0.201172 7.05812L6.4019 13.1475L12.6026 7.05812L6.4019 0.96875ZM8.19331 8.06067L7.51251 8.60601V7.11569H5.12241V8.87493H3.84277V6.33167C3.84277 6.07038 4.05768 5.85918 4.3239 5.85918H7.51251V4.38903L9.98472 6.6232L8.70507 7.64866L8.19331 8.06067Z" fill="#161616"/>
<path d="M6.40127 13.3261L0.0195312 7.05912L6.40127 0.791992L12.7832 7.05912L6.40127 13.3261ZM0.381389 7.05912L6.40127 12.9707L12.4211 7.05912L6.40127 1.14735L0.381389 7.05912ZM5.24976 9.00176H3.71431V6.33267C3.71431 6.00282 3.98738 5.7345 4.32327 5.7345H7.38405V4.10354L10.1794 6.62985L7.38405 8.87165V7.24253H5.24976V9.00176ZM3.97012 8.7504H4.9938V6.99116H7.63986V8.34236L9.78893 6.61855L7.63986 4.67636V5.98586H4.32327C4.12857 5.98586 3.97012 6.14148 3.97012 6.33267V8.7504Z" fill="#161616"/>
</g>
<defs>
<clipPath id="clip0_818_118204">
<rect width="12.7636" height="12.7636" fill="white" transform="translate(0.0195312 0.790039)"/>
</clipPath>
</defs>
</svg>
