<svg width="10" height="10" viewBox="0 0 10 10" fill="none" xmlns="http://www.w3.org/2000/svg">
<g clip-path="url(#clip0_811_117048)">
<path d="M5.38696 0.651855C6.62313 0.651855 7.74233 1.15301 8.55251 1.96311C9.36262 2.77329 9.86377 3.89249 9.86377 5.12866C9.86377 6.36483 9.36262 7.48403 8.55251 8.29421C7.74233 9.10431 6.62313 9.60547 5.38696 9.60547C4.15079 9.60547 3.03159 9.10431 2.22141 8.29421C1.41131 7.48403 0.910156 6.36483 0.910156 5.12866C0.910156 3.89249 1.41131 2.77329 2.22141 1.96311C3.03159 1.15301 4.15079 0.651855 5.38696 0.651855ZM8.14016 2.37547C7.43561 1.67092 6.46221 1.23506 5.38696 1.23506C4.31172 1.23506 3.33832 1.67092 2.63377 2.37539C1.92922 3.08002 1.49337 4.05342 1.49337 5.12866C1.49337 6.20391 1.92922 7.17731 2.63369 7.88186C3.33824 8.58633 4.31172 9.02218 5.38689 9.02218C6.46206 9.02218 7.43553 8.58633 8.14008 7.88186C8.84456 7.17731 9.28041 6.20383 9.28041 5.12866C9.28041 4.05349 8.84471 3.08002 8.14016 2.37547Z" fill="#1F053F"/>
<path fill-rule="evenodd" clip-rule="evenodd" d="M2.92581 7.54346L2.92403 7.53131C2.80877 6.74796 3.20578 6.01109 3.9233 5.67635C4.00521 5.6381 4.09193 5.60386 4.18244 5.57324C4.53779 5.77612 4.94925 5.89212 5.38777 5.89212C5.82629 5.89212 6.23775 5.77612 6.5931 5.57324C6.68361 5.60386 6.77034 5.6381 6.85224 5.67635C7.56977 6.01109 7.9667 6.74796 7.85151 7.53131L7.84973 7.54346C7.84202 7.55132 7.83431 7.5591 7.82661 7.56689C7.17743 8.21607 6.30602 8.57698 5.38784 8.57698C4.46967 8.57698 3.59826 8.21607 2.94908 7.56689C2.94115 7.55918 2.93352 7.55132 2.92581 7.54346Z" fill="#1F053F"/>
<path fill-rule="evenodd" clip-rule="evenodd" d="M5.38724 2.17871C6.27963 2.17871 7.003 2.90209 7.003 3.79447C7.003 4.68685 6.27963 5.41023 5.38724 5.41023C4.49486 5.41023 3.77148 4.68685 3.77148 3.79447C3.77148 2.90216 4.49486 2.17871 5.38724 2.17871Z" fill="#1F053F"/>
</g>
<defs>
<clipPath id="clip0_811_117048">
<rect width="8.95361" height="8.95361" fill="white" transform="translate(0.910156 0.65332)"/>
</clipPath>
</defs>
</svg>
