<svg width="135" height="58" viewBox="0 0 135 58" fill="none" xmlns="http://www.w3.org/2000/svg">
<path d="M64.4074 10.9392L69.6969 16.0736L76.1352 9.72988C77.663 8.15342 79.6139 7.37365 81.9854 7.39057H82.9369C83.1796 7.38146 83.4276 7.37755 83.6794 7.37755H99.1961V0.00683438H85.9068C85.298 -0.00227813 84.7074 -0.00227813 84.135 0.00683438H80.0955C76.9867 -0.0881961 74.4542 0.860806 72.4994 2.85384L64.4451 10.796L64.4074 10.9392ZM57.3085 34.167L57.2695 34.3102L62.559 39.4457L81.2417 20.8197C82.7708 19.242 84.7204 18.4622 87.0919 18.4791H91.5611V11.0955H85.202C82.0932 11.0004 79.5607 11.9494 77.6059 13.9425L57.3085 34.167Z" fill="white"/>
<path d="M2.17939 24.0064H0.953125V11.9663H8.22554V13.0887H2.17939V17.1871H7.79975V18.3095H2.17939V24.0064Z" fill="white"/>
<path d="M14.6236 24.0064H13.3974V11.9663H14.6236V24.0064Z" fill="white"/>
<path d="M22.0948 17.2891H24.2749C24.8199 17.2891 25.2797 17.2324 25.6544 17.1191C26.0404 17.0057 26.347 16.8583 26.5741 16.6769C26.8012 16.4842 26.9658 16.2631 27.068 16.0137C27.1702 15.7529 27.2213 15.4751 27.2213 15.1804C27.2213 14.8969 27.1702 14.6305 27.068 14.3811C26.9658 14.1203 26.8012 13.8936 26.5741 13.7009C26.347 13.5081 26.0404 13.3607 25.6544 13.2587C25.2797 13.1453 24.8199 13.0887 24.2749 13.0887H22.0948V17.2891ZM22.0948 24.0064H20.8686V11.9663H24.5814C25.8077 11.9663 26.7728 12.2327 27.4768 12.7655C28.1921 13.2984 28.5497 14.1033 28.5497 15.1804C28.5497 16.0193 28.2829 16.7279 27.7493 17.3061C27.227 17.873 26.4662 18.2018 25.4671 18.2925L28.9415 24.0064H27.4427L24.1386 18.4115H22.0948V24.0064Z" fill="white"/>
<path d="M39.6504 13.956C39.1167 13.1737 38.3389 12.7825 37.3171 12.7825C36.9991 12.7825 36.6869 12.8279 36.3803 12.9186C36.0738 12.998 35.7956 13.1283 35.5458 13.3097C35.3074 13.4798 35.1143 13.7065 34.9667 13.99C34.8191 14.2621 34.7453 14.5852 34.7453 14.9593C34.7453 15.5035 34.8986 15.9286 35.2052 16.2347C35.5117 16.5295 35.8921 16.7733 36.3463 16.966C36.8004 17.1587 37.2943 17.3345 37.828 17.4932C38.373 17.6406 38.8726 17.8446 39.3268 18.1054C39.7809 18.3548 40.1613 18.6893 40.4679 19.1087C40.7744 19.5282 40.9277 20.1008 40.9277 20.8263C40.9277 21.3705 40.8085 21.8637 40.5701 22.3059C40.343 22.7367 40.0364 23.0995 39.6504 23.3942C39.2757 23.689 38.8499 23.9157 38.373 24.0745C37.9075 24.2332 37.4363 24.3126 36.9594 24.3126C36.2214 24.3126 35.5174 24.1765 34.8475 23.9044C34.189 23.621 33.6269 23.1618 33.1614 22.5269L34.2684 21.7277C34.5296 22.1698 34.8929 22.5269 35.3584 22.799C35.824 23.0598 36.3746 23.1902 37.0105 23.1902C37.3171 23.1902 37.6236 23.1448 37.9302 23.0541C38.2368 22.9521 38.5093 22.8104 38.7477 22.629C38.9975 22.4362 39.2019 22.2038 39.3608 21.9317C39.5198 21.6596 39.5993 21.3479 39.5993 20.9964C39.5993 20.5769 39.5084 20.2311 39.3268 19.959C39.1565 19.6756 38.9237 19.4432 38.6285 19.2618C38.3446 19.0691 38.0153 18.9103 37.6407 18.7856C37.2773 18.6609 36.8969 18.5362 36.4995 18.4115C36.1135 18.2868 35.7331 18.1451 35.3584 17.9864C34.9951 17.8276 34.6658 17.6292 34.3706 17.3911C34.0868 17.1417 33.854 16.8356 33.6723 16.4728C33.502 16.0987 33.4169 15.6339 33.4169 15.0783C33.4169 14.5001 33.5247 13.9956 33.7405 13.5648C33.9675 13.134 34.2628 12.7769 34.6261 12.4934C35.0008 12.21 35.4209 12.0003 35.8864 11.8642C36.3519 11.7282 36.8288 11.6602 37.3171 11.6602C37.9983 11.6602 38.6171 11.7679 39.1735 11.9833C39.7298 12.1987 40.2465 12.5785 40.7233 13.1227L39.6504 13.956Z" fill="white"/>
<path d="M50.2552 24.0064H49.0289V13.0887H44.9925V11.9663H54.2917V13.0887H50.2552V24.0064Z" fill="white"/>
<path d="M105.109 16.5858H105.997C106.34 16.5858 106.636 16.5351 106.885 16.4337C107.139 16.3281 107.349 16.1908 107.514 16.0219C107.683 15.8487 107.808 15.6544 107.888 15.439C107.968 15.2194 108.008 14.9934 108.008 14.7611C108.008 14.5288 107.968 14.305 107.888 14.0895C107.808 13.8699 107.683 13.6756 107.514 13.5067C107.349 13.3335 107.139 13.1962 106.885 13.0949C106.636 12.9893 106.34 12.9365 105.997 12.9365H105.109V16.5858ZM104.652 12.5183H106.143C106.422 12.5183 106.702 12.5648 106.981 12.6577C107.264 12.7506 107.518 12.8921 107.742 13.0822C107.97 13.268 108.154 13.5025 108.294 13.7854C108.433 14.0642 108.503 14.3894 108.503 14.7611C108.503 15.137 108.433 15.4644 108.294 15.7431C108.154 16.0219 107.97 16.2563 107.742 16.4464C107.518 16.6322 107.264 16.7716 106.981 16.8645C106.702 16.9574 106.422 17.0039 106.143 17.0039H104.652V12.5183Z" fill="white"/>
<path d="M110.668 14.5014H111.48C111.683 14.5014 111.854 14.4802 111.994 14.438C112.138 14.3958 112.252 14.3409 112.336 14.2733C112.421 14.2015 112.482 14.1191 112.52 14.0262C112.559 13.929 112.578 13.8256 112.578 13.7158C112.578 13.6102 112.559 13.5109 112.52 13.418C112.482 13.3208 112.421 13.2364 112.336 13.1646C112.252 13.0928 112.138 13.0379 111.994 12.9998C111.854 12.9576 111.683 12.9365 111.48 12.9365H110.668V14.5014ZM110.668 17.0039H110.211V12.5183H111.594C112.051 12.5183 112.411 12.6176 112.673 12.8161C112.939 13.0146 113.072 13.3145 113.072 13.7158C113.072 14.0283 112.973 14.2923 112.774 14.5077C112.58 14.7189 112.296 14.8414 111.924 14.8752L113.218 17.0039H112.66L111.429 14.9195H110.668V17.0039Z" fill="white"/>
<path d="M115.222 17.0039H114.765V12.5183H115.222V17.0039Z" fill="white"/>
<path d="M118.538 16.3197H118.55L120.022 12.5183H120.517L118.766 17.0039H118.309L116.603 12.5183H117.11L118.538 16.3197Z" fill="white"/>
<path d="M122.359 17.0039H121.902V12.5183H122.359V17.0039Z" fill="white"/>
<path d="M127.616 16.3197H127.629V12.5183H128.086V17.0039H127.515L124.837 13.1646H124.825V17.0039H124.368V12.5183H124.939L127.616 16.3197Z" fill="white"/>
<path d="M133.417 13.342C133.264 13.1815 133.083 13.0547 132.871 12.9618C132.66 12.8689 132.414 12.8224 132.135 12.8224C131.848 12.8224 131.59 12.8752 131.361 12.9808C131.133 13.0864 130.938 13.2279 130.778 13.4053C130.621 13.5827 130.501 13.7897 130.416 14.0262C130.331 14.2585 130.289 14.5035 130.289 14.7611C130.289 15.0188 130.331 15.2658 130.416 15.5024C130.501 15.7347 130.621 15.9395 130.778 16.1169C130.938 16.2943 131.133 16.4358 131.361 16.5414C131.59 16.647 131.848 16.6998 132.135 16.6998C132.368 16.6998 132.59 16.6723 132.801 16.6174C133.017 16.5583 133.21 16.4802 133.379 16.383V14.8815H132.307V14.4633H133.835V16.6618C133.582 16.8096 133.303 16.9236 132.998 17.0039C132.698 17.0799 132.41 17.1179 132.135 17.1179C131.801 17.1179 131.49 17.0588 131.203 16.9405C130.919 16.8223 130.672 16.6597 130.46 16.4527C130.253 16.2415 130.09 15.9923 129.972 15.7051C129.853 15.4179 129.794 15.1032 129.794 14.7611C129.794 14.419 129.853 14.1043 129.972 13.8171C130.09 13.5299 130.253 13.2828 130.46 13.0759C130.672 12.8647 130.919 12.7 131.203 12.5817C131.49 12.4634 131.801 12.4043 132.135 12.4043C132.495 12.4043 132.803 12.455 133.061 12.5563C133.324 12.6535 133.556 12.8034 133.759 13.0062L133.417 13.342Z" fill="white"/>
<path d="M108.656 23.2406C108.579 23.3546 108.484 23.4623 108.37 23.5637C108.26 23.6651 108.133 23.7538 107.989 23.8298C107.846 23.9016 107.689 23.9586 107.52 24.0009C107.355 24.0431 107.179 24.0642 106.993 24.0642C106.659 24.0642 106.348 24.0051 106.061 23.8868C105.777 23.7686 105.53 23.606 105.318 23.399C105.111 23.1878 104.948 22.9386 104.83 22.6514C104.712 22.3642 104.652 22.0495 104.652 21.7074C104.652 21.3653 104.712 21.0506 104.83 20.7634C104.948 20.4762 105.111 20.2291 105.318 20.0222C105.53 19.811 105.777 19.6462 106.061 19.528C106.348 19.4097 106.659 19.3506 106.993 19.3506C107.272 19.3506 107.552 19.4055 107.831 19.5153C108.11 19.6251 108.349 19.8067 108.548 20.0602L108.148 20.3579C108.101 20.2861 108.038 20.2143 107.958 20.1425C107.877 20.0707 107.784 20.0074 107.679 19.9525C107.577 19.8976 107.467 19.8532 107.349 19.8194C107.23 19.7856 107.112 19.7687 106.993 19.7687C106.706 19.7687 106.448 19.8215 106.219 19.9271C105.991 20.0327 105.796 20.1742 105.636 20.3516C105.479 20.529 105.359 20.736 105.274 20.9725C105.189 21.2048 105.147 21.4498 105.147 21.7074C105.147 21.9651 105.189 22.2121 105.274 22.4487C105.359 22.681 105.479 22.8858 105.636 23.0632C105.796 23.2406 105.991 23.3821 106.219 23.4877C106.448 23.5933 106.706 23.6461 106.993 23.6461C107.112 23.6461 107.228 23.6355 107.342 23.6144C107.461 23.5933 107.575 23.5574 107.685 23.5067C107.799 23.456 107.905 23.3884 108.002 23.304C108.104 23.2153 108.197 23.1054 108.281 22.9745L108.656 23.2406Z" fill="white"/>
<path d="M110.674 23.532H113.078V23.9502H110.217V19.4646H113.002V19.8828H110.674V21.4096H112.85V21.8278H110.674V23.532Z" fill="white"/>
<path d="M118.019 23.2659H118.031V19.4646H118.488V23.9502H117.917L115.24 20.1109H115.227V23.9502H114.771V19.4646H115.342L118.019 23.2659Z" fill="white"/>
<path d="M121.942 23.9502H121.485V19.8828H119.981V19.4646H123.445V19.8828H121.942V23.9502Z" fill="white"/>
<path d="M129.451 23.5785H131.856V23.9966H128.995V19.5111H131.78V19.9292H129.451V21.4561H131.627V21.8742H129.451V23.5785Z" fill="white"/>
<path d="M125.148 21.3801H125.96C126.163 21.3801 126.334 21.359 126.474 21.3167C126.618 21.2745 126.732 21.2196 126.817 21.152C126.901 21.0802 126.963 20.9978 127.001 20.9049C127.039 20.8078 127.058 20.7043 127.058 20.5945C127.058 20.4889 127.039 20.3896 127.001 20.2967C126.963 20.1995 126.901 20.1151 126.817 20.0433C126.732 19.9715 126.618 19.9166 126.474 19.8785C126.334 19.8363 126.163 19.8152 125.96 19.8152H125.148V21.3801ZM125.148 23.8826H124.691V19.397H126.074C126.531 19.397 126.891 19.4963 127.153 19.6948C127.419 19.8933 127.553 20.1932 127.553 20.5945C127.553 20.907 127.453 21.171 127.254 21.3864C127.06 21.5976 126.776 21.7201 126.404 21.7539L127.698 23.8826H127.14L125.909 21.7982H125.148V23.8826Z" fill="white"/>
<path d="M4.39402 51.8064C4.44726 52.953 4.95802 53.165 5.56533 53.165C5.8748 53.165 6.14107 53.3128 6.14107 53.643C6.14107 53.8549 6.03453 54.1309 5.56533 54.1309C4.90477 54.1309 4.22263 53.9502 3.89318 53.165C3.54211 53.3884 2.93478 53.4935 2.57206 53.4935C1.60203 53.4935 0.953125 52.9629 0.953125 52.1563C0.953125 51.4878 1.31585 50.9145 1.99637 50.3724C2.3907 50.0537 3.05125 49.7136 3.57204 49.4492L3.54043 48.5999L4.26422 48.526L4.39402 51.8064ZM3.60535 50.236C2.24265 50.8093 1.67692 51.404 1.67692 51.9132C1.67692 52.3485 2.0929 52.5506 2.68857 52.5506C2.99804 52.5506 3.41231 52.4767 3.70016 52.3485C3.70016 52.2746 3.69021 52.2007 3.69021 52.1153L3.60535 50.236ZM2.54045 46.9982C2.54045 46.6582 2.77505 46.4364 3.08287 46.4364C3.40233 46.4364 3.62695 46.6599 3.62695 46.9982C3.62695 47.3366 3.40399 47.5502 3.08287 47.5502C2.77505 47.5502 2.54045 47.3481 2.54045 46.9982ZM3.98801 46.9982C3.98801 46.6582 4.201 46.4364 4.51047 46.4364C4.83992 46.4364 5.05289 46.6599 5.05289 46.9982C5.05289 47.3366 4.83992 47.5502 4.51047 47.5502C4.201 47.5502 3.98801 47.3481 3.98801 46.9982ZM5.56533 54.1309C5.20261 54.1309 5.02291 53.8861 5.02291 53.6315C5.02291 53.3982 5.20427 53.165 5.56533 53.165H6.27914C7.36564 53.165 8.5054 52.9957 8.79324 52.8578C8.81487 52.751 8.8465 52.6344 8.8465 52.4964C6.85487 52.5818 6.13107 51.657 6.13107 50.788C6.13107 50.4266 6.22759 49.9288 6.68515 49.4508C7.06784 49.0467 7.56866 48.8775 7.93138 48.8775C8.74168 48.8775 9.62517 49.8335 9.62517 51.5945C9.62517 52.1153 9.54028 52.9744 9.34894 53.4409C9.00785 53.6857 8.23088 54.1309 6.186 54.1309H5.56533ZM6.36399 46.9867C6.36399 46.6467 6.5986 46.4233 6.90641 46.4233C7.22587 46.4233 7.45049 46.6467 7.45049 46.9867C7.45049 47.3366 7.22754 47.5486 6.90641 47.5486C6.5986 47.5502 6.36399 47.3383 6.36399 46.9867ZM8.89971 51.6898C8.96294 50.9785 8.61188 49.7153 7.80325 49.7153C7.22755 49.7153 6.81322 50.1719 6.81322 50.6812C6.81156 51.3186 7.57861 51.721 8.89971 51.6898ZM7.81322 46.9867C7.81322 46.6467 8.01622 46.4233 8.33568 46.4233C8.65514 46.4233 8.8781 46.6467 8.8781 46.9867C8.8781 47.3366 8.65514 47.5486 8.33568 47.5486C8.01456 47.5502 7.81322 47.3383 7.81322 46.9867ZM14.1924 46.489L14.9911 46.4249L15.2889 54.1325H14.4903L14.1924 46.489ZM24.1307 53.1764C24.4402 53.1764 24.6947 53.3144 24.6947 53.643C24.6947 53.8549 24.5982 54.1309 24.1307 54.1309H23.2472C22.9277 55.7867 21.7131 57.0598 20.2223 57.0598C19.6998 57.0598 19.0609 56.953 18.6133 56.5391L18.7731 55.8705C19.1358 56.061 19.4968 56.1777 20.1358 56.1777C21.3387 56.1777 22.2123 55.2643 22.5001 54.1292H22.2871C20.3704 54.1292 19.8479 53.2159 19.8479 52.2286C19.8479 51.2726 20.5933 50.4348 21.5201 50.4348C22.2123 50.4348 23.2771 50.9966 23.3204 53.1732H24.1307V53.1764ZM22.6083 53.1764C22.565 51.9132 22.0442 51.2446 21.3837 51.2446C20.8729 51.2446 20.5318 51.6898 20.5318 52.1251C20.5318 52.6245 20.788 53.1764 22.4485 53.1764H22.6083ZM26.9543 53.165C27.3902 53.165 27.4867 53.4311 27.4867 53.6528C27.4867 53.8549 27.3702 54.1309 26.9543 54.1309H24.1307C23.6948 54.1309 23.5983 53.8647 23.5983 53.6315C23.5983 53.4409 23.7147 53.165 24.1307 53.165H26.9543ZM29.7762 53.165C30.2121 53.165 30.3086 53.4311 30.3086 53.6528C30.3086 53.8549 30.1921 54.1309 29.7762 54.1309H26.9543C26.5183 54.1309 26.4218 53.8647 26.4218 53.6315C26.4218 53.4409 26.5383 53.165 26.9543 53.165H29.7762ZM29.2437 53.6528C29.2437 53.3867 29.4035 53.165 29.7861 53.165C30.8194 53.165 31.1605 52.5916 31.3518 51.6898L32.034 51.6586C31.9908 51.7966 31.9059 52.0939 31.8843 52.3485C31.841 52.7198 31.9275 53.2077 32.46 53.2077C32.9608 53.2077 33.3651 52.9744 33.5681 51.8278L34.2286 51.7966C34.197 51.9559 34.1538 52.158 34.1438 52.4126C34.1222 52.9859 34.3351 53.1978 34.6978 53.1978C35.4433 53.1978 35.6562 52.0512 35.7411 51.404L36.38 51.3514C36.3584 51.5206 36.3368 51.606 36.3268 51.8294C36.2835 52.6048 36.5181 53.1567 37.563 53.1666C37.8725 53.1666 38.1271 53.3144 38.1271 53.6446C38.1271 53.8565 38.0306 54.1325 37.563 54.1325C36.6579 54.1424 36.1571 53.8138 35.9224 53.1764C35.6662 53.7925 35.177 54.1325 34.6446 54.1325C33.9741 54.1325 33.7495 53.7284 33.643 53.3785C33.3767 53.8664 32.9608 54.1325 32.3651 54.1325C31.7262 54.1325 31.4483 53.7399 31.3418 53.3473C31.0856 53.7826 30.49 54.1325 29.7861 54.1325C29.3718 54.1309 29.2437 53.8877 29.2437 53.6528ZM37.0089 53.6331C37.0089 53.4212 37.1587 53.1666 37.563 53.1666C38.4582 53.1666 38.8192 52.6886 38.766 51.3826L38.5846 46.489L39.3833 46.4249L39.5746 51.3711C39.6179 52.7083 39.9473 53.1337 40.7892 53.165C41.1087 53.165 41.3649 53.3128 41.3649 53.643C41.3649 53.845 41.2584 54.1309 40.7892 54.1309C40.0122 54.1309 39.4581 53.8023 39.2552 53.1222C38.9457 53.8023 38.36 54.1309 37.5514 54.1309C37.1254 54.1309 37.0089 53.8664 37.0089 53.6331ZM40.2468 53.6331C40.2468 53.4524 40.3849 53.1666 40.7892 53.1666C41.5663 53.1666 42.0787 52.7838 42.0255 51.7966L41.7692 46.489L42.5679 46.4249L42.8241 51.8064C42.909 53.4196 42.1103 54.1309 40.7892 54.1309C40.3633 54.1309 40.2468 53.8664 40.2468 53.6331ZM58.293 50.2147L58.8787 50.3214C58.8038 50.6401 58.7622 50.9046 58.7622 51.2233C58.7622 52.7526 59.912 53.3884 61.7771 53.3884C63.609 53.3884 64.8669 52.9005 65.3777 52.5703C65.3561 52.4011 65.3461 52.337 65.3461 52.1251C65.3461 51.9231 65.3894 51.6684 65.4626 51.4138L66.0915 51.3498C66.0599 51.5305 66.0383 51.6783 66.0383 51.9231C66.0383 52.8791 66.6339 53.1337 67.3061 53.165V53.1748C67.6156 53.1748 67.8818 53.3128 67.8818 53.6413C67.8818 53.8532 67.7753 54.1292 67.3061 54.1292C66.3894 54.1292 65.9102 53.7678 65.6439 53.3325C64.7272 53.937 63.3861 54.3625 61.6923 54.3625C59.4561 54.3625 58.0917 53.4918 58.0701 51.5288C58.0701 51.0311 58.1649 50.5646 58.293 50.2147ZM60.8703 49.0894C60.8703 48.7494 61.1049 48.526 61.4144 48.526C61.7339 48.526 61.9568 48.7494 61.9568 49.0894C61.9568 49.4393 61.7339 49.6512 61.4144 49.6512C61.1049 49.6512 60.8703 49.4393 60.8703 49.0894ZM62.3196 49.0894C62.3196 48.7494 62.5325 48.526 62.842 48.526C63.1715 48.526 63.3861 48.7494 63.3861 49.0894C63.3861 49.4393 63.1731 49.6512 62.842 49.6512C62.5325 49.6512 62.3196 49.4393 62.3196 49.0894ZM70.128 53.165C70.564 53.165 70.6605 53.4311 70.6605 53.6528C70.6605 53.8549 70.544 54.1309 70.128 54.1309H67.3061C66.8685 54.1309 66.7737 53.8647 66.7737 53.6315C66.7737 53.4409 66.8902 53.165 67.3061 53.165H70.128ZM72.9499 53.165C73.3859 53.165 73.4824 53.4311 73.4824 53.6528C73.4824 53.8549 73.3659 54.1309 72.9499 54.1309H70.1264C69.6904 54.1309 69.5939 53.8647 69.5939 53.6315C69.5939 53.4409 69.7104 53.165 70.1264 53.165H72.9499ZM72.4059 53.6528C72.4059 53.3867 72.5656 53.165 72.9483 53.165C73.9815 53.165 74.3443 52.5818 74.514 51.6898L75.1962 51.6586C75.1213 51.9034 75.0581 52.1366 75.0464 52.3912C75.0248 52.7625 75.1213 53.2093 75.6321 53.2093C76.1961 53.2093 76.5372 52.9021 76.7286 51.8179L77.3991 51.7867C77.3675 51.9346 77.3142 52.1481 77.3142 52.3699C77.2926 53.0385 77.6337 53.1978 78.038 53.1978C78.5072 53.1978 78.8583 52.8578 78.8583 52.3797C78.8583 52.0085 78.6769 51.4352 78.4956 51.0738L79.2726 50.8504C79.4107 51.1165 79.5288 51.6471 79.5288 52.2303C79.5288 53.4409 78.825 54.1309 77.9415 54.1309C77.2593 54.1309 76.9515 53.7596 76.8018 53.3884C76.5455 53.8549 76.1412 54.1309 75.5339 54.1309C74.885 54.1309 74.6188 53.7596 74.5106 53.3555C74.2344 53.8122 73.6471 54.1309 72.945 54.1309C72.534 54.1309 72.4059 53.8877 72.4059 53.6528ZM80.0862 55.6487C81.003 55.6487 81.9398 54.8734 81.9398 53.8861C81.9398 53.3867 81.6952 52.6442 81.013 51.5617L81.78 51.2758C82.1428 51.9132 82.4838 52.0611 83.0163 52.0611C83.6669 52.0611 84.2409 51.721 84.3374 51.1165L85.0079 51.0524C84.9447 51.3925 84.9114 51.6997 84.9114 51.9017C84.9114 52.8463 85.4339 53.1436 86.1577 53.165C86.4771 53.165 86.7333 53.3128 86.7333 53.643C86.7333 53.8549 86.6269 54.1309 86.1577 54.1309C85.1776 54.1309 84.3141 53.6643 84.2725 52.4224C83.9963 52.7838 83.4206 52.9432 82.9514 52.9432C82.7817 52.9432 82.5887 52.9005 82.4822 52.8791C82.5887 53.2405 82.6319 53.7383 82.6319 53.9304C82.6319 55.2035 81.6303 56.5949 80.1178 56.5949C79.5322 56.5949 78.9348 56.3929 78.6154 56.0216L78.7535 55.3005C79.1378 55.5436 79.5754 55.6487 80.0862 55.6487ZM84.1228 56.2335C84.1228 56.5736 83.8998 56.7953 83.5787 56.7953C83.2692 56.7953 83.0363 56.5834 83.0363 56.2335C83.0363 55.8935 83.2709 55.6701 83.5787 55.6701C83.8998 55.6701 84.1228 55.8935 84.1228 56.2335ZM85.5503 56.2335C85.5503 56.5736 85.3374 56.7953 85.0079 56.7953C84.6984 56.7953 84.4855 56.5834 84.4855 56.2335C84.4855 55.8935 84.6984 55.6701 85.0079 55.6701C85.3374 55.6701 85.5503 55.8935 85.5503 56.2335ZM89.4388 54.1309C89.0761 54.1309 88.8964 53.8861 88.8964 53.6315C88.8964 53.3982 89.0777 53.165 89.4388 53.165H90.1526C91.2391 53.165 92.3788 52.9957 92.6667 52.8578C92.6883 52.751 92.7199 52.6344 92.7199 52.4964C90.7283 52.5818 90.0045 51.657 90.0045 50.788C90.0045 50.4266 90.101 49.9288 90.5585 49.4508C90.9412 49.0467 91.4421 48.8775 91.8048 48.8775C92.6151 48.8775 93.4986 49.8335 93.4986 51.5945C93.4986 52.1153 93.4137 52.9744 93.2224 53.4409C92.8813 53.6857 92.1043 54.1309 90.0594 54.1309H89.4388ZM92.7731 51.6898C92.8364 50.9785 92.4853 49.7153 91.6767 49.7153C91.101 49.7153 90.6867 50.1719 90.6867 50.6812C90.685 51.3186 91.452 51.721 92.7731 51.6898ZM90.9412 46.9654C90.9412 46.6369 91.1758 46.3921 91.4953 46.3921C91.8247 46.3921 92.0494 46.6369 92.0494 46.9654C92.0494 47.3268 91.8264 47.5486 91.4953 47.5486C91.1742 47.5502 90.9412 47.3268 90.9412 46.9654ZM111.15 51.128C111.373 51.5732 111.576 52.0298 111.736 52.4438C112.014 53.0056 112.353 53.165 112.823 53.165C113.132 53.165 113.387 53.3128 113.387 53.643C113.387 53.8549 113.29 54.1309 112.823 54.1309C112.631 54.1309 112.3 54.1095 112.066 53.9502C112.056 54.1095 112.044 54.3116 112.022 54.438C111.746 55.9871 110.488 56.774 109.498 56.774C108.976 56.774 108.337 56.6048 107.954 56.2007L108.051 55.5107C108.508 55.7867 108.987 55.8721 109.488 55.8721C110.372 55.8721 111.332 55.0968 111.385 53.8877C111.332 53.3571 110.756 52.2204 110.373 51.5206L111.15 51.128ZM109.861 49.3539C109.861 49.0253 110.084 48.7806 110.415 48.7806C110.744 48.7806 110.969 49.0253 110.969 49.3539C110.969 49.7153 110.746 49.937 110.405 49.937C110.084 49.9387 109.861 49.7153 109.861 49.3539ZM115.645 53.165C116.08 53.165 116.177 53.4311 116.177 53.6528C116.177 53.8549 116.061 54.1309 115.645 54.1309H112.821C112.385 54.1309 112.289 53.8647 112.289 53.6315C112.289 53.4409 112.405 53.165 112.821 53.165H115.645ZM118.468 53.165C118.904 53.165 119.001 53.4311 119.001 53.6528C119.001 53.8549 118.884 54.1309 118.468 54.1309H115.645C115.209 54.1309 115.112 53.8647 115.112 53.6315C115.112 53.4409 115.229 53.165 115.645 53.165H118.468ZM117.924 53.6331C117.924 53.4738 118.04 53.1666 118.466 53.1666H119.372C121.075 53.1666 121.385 52.774 121.385 52.296C121.385 51.7966 120.724 50.8307 118.53 49.3654C118.54 49.1321 118.573 48.6754 118.668 48.4849C118.699 48.4323 118.827 48.3255 119.094 48.1777C119.977 47.6471 121.523 46.8718 122.876 46.4266L122.694 47.3613C121.724 47.7013 120.064 48.4438 119.307 48.9103C120.691 49.9715 122.065 51.0015 122.065 52.3288C122.065 52.9448 121.756 53.4541 121.308 53.73C120.798 54.0372 120.2 54.1341 119.199 54.1341H118.463C118.031 54.1309 117.924 53.845 117.924 53.6331ZM127.371 51.128C127.594 51.5732 127.797 52.0298 127.957 52.4438C128.233 53.0056 128.574 53.165 129.044 53.165C129.353 53.165 129.608 53.3128 129.608 53.643C129.608 53.8549 129.511 54.1309 129.044 54.1309C128.852 54.1309 128.521 54.1095 128.287 53.9502C128.277 54.1095 128.265 54.3116 128.243 54.438C127.967 55.9871 126.709 56.774 125.719 56.774C125.197 56.774 124.558 56.6048 124.175 56.2007L124.272 55.5107C124.729 55.7867 125.208 55.8721 125.709 55.8721C126.593 55.8721 127.551 55.0968 127.606 53.8877C127.553 53.3571 126.977 52.2204 126.594 51.5206L127.371 51.128ZM129.044 54.1309C128.724 54.1309 128.468 53.983 128.468 53.643C128.468 53.4196 128.596 53.165 129.054 53.165C129.576 53.1748 129.799 52.8463 130.012 52.2303C130.46 50.9572 130.885 50.4364 131.694 50.4364C132.791 50.4364 133.431 51.7851 133.431 52.7822C133.431 53.5789 132.899 54.1309 132.217 54.1309C131.619 54.1309 131.002 53.8976 130.278 53.3456C130.002 53.8976 129.683 54.1309 129.064 54.1309H129.044ZM132.762 52.751C132.762 52.1136 132.24 51.2643 131.654 51.2643C131.238 51.2643 130.94 51.4976 130.631 52.4849C131.025 52.8463 131.696 53.1962 132.26 53.1962C132.538 53.1978 132.762 53.1009 132.762 52.751Z" fill="white"/>
</svg>
