<svg width="18" height="18" viewBox="0 0 18 18" fill="none" xmlns="http://www.w3.org/2000/svg">
<g clip-path="url(#clip0_803_109275)">
<path d="M2.99023 5.52255C2.99023 5.14918 3.13856 4.7911 3.40257 4.52708C3.66658 4.26307 4.02466 4.11475 4.39804 4.11475H12.8448C13.2182 4.11475 13.5763 4.26307 13.8403 4.52708C14.1043 4.7911 14.2527 5.14918 14.2527 5.52255V13.9694C14.2527 14.3427 14.1043 14.7008 13.8403 14.9648C13.5763 15.2288 13.2182 15.3772 12.8448 15.3772H4.39804C4.02466 15.3772 3.66658 15.2288 3.40257 14.9648C3.13856 14.7008 2.99023 14.3427 2.99023 13.9694V5.52255Z" stroke="#666666" stroke-width="1.15184" stroke-linecap="round" stroke-linejoin="round"/>
<path d="M11.4375 2.70459V5.52019" stroke="#666666" stroke-width="1.15184" stroke-linecap="round" stroke-linejoin="round"/>
<path d="M5.80664 2.70459V5.52019" stroke="#666666" stroke-width="1.15184" stroke-linecap="round" stroke-linejoin="round"/>
<path d="M2.99023 8.33691H14.2527" stroke="#666666" stroke-width="1.15184" stroke-linecap="round" stroke-linejoin="round"/>
</g>
<defs>
<clipPath id="clip0_803_109275">
<rect width="16.8936" height="16.8936" fill="white" transform="translate(0.175781 0.592285)"/>
</clipPath>
</defs>
</svg>
