<svg width="16" height="16" viewBox="0 0 16 16" fill="none" xmlns="http://www.w3.org/2000/svg">
<g clip-path="url(#clip0_621_9243)">
<path d="M6.14844 3.62549H4.86133C4.51997 3.62549 4.19259 3.76109 3.95121 4.00248C3.70982 4.24386 3.57422 4.57124 3.57422 4.9126V12.6353C3.57422 12.9766 3.70982 13.304 3.95121 13.5454C4.19259 13.7868 4.51997 13.9224 4.86133 13.9224H11.2969C11.6383 13.9224 11.9656 13.7868 12.207 13.5454C12.4484 13.304 12.584 12.9766 12.584 12.6353V4.9126C12.584 4.57124 12.4484 4.24386 12.207 4.00248C11.9656 3.76109 11.6383 3.62549 11.2969 3.62549H10.0098" stroke="#1D4AF6" stroke-width="1.10324" stroke-linecap="round" stroke-linejoin="round"/>
<path d="M6.14844 3.62549C6.14844 3.28413 6.28404 2.95675 6.52542 2.71537C6.7668 2.47399 7.09419 2.33838 7.43555 2.33838H8.72266C9.06403 2.33838 9.39141 2.47399 9.63279 2.71537C9.87417 2.95675 10.0098 3.28413 10.0098 3.62549C10.0098 3.96686 9.87417 4.29424 9.63279 4.53562C9.39141 4.777 9.06403 4.91261 8.72266 4.91261H7.43555C7.09419 4.91261 6.7668 4.777 6.52542 4.53562C6.28404 4.29424 6.14844 3.96686 6.14844 3.62549Z" stroke="#1D4AF6" stroke-width="1.10324" stroke-linecap="round" stroke-linejoin="round"/>
</g>
<defs>
<clipPath id="clip0_621_9243">
<rect width="15.4453" height="15.4454" fill="white" transform="translate(0.355469 0.407715)"/>
</clipPath>
</defs>
</svg>
