<svg width="12" height="13" viewBox="0 0 12 13" fill="none" xmlns="http://www.w3.org/2000/svg">
<g clip-path="url(#clip0_621_9034)">
<path d="M5.94336 0.969238C7.53109 0.969238 8.96859 1.61292 10.0092 2.65341C11.0497 3.694 11.6934 5.13151 11.6934 6.71924C11.6934 8.30697 11.0497 9.74447 10.0092 10.7851C8.96859 11.8256 7.53109 12.4692 5.94336 12.4692C4.35563 12.4692 2.91813 11.8256 1.87754 10.7851C0.83704 9.74447 0.193359 8.30697 0.193359 6.71924C0.193359 5.13151 0.83704 3.694 1.87754 2.65341C2.91813 1.61292 4.35563 0.969238 5.94336 0.969238ZM9.47956 3.18304C8.57463 2.27812 7.3244 1.71831 5.94336 1.71831C4.56232 1.71831 3.31208 2.27812 2.40716 3.18294C1.50224 4.08796 0.942432 5.3382 0.942432 6.71924C0.942432 8.10028 1.50224 9.35051 2.40707 10.2554C3.31199 11.1603 4.56232 11.7201 5.94326 11.7201C7.32421 11.7201 8.57454 11.1603 9.47946 10.2554C10.3843 9.35051 10.9441 8.10019 10.9441 6.71924C10.9441 5.33829 10.3845 4.08796 9.47956 3.18304Z" fill="black"/>
<path fill-rule="evenodd" clip-rule="evenodd" d="M2.78154 9.82156L2.77925 9.80595C2.63121 8.79982 3.14113 7.85339 4.06271 7.42345C4.16791 7.37432 4.2793 7.33034 4.39555 7.29102C4.85196 7.55159 5.38044 7.70059 5.94367 7.70059C6.50691 7.70059 7.03539 7.55159 7.4918 7.29102C7.60805 7.33034 7.71944 7.37432 7.82464 7.42345C8.74622 7.85339 9.25605 8.79982 9.1081 9.80595L9.10581 9.82156C9.09591 9.83166 9.08601 9.84165 9.07611 9.85165C8.2423 10.6855 7.12307 11.149 5.94377 11.149C4.76447 11.149 3.64524 10.6855 2.81143 9.85165C2.80124 9.84175 2.79144 9.83166 2.78154 9.82156Z" fill="black"/>
<path fill-rule="evenodd" clip-rule="evenodd" d="M5.94247 2.93066C7.08864 2.93066 8.01774 3.85977 8.01774 5.00594C8.01774 6.15212 7.08864 7.08122 5.94247 7.08122C4.79629 7.08122 3.86719 6.15212 3.86719 5.00594C3.86719 3.85986 4.79629 2.93066 5.94247 2.93066Z" fill="black"/>
</g>
<defs>
<clipPath id="clip0_621_9034">
<rect width="11.5" height="11.5" fill="white" transform="translate(0.193359 0.969238)"/>
</clipPath>
</defs>
</svg>
