<svg width="17" height="16" viewBox="0 0 17 16" fill="none" xmlns="http://www.w3.org/2000/svg">
<g clip-path="url(#clip0_811_117151)">
<path d="M4.87109 7.30058C4.87109 6.94878 5.01085 6.61139 5.25961 6.36263C5.50837 6.11387 5.84576 5.97412 6.19756 5.97412H12.8299C13.1817 5.97412 13.5191 6.11387 13.7678 6.36263C14.0166 6.61139 14.1563 6.94878 14.1563 7.30058V11.28C14.1563 11.6318 14.0166 11.9692 13.7678 12.2179C13.5191 12.4667 13.1817 12.6064 12.8299 12.6064H6.19756C5.84576 12.6064 5.50837 12.4667 5.25961 12.2179C5.01085 11.9692 4.87109 11.6318 4.87109 11.28V7.30058Z" stroke="#666666" stroke-width="0.746134" stroke-linecap="round" stroke-linejoin="round"/>
<path d="M8.1875 9.29082C8.1875 9.64262 8.32725 9.98001 8.57601 10.2288C8.82477 10.4775 9.16216 10.6173 9.51396 10.6173C9.86576 10.6173 10.2032 10.4775 10.4519 10.2288C10.7007 9.98001 10.8404 9.64262 10.8404 9.29082C10.8404 8.93902 10.7007 8.60163 10.4519 8.35287C10.2032 8.10411 9.86576 7.96436 9.51396 7.96436C9.16216 7.96436 8.82477 8.10411 8.57601 8.35287C8.32725 8.60163 8.1875 8.93902 8.1875 9.29082Z" stroke="#666666" stroke-width="0.746134" stroke-linecap="round" stroke-linejoin="round"/>
<path d="M11.504 5.9747V4.64824C11.504 4.29644 11.3642 3.95905 11.1155 3.71029C10.8667 3.46153 10.5293 3.32178 10.1775 3.32178H3.54521C3.19341 3.32178 2.85602 3.46153 2.60726 3.71029C2.3585 3.95905 2.21875 4.29644 2.21875 4.64824V8.62762C2.21875 8.97942 2.3585 9.31681 2.60726 9.56557C2.85602 9.81433 3.19341 9.95408 3.54521 9.95408H4.87167" stroke="#666666" stroke-width="0.746134" stroke-linecap="round" stroke-linejoin="round"/>
</g>
<defs>
<clipPath id="clip0_811_117151">
<rect width="15.9175" height="15.9175" fill="white" transform="translate(0.228516 0.00537109)"/>
</clipPath>
</defs>
</svg>
