<svg width="15" height="14" viewBox="0 0 15 14" fill="none" xmlns="http://www.w3.org/2000/svg">
<g clip-path="url(#clip0_803_109272)">
<path d="M1.99557 6.48818C1.68153 6.48818 1.41105 6.37472 1.18414 6.14781C0.957212 5.92088 0.84375 5.6504 0.84375 5.33636V1.88082C0.84375 1.56678 0.957212 1.2963 1.18414 1.06939C1.41105 0.842467 1.68153 0.729004 1.99557 0.729004H5.4511C5.76514 0.729004 6.03563 0.842467 6.26255 1.06939C6.48946 1.2963 6.60292 1.56678 6.60292 1.88082V5.33636C6.60292 5.6504 6.48946 5.92088 6.26255 6.14781C6.03563 6.37472 5.76514 6.48818 5.4511 6.48818H1.99557ZM1.99557 13.7831C1.68153 13.7831 1.41105 13.6697 1.18414 13.4427C0.957212 13.2158 0.84375 12.9454 0.84375 12.6313V9.17578C0.84375 8.86174 0.957212 8.59125 1.18414 8.36433C1.41105 8.13742 1.68153 8.02396 1.99557 8.02396H5.4511C5.76514 8.02396 6.03563 8.13742 6.26255 8.36433C6.48946 8.59125 6.60292 8.86174 6.60292 9.17578V12.6313C6.60292 12.9454 6.48946 13.2158 6.26255 13.4427C6.03563 13.6697 5.76514 13.7831 5.4511 13.7831H1.99557ZM9.29052 6.48818C8.97648 6.48818 8.706 6.37472 8.47907 6.14781C8.25216 5.92088 8.1387 5.6504 8.1387 5.33636V1.88082C8.1387 1.56678 8.25216 1.2963 8.47907 1.06939C8.706 0.842467 8.97648 0.729004 9.29052 0.729004H12.7461C13.0601 0.729004 13.3306 0.842467 13.5575 1.06939C13.7844 1.2963 13.8979 1.56678 13.8979 1.88082V5.33636C13.8979 5.6504 13.7844 5.92088 13.5575 6.14781C13.3306 6.37472 13.0601 6.48818 12.7461 6.48818H9.29052ZM9.29052 13.7831C8.97648 13.7831 8.706 13.6697 8.47907 13.4427C8.25216 13.2158 8.1387 12.9454 8.1387 12.6313V9.17578C8.1387 8.86174 8.25216 8.59125 8.47907 8.36433C8.706 8.13742 8.97648 8.02396 9.29052 8.02396H12.7461C13.0601 8.02396 13.3306 8.13742 13.5575 8.36433C13.7844 8.59125 13.8979 8.86174 13.8979 9.17578V12.6313C13.8979 12.9454 13.7844 13.2158 13.5575 13.4427C13.3306 13.6697 13.0601 13.7831 12.7461 13.7831H9.29052ZM1.99557 5.33636H5.4511V1.88082H1.99557V5.33636ZM9.29052 5.33636H12.7461V1.88082H9.29052V5.33636ZM9.29052 12.6313H12.7461V9.17578H9.29052V12.6313ZM1.99557 12.6313H5.4511V9.17578H1.99557V12.6313Z" fill="white"/>
</g>
<defs>
<clipPath id="clip0_803_109272">
<rect width="13.8221" height="13.8221" fill="white" transform="translate(0.458984 0.12793)"/>
</clipPath>
</defs>
</svg>
