<svg width="24" height="24" viewBox="0 0 24 24" fill="none" xmlns="http://www.w3.org/2000/svg">
<rect x="0.587891" width="23.0994" height="23.0994" rx="11.5497" fill="#EC9F09"/>
<path d="M12.1367 15.5498C14.3459 15.5498 16.1367 13.7589 16.1367 11.5498C16.1367 9.34067 14.3459 7.5498 12.1367 7.5498C9.92758 7.5498 8.13672 9.34067 8.13672 11.5498C8.13672 13.7589 9.92758 15.5498 12.1367 15.5498Z" fill="#EC9F09" stroke="white"/>
<path d="M12.1367 12.5498C12.689 12.5498 13.1367 12.1021 13.1367 11.5498C13.1367 10.9975 12.689 10.5498 12.1367 10.5498C11.5844 10.5498 11.1367 10.9975 11.1367 11.5498C11.1367 12.1021 11.5844 12.5498 12.1367 12.5498Z" fill="white"/>
<path d="M9.11815 17.01L10.4116 17.5458L11.9068 15.2427L9.68945 14.3242L9.11815 17.01Z" fill="white"/>
<path d="M6.14023 13.2759L6.67598 14.5694L9.3618 13.9981L8.44336 11.7808L6.14023 13.2759Z" fill="white"/>
<path d="M6.67747 8.53026L6.14171 9.82369L8.44484 11.3189L9.36328 9.10156L6.67747 8.53026Z" fill="white"/>
<path d="M10.4111 5.5538L9.11763 6.08956L9.68894 8.77537L11.9062 7.85693L10.4111 5.5538Z" fill="white"/>
<path d="M15.1553 6.08957L13.8619 5.55382L12.3667 7.85695L14.584 8.77539L15.1553 6.08957Z" fill="white"/>
<path d="M18.0679 9.61578L17.4873 8.34183L14.8231 9.00652L15.8184 11.1904L18.0679 9.61578Z" fill="white"/>
<path d="M17.596 14.5694L18.1317 13.2759L15.8286 11.7807L14.9102 13.998L17.596 14.5694Z" fill="white"/>
<path d="M13.8624 17.5458L15.1558 17.0101L14.5845 14.3242L12.3672 15.2427L13.8624 17.5458Z" fill="white"/>
</svg>
