<svg width="23" height="22" viewBox="0 0 23 22" fill="none" xmlns="http://www.w3.org/2000/svg">
<path d="M11.356 21.3661C17.2287 21.3661 21.9894 16.6055 21.9894 10.7329C21.9894 4.86029 17.2287 0.0996094 11.356 0.0996094C5.48339 0.0996094 0.722656 4.86029 0.722656 10.7329C0.722656 16.6055 5.48339 21.3661 11.356 21.3661Z" fill="#091E42"/>
<path d="M11.3551 19.9941C6.2785 19.9941 2.09375 15.8094 2.09375 10.7329C2.09375 5.65638 6.2785 1.47168 11.3551 1.47168C16.4317 1.47168 20.6164 5.65638 20.6164 10.7329C20.6164 15.8094 16.4317 19.9941 11.3551 19.9941ZM11.3551 2.84371C7.03313 2.84371 3.4658 6.411 3.4658 10.7329C3.4658 15.0548 7.03313 18.6221 11.3551 18.6221C15.677 18.6221 19.2444 15.0548 19.2444 10.7329C19.2444 6.411 15.677 2.84371 11.3551 2.84371Z" fill="#F8F8F8"/>
<path d="M11.4238 15.3976C10.7378 15.3976 10.0517 15.1232 9.50292 14.5744C8.40528 13.4767 8.40528 11.7617 9.50292 10.6641L18.0782 2.08885C19.1759 0.991218 20.8909 0.991218 21.9886 2.08885C23.0862 3.18647 23.0862 4.90152 21.9886 5.99915L13.4133 14.5744C12.7958 15.1232 12.1098 15.3976 11.4238 15.3976Z" fill="#091E42"/>
<path d="M11.424 13.339C11.2182 13.339 11.081 13.2704 10.9438 13.1332L6.62182 8.81125C6.34741 8.53684 6.34741 8.12523 6.62182 7.85082C6.89623 7.57642 7.30785 7.57642 7.58226 7.85082L11.9042 12.1727C12.1786 12.4471 12.1786 12.8588 11.9042 13.1332C11.767 13.2704 11.6298 13.339 11.424 13.339Z" fill="#F8F8F8"/>
<path d="M11.4243 13.3408C11.2185 13.3408 11.0813 13.2722 10.9441 13.135C10.6697 12.8606 10.6697 12.449 10.9441 12.1746L19.5194 3.59936C19.7938 3.32495 20.2054 3.32495 20.4798 3.59936C20.7542 3.87377 20.7542 4.28538 20.4798 4.55978L11.9045 13.135C11.7673 13.2722 11.6301 13.3408 11.4243 13.3408Z" fill="#F8F8F8"/>
</svg>
