<svg width="14" height="14" viewBox="0 0 14 14" fill="none" xmlns="http://www.w3.org/2000/svg">
<path d="M0.753906 4.5858C0.753906 2.4099 2.51782 0.645996 4.69371 0.645996H9.94679C12.1227 0.645996 13.8866 2.40991 13.8866 4.5858V9.83887C13.8866 12.0148 12.1227 13.7787 9.94678 13.7787H4.69371C2.51781 13.7787 0.753906 12.0148 0.753906 9.83887V4.5858Z" fill="#2D9D90"/>
<path d="M5.82761 4.59079C5.62778 4.79062 5.62778 5.11461 5.82761 5.31444L7.72549 7.21232L5.82774 9.11007C5.62791 9.3099 5.62791 9.63389 5.82774 9.83372C6.02757 10.0335 6.35156 10.0335 6.55139 9.83372L8.81103 7.57408C9.01086 7.37425 9.01086 7.05026 8.81103 6.85043C8.80865 6.84804 8.80624 6.84568 8.80382 6.84335L6.55125 4.59079C6.35142 4.39096 6.02744 4.39096 5.82761 4.59079Z" fill="white"/>
</svg>
