<svg width="24" height="25" viewBox="0 0 24 25" fill="none" xmlns="http://www.w3.org/2000/svg">
<rect x="0.550781" y="0.950195" width="23.0994" height="23.0994" rx="11.5497" fill="#1CC186"/>
<g clip-path="url(#clip0_702_35632)">
<path d="M12.0537 19.212C15.7606 19.212 18.7657 16.2069 18.7657 12.5C18.7657 8.79312 15.7606 5.78809 12.0537 5.78809C8.34683 5.78809 5.3418 8.79312 5.3418 12.5C5.3418 16.2069 8.34683 19.212 12.0537 19.212Z" stroke="white" stroke-width="1.7" stroke-miterlimit="10" stroke-linecap="round"/>
<path d="M13.4337 15.4441C13.3928 14.9933 13.4085 14.6787 13.4085 14.2667C13.6127 14.1596 13.9785 13.4767 14.0403 12.8997C14.2008 12.8866 14.4539 12.73 14.528 12.1116C14.568 11.7797 14.4091 11.5928 14.3124 11.5341C14.5736 10.7485 15.1161 8.31826 13.3089 8.06712C13.123 7.74048 12.6467 7.5752 12.0278 7.5752C9.55166 7.62078 9.25298 9.44503 9.79581 11.5341C9.69932 11.5928 9.54047 11.7797 9.58019 12.1116C9.65458 12.73 9.90739 12.8866 10.0679 12.8997C10.1294 13.4764 10.5098 14.1596 10.7145 14.2667C10.7145 14.6787 10.7299 14.9933 10.6891 15.4441C10.3364 16.3922 8.52529 16.4663 7.48047 17.3805C8.57284 18.4804 10.3431 19.2671 12.2113 19.2671C14.0794 19.2671 16.2753 17.7922 16.6409 17.3897C15.6025 16.4671 13.7872 16.3955 13.4337 15.4441Z" fill="white"/>
</g>
<defs>
<clipPath id="clip0_702_35632">
<rect width="16" height="16" fill="white" transform="translate(4.10156 4.5)"/>
</clipPath>
</defs>
</svg>
