<svg width="14" height="14" viewBox="0 0 14 14" fill="none" xmlns="http://www.w3.org/2000/svg">
<path d="M0.753906 4.70347C0.753906 2.52758 2.51782 0.763672 4.69371 0.763672H9.94679C12.1227 0.763672 13.8866 2.52758 13.8866 4.70348V9.95655C13.8866 12.1324 12.1227 13.8964 9.94678 13.8964H4.69371C2.51781 13.8964 0.753906 12.1324 0.753906 9.95655V4.70347Z" fill="#283967"/>
<path d="M5.82761 4.70847C5.62778 4.9083 5.62778 5.23228 5.82761 5.43211L7.72549 7.33L5.82774 9.22775C5.62791 9.42758 5.62791 9.75157 5.82774 9.9514C6.02757 10.1512 6.35156 10.1512 6.55139 9.9514L8.81103 7.69175C9.01086 7.49192 9.01086 7.16794 8.81103 6.96811C8.80865 6.96572 8.80624 6.96336 8.80382 6.96103L6.55125 4.70847C6.35142 4.50864 6.02744 4.50864 5.82761 4.70847Z" fill="white"/>
</svg>
