<svg width="110" height="11" viewBox="0 0 110 11" fill="none" xmlns="http://www.w3.org/2000/svg">
<path d="M0.955078 10.5889V0.94873H3.80676C4.96567 0.94873 6.1376 1.2352 6.99701 1.79512C8.29915 2.65453 9.09346 4.19106 9.09346 5.81874C9.09346 7.01671 8.63771 8.17561 7.70016 9.13919C6.76262 10.1158 5.39538 10.5846 3.7677 10.5846H0.955078V10.5889ZM3.69391 9.71648C5.29555 9.71648 6.3633 9.29979 7.06646 8.55757C7.79566 7.77629 8.13421 6.77364 8.13421 5.77099C8.13421 4.52094 7.61336 3.42714 6.59769 2.64586C5.92057 2.125 4.89188 1.82551 3.65485 1.82551H1.923V9.72082H3.69391V9.71648Z" fill="white"/>
<path d="M15.7392 10.5889L12.4708 6.2224H13.4083C15.1141 6.2224 16.1298 5.34997 16.1298 4.0348C16.1298 3.12331 15.5699 1.82116 13.3562 1.82116H11.5202V10.5889H10.5566V0.94873H13.4604C15.9735 0.94873 17.0934 2.43317 17.0934 4.06085C17.0934 5.62341 15.9215 6.86045 14.2287 6.99066L16.9502 10.5846H15.7392V10.5889Z" fill="white"/>
<path d="M18.5 10.5889V0.94873H19.4636V10.5889H18.5Z" fill="white"/>
<path d="M24.495 10.5889L20.5234 0.94873H21.5869L24.9854 9.39094L28.397 0.94873H29.4388L25.4412 10.5889H24.495Z" fill="white"/>
<path d="M30.5098 10.5889V0.94873H31.4734V10.5889H30.5098Z" fill="white"/>
<path d="M40.1108 10.5889L34.39 2.10763H34.364V10.5889H33.4004V0.94873H34.7025L40.0847 8.94821H40.1108V0.94873H41.0743V10.5889H40.1108Z" fill="white"/>
<path d="M46.2695 7.03146V6.15903H52.8106C52.6022 8.75029 50.4016 10.7599 47.7149 10.7599C45.0715 10.7599 42.541 8.65046 42.541 5.76839C42.541 3.00786 44.8719 0.776855 47.7018 0.776855C49.8634 0.776855 51.6994 2.15712 52.2593 3.51134H51.1395C50.4754 2.37848 49.0951 1.64929 47.7149 1.64929C45.4491 1.64929 43.5089 3.47228 43.5089 5.77707C43.5089 8.1079 45.4622 9.87882 47.7539 9.87882C49.4988 9.87882 51.2046 8.69387 51.6473 7.02713H46.2695V7.03146Z" fill="white"/>
<path d="M57.9004 10.5889V0.94873H58.864V10.5889H57.9004Z" fill="white"/>
<path d="M67.5033 10.5889L61.7826 2.10763H61.7566V10.5889H60.793V0.94873H62.0951L67.4773 8.94821H67.5033V0.94873H68.4669V10.5889H67.5033Z" fill="white"/>
<path d="M74.3778 3.39757C74.3778 2.40795 73.5705 1.6527 72.672 1.6527C71.6824 1.6527 70.9271 2.39493 70.9271 3.33247C70.9271 4.15282 71.422 4.66065 72.7892 5.01223C74.8726 5.54611 75.5758 6.62688 75.5758 7.92902C75.5758 9.50461 74.2867 10.7547 72.672 10.7547C70.9662 10.7547 69.7292 9.60879 69.7031 7.88996H70.6667C70.7318 9.12699 71.5131 9.88223 72.672 9.88223C73.7658 9.88223 74.6122 9.02282 74.6122 7.96809C74.6122 6.92637 73.9221 6.34041 72.659 5.97581C71.2787 5.58517 69.9636 5.12942 69.9636 3.37153C69.9636 1.84803 71.1876 0.780273 72.672 0.780273C74.1695 0.780273 75.3414 1.91313 75.3414 3.39757H74.3778Z" fill="white"/>
<path d="M78.155 10.5889V1.82116H75.9414V0.94873H81.3236V1.82116H79.123V10.5889H78.155Z" fill="white"/>
<path d="M82.3613 10.5889V0.94873H83.3249V10.5889H82.3613Z" fill="white"/>
<path d="M86.5652 10.5889V1.82116H84.3516V0.94873H89.7338V1.82116H87.5331V10.5889H86.5652Z" fill="white"/>
<path d="M96.3629 0.94873H97.3265V7.06011C97.3265 9.49511 95.9071 10.7582 94.0451 10.7582C92.209 10.7582 90.7637 9.53418 90.7637 7.03407V0.94873H91.7273V7.08615C91.7273 9.02634 92.769 9.88575 94.0451 9.88575C95.1519 9.88575 96.3629 9.19562 96.3629 7.09917V0.94873Z" fill="white"/>
<path d="M100.569 10.5889V1.82116H98.3555V0.94873H103.738V1.82116H101.537V10.5889H100.569Z" fill="white"/>
<path d="M104.697 10.5889V0.94873H109.975V1.82116H105.665V5.28486H109.832V6.15729H105.665V9.71214H109.975V10.5846H104.697V10.5889Z" fill="white"/>
</svg>
