<svg width="13" height="14" viewBox="0 0 13 14" fill="none" xmlns="http://www.w3.org/2000/svg">
<path d="M6.51518 0.966797L0.314453 7.05617L6.51518 13.1455L12.7159 7.05617L6.51518 0.966797ZM8.30659 8.05872L7.62579 8.60405V7.11374H5.23569V8.87298H3.95605V6.32972C3.95605 6.06843 4.17096 5.85723 4.43718 5.85723H7.62579V4.38708L10.098 6.62125L8.81836 7.6467L8.30659 8.05872Z" fill="#161616"/>
<path d="M6.51455 13.3241L0.132812 7.05717L6.51455 0.790039L12.8964 7.05717L6.51455 13.3241ZM0.494671 7.05717L6.51455 12.9688L12.5344 7.05717L6.51455 1.1454L0.494671 7.05717ZM5.36304 8.99981H3.82759V6.33072C3.82759 6.00086 4.10066 5.73255 4.43655 5.73255H7.49734V4.10159L10.2927 6.6279L7.49734 8.8697V7.24057H5.36304V8.99981ZM4.0834 8.74845H5.10708V6.98921H7.75314V8.3404L9.90221 6.61659L7.75314 4.67441V5.98391H4.43655C4.24186 5.98391 4.0834 6.13952 4.0834 6.33072V8.74845Z" fill="#161616"/>
</svg>
