<svg width="43" height="5" viewBox="0 0 43 5" fill="none" xmlns="http://www.w3.org/2000/svg">
<path d="M0.164062 4.80965V1.05322H1.27526C1.72684 1.05322 2.1835 1.16485 2.51838 1.38303C3.02578 1.71791 3.33529 2.31664 3.33529 2.95088C3.33529 3.41769 3.1577 3.86927 2.79237 4.24474C2.42705 4.62529 1.89428 4.80795 1.26004 4.80795H0.164062V4.80965ZM1.23129 4.46969C1.85538 4.46969 2.27145 4.30732 2.54544 4.01811C2.82958 3.71367 2.96151 3.32298 2.96151 2.93228C2.96151 2.44518 2.75855 2.01897 2.36278 1.71453C2.09893 1.51157 1.69809 1.39487 1.21606 1.39487H0.541226V4.47138H1.23129V4.46969Z" fill="#151817"/>
<path d="M5.92569 4.80965L4.65212 3.10818H5.01745C5.68214 3.10818 6.07791 2.76822 6.07791 2.25575C6.07791 1.90057 5.85972 1.39318 4.99715 1.39318H4.28172V4.80965H3.90625V1.05322H5.03774C6.01702 1.05322 6.45338 1.63165 6.45338 2.2659C6.45338 2.87477 5.99672 3.3568 5.33711 3.40754L6.39757 4.80795H5.92569V4.80965Z" fill="#151817"/>
<path d="M7 4.80965V1.05322H7.37547V4.80965H7Z" fill="#151817"/>
<path d="M9.33662 4.80965L7.78906 1.05322H8.20344L9.52774 4.34284L10.8571 1.05322H11.263L9.70533 4.80965H9.33662Z" fill="#151817"/>
<path d="M11.6797 4.80965V1.05322H12.0552V4.80965H11.6797Z" fill="#151817"/>
<path d="M15.4214 4.80965L13.1923 1.5048H13.1821V4.80965H12.8066V1.05322H13.314L15.4113 4.17033H15.4214V1.05322H15.7969V4.80965H15.4214Z" fill="#151817"/>
<path d="M17.822 3.42352V3.08356H20.3708C20.2896 4.09328 19.4321 4.87636 18.3852 4.87636C17.3552 4.87636 16.3691 4.05438 16.3691 2.93135C16.3691 1.85567 17.2774 0.986328 18.3801 0.986328C19.2224 0.986328 19.9378 1.52417 20.156 2.05186H19.7196C19.4609 1.61042 18.923 1.32628 18.3852 1.32628C17.5023 1.32628 16.7463 2.03664 16.7463 2.93473C16.7463 3.84297 17.5074 4.53303 18.4004 4.53303C19.0803 4.53303 19.745 4.0713 19.9175 3.42183H17.822V3.42352Z" fill="#151817"/>
<path d="M22.3535 4.80965V1.05322H22.729V4.80965H22.3535Z" fill="#151817"/>
<path d="M26.0953 4.80965L23.8661 1.5048H23.8559V4.80965H23.4805V1.05322H23.9879L26.0851 4.17033H26.0953V1.05322H26.4707V4.80965H26.0953Z" fill="#151817"/>
<path d="M28.7747 2.00766C28.7747 1.62204 28.4601 1.32775 28.11 1.32775C27.7244 1.32775 27.4301 1.61696 27.4301 1.98229C27.4301 2.30195 27.6229 2.49983 28.1557 2.63683C28.9675 2.84486 29.2415 3.266 29.2415 3.7734C29.2415 4.38735 28.7392 4.87445 28.11 4.87445C27.4453 4.87445 26.9633 4.42794 26.9531 3.75818H27.3286C27.354 4.2402 27.6584 4.53449 28.11 4.53449C28.5362 4.53449 28.866 4.19961 28.866 3.78862C28.866 3.3827 28.5971 3.15437 28.1049 3.0123C27.5671 2.86009 27.0546 2.6825 27.0546 1.99751C27.0546 1.40386 27.5316 0.987793 28.11 0.987793C28.6935 0.987793 29.1502 1.42923 29.1502 2.00766H28.7747Z" fill="#151817"/>
<path d="M30.2454 4.80965V1.39318H29.3828V1.05322H31.48V1.39318H30.6225V4.80965H30.2454Z" fill="#151817"/>
<path d="M31.8848 4.80965V1.05322H32.2602V4.80965H31.8848Z" fill="#151817"/>
<path d="M33.5247 4.80965V1.39318H32.6621V1.05322H34.7594V1.39318H33.9019V4.80965H33.5247Z" fill="#151817"/>
<path d="M37.342 1.05322H37.7174V3.4346C37.7174 4.38343 37.1644 4.87561 36.4388 4.87561C35.7234 4.87561 35.1602 4.39866 35.1602 3.42446V1.05322H35.5356V3.44475C35.5356 4.20077 35.9415 4.53565 36.4388 4.53565C36.8701 4.53565 37.342 4.26673 37.342 3.44982V1.05322Z" fill="#151817"/>
<path d="M38.9798 4.80965V1.39318H38.1172V1.05322H40.2144V1.39318H39.3569V4.80965H38.9798Z" fill="#151817"/>
<path d="M40.5879 4.80965V1.05322H42.6445V1.39318H40.9651V2.74285H42.5887V3.08281H40.9651V4.468H42.6445V4.80795H40.5879V4.80965Z" fill="#151817"/>
</svg>
