<svg width="1440" height="780" viewBox="0 0 1440 780" fill="none" xmlns="http://www.w3.org/2000/svg">
<mask id="mask0_721_40003" style="mask-type:alpha" maskUnits="userSpaceOnUse" x="0" y="0" width="1440" height="780">
<path d="M0 0H1440V760C1440 771.046 1431.05 780 1420 780H20C8.95431 780 0 771.046 0 760V0Z" fill="#161616"/>
</mask>
<g mask="url(#mask0_721_40003)">
<rect width="1440" height="780" fill="white"/>
<path opacity="0.5" d="M-0.499937 48.8511V913.659H0.500063V48.8511H-0.499937ZM56.5001 48.8511V913.659H57.5001V48.8511H56.5001ZM113.5 48.8511V913.659H114.5V48.8511H113.5ZM170.5 48.8511V913.659H171.5V48.8511H170.5ZM227.5 48.8511V913.659H228.5V48.8511H227.5ZM284.5 48.8511V913.659H285.5V48.8511H284.5ZM341.5 48.8511V913.659H342.5V48.8511H341.5ZM398.5 48.8511V913.659H399.5V48.8511H398.5ZM455.5 48.8511V913.659H456.5V48.8511H455.5ZM512.5 48.8511V913.659H513.5V48.8511H512.5ZM569.5 48.8511V913.659H570.5V48.8511H569.5ZM626.5 48.8511V913.659H627.5V48.8511H626.5ZM683.5 48.8511V913.659H684.5V48.8511H683.5ZM740.5 48.8511V913.659H741.5V48.8511H740.5ZM797.5 48.8511V913.659H798.5V48.8511H797.5ZM854.5 48.8511V913.659H855.5V48.8511H854.5ZM911.5 48.8511V913.659H912.5V48.8511H911.5ZM968.5 48.8511V913.659H969.5V48.8511H968.5ZM1025.5 48.8511V913.659H1026.5V48.8511H1025.5ZM1082.5 48.8511V913.659H1083.5V48.8511H1082.5ZM1139.5 48.8511V913.659H1140.5V48.8511H1139.5ZM1196.5 48.8511V913.659H1197.5V48.8511H1196.5ZM1253.5 48.8511V913.659H1254.5V48.8511H1253.5ZM1310.5 48.8511V913.659H1311.5V48.8511H1310.5ZM1367.5 48.8511V913.659H1368.5V48.8511H1367.5ZM1424.5 48.8511V913.659H1425.5V48.8511H1424.5ZM3.55151e-05 870.149L1440 870.149V869.149L3.54722e-05 869.149L3.55151e-05 870.149ZM3.29799e-05 811.396L1440 811.396V810.396L3.29369e-05 810.396L3.29799e-05 811.396ZM3.04446e-05 752.643L1440 752.642V751.642L3.04017e-05 751.643L3.04446e-05 752.643ZM2.79093e-05 693.889L1440 693.889V692.889L2.78664e-05 692.889L2.79093e-05 693.889ZM2.53741e-05 635.136L1440 635.136V634.136L2.53311e-05 634.136L2.53741e-05 635.136ZM2.28388e-05 576.383L1440 576.383V575.383L2.27959e-05 575.383L2.28388e-05 576.383ZM2.03036e-05 517.63L1440 517.629V516.629L2.02606e-05 516.63L2.03036e-05 517.63ZM1.77683e-05 458.876L1440 458.876V457.876L1.77254e-05 457.876L1.77683e-05 458.876ZM1.5233e-05 400.123L1440 400.123V399.123L1.51901e-05 399.123L1.5233e-05 400.123ZM1.26978e-05 341.37L1440 341.37V340.37L1.26548e-05 340.37L1.26978e-05 341.37ZM1.01625e-05 282.617L1440 282.617V281.617L1.01196e-05 281.617L1.01625e-05 282.617ZM7.62725e-06 223.863L1440 223.863V222.863L7.58431e-06 222.863L7.62725e-06 223.863ZM5.09199e-06 165.11L1440 165.11V164.11L5.04905e-06 164.11L5.09199e-06 165.11ZM2.55807e-06 106.357L1440 106.357V105.357L2.51245e-06 105.357L2.55807e-06 106.357ZM2.21395e-08 47.6036L1440 47.6035V46.6035L-2.21395e-08 46.6036L2.21395e-08 47.6036Z" fill="url(#paint0_linear_721_40003)"/>
<g opacity="0.3" filter="url(#filter0_f_721_40003)">
<circle cx="1224.09" cy="479.803" r="116.897" fill="url(#paint1_radial_721_40003)"/>
</g>
<g opacity="0.4" filter="url(#filter1_f_721_40003)">
<circle cx="265.872" cy="500.217" r="86.4365" fill="#BD00FF"/>
</g>
</g>
<defs>
<filter id="filter0_f_721_40003" x="1015.2" y="270.906" width="417.793" height="417.794" filterUnits="userSpaceOnUse" color-interpolation-filters="sRGB">
<feFlood flood-opacity="0" result="BackgroundImageFix"/>
<feBlend mode="normal" in="SourceGraphic" in2="BackgroundImageFix" result="shape"/>
<feGaussianBlur stdDeviation="46" result="effect1_foregroundBlur_721_40003"/>
</filter>
<filter id="filter1_f_721_40003" x="87.4355" y="321.78" width="356.873" height="356.873" filterUnits="userSpaceOnUse" color-interpolation-filters="sRGB">
<feFlood flood-opacity="0" result="BackgroundImageFix"/>
<feBlend mode="normal" in="SourceGraphic" in2="BackgroundImageFix" result="shape"/>
<feGaussianBlur stdDeviation="46" result="effect1_foregroundBlur_721_40003"/>
</filter>
<linearGradient id="paint0_linear_721_40003" x1="720" y1="47.1035" x2="720" y2="1067.16" gradientUnits="userSpaceOnUse">
<stop offset="0.0107333" stop-color="#6000D1" stop-opacity="0"/>
<stop offset="0.338113" stop-color="#6000D1" stop-opacity="0.12"/>
<stop offset="0.884263" stop-color="#6000D1" stop-opacity="0"/>
</linearGradient>
<radialGradient id="paint1_radial_721_40003" cx="0" cy="0" r="1" gradientUnits="userSpaceOnUse" gradientTransform="translate(1224.09 479.803) rotate(90) scale(116.897)">
<stop stop-color="#9B00D1"/>
<stop offset="1" stop-color="#8A26FF" stop-opacity="0.44"/>
</radialGradient>
</defs>
</svg>
