<svg width="19" height="17" viewBox="0 0 19 17" fill="none" xmlns="http://www.w3.org/2000/svg">
<path d="M14.3092 3.45771V2.34581C14.3092 1.68085 13.7737 1.14307 13.1115 1.14307C13.0392 1.14307 12.9668 1.15033 12.8981 1.16123L2.76715 3.01077C1.82642 3.18519 0.921875 3.94099 0.921875 4.91118" stroke="#6000D1" stroke-width="0.984951" stroke-linecap="round" stroke-linejoin="round"/>
<path d="M16.8419 7.81841V4.91147C16.8419 4.10843 16.1942 3.45801 15.3946 3.45801H2.36915C1.56953 3.45801 0.921875 4.10843 0.921875 4.91147V14.7224C0.921875 15.5254 1.56953 16.1758 2.36915 16.1758H15.3946C16.1942 16.1758 16.8419 15.5254 16.8419 14.7224V11.8154" stroke="#6000D1" stroke-width="0.984951" stroke-linecap="round" stroke-linejoin="round"/>
<path d="M12.8628 11.8154H17.2046C17.6026 11.8154 17.9283 11.4884 17.9283 11.0887V8.54509C17.9283 8.14539 17.6026 7.81836 17.2046 7.81836H12.8628L11.7773 9.81688L12.8628 11.8154Z" stroke="#6000D1" stroke-width="0.984951" stroke-linecap="round" stroke-linejoin="round"/>
<path d="M14.5407 9.81658C14.5407 9.94794 14.4353 10.0508 14.3096 10.0508C14.1839 10.0508 14.0784 9.94794 14.0784 9.81658C14.0784 9.68522 14.1839 9.58232 14.3096 9.58232C14.4353 9.58232 14.5407 9.68522 14.5407 9.81658Z" stroke="#6000D1" stroke-width="0.984951"/>
</svg>
