<svg width="12" height="12" viewBox="0 0 12 12" fill="none" xmlns="http://www.w3.org/2000/svg">
<path d="M5.79163 0.791016L0.193359 6.28875L5.79163 11.7865L11.3899 6.28875L5.79163 0.791016ZM7.40898 7.19389L6.79433 7.68624V6.34072H4.63645V7.92903H3.48114V5.63288C3.48114 5.39698 3.67517 5.2063 3.91552 5.2063H6.79433V3.87898L9.02634 5.89608L7.87103 6.82191L7.40898 7.19389Z" fill="#161616"/>
<path d="M5.79099 11.9472L0.0292969 6.28908L5.79099 0.630859L11.5528 6.28908L5.79099 11.9472ZM0.355997 6.28908L5.79099 11.6263L11.226 6.28908L5.79099 0.951692L0.355997 6.28908ZM4.75136 8.04297H3.36509V5.63321C3.36509 5.3354 3.61163 5.09316 3.91488 5.09316H6.67829V3.62066L9.20203 5.90151L6.67829 7.9255V6.45466H4.75136V8.04297ZM3.59604 7.81603H4.52027V6.22772H6.90924V7.44763L8.8495 5.89131L6.90924 4.13783V5.3201H3.91488C3.73911 5.3201 3.59604 5.46059 3.59604 5.63321V7.81603Z" fill="#161616"/>
</svg>
