<svg width="27" height="26" viewBox="0 0 27 26" fill="none" xmlns="http://www.w3.org/2000/svg">
<path d="M26.2563 12.1984C25.2713 19.0931 23.958 20.7347 18.3767 24.3461C14.1085 23.3612 8.85547 19.7797 8.85547 12.5267C8.85547 5.27376 13.4519 0.707319 17.72 1.03564C22.9731 3.66217 24.2864 5.63207 26.2563 12.1984Z" fill="#00594F" fill-opacity="0.15"/>
<path d="M13.7809 0.0507812C6.71262 0.0507812 0.976562 5.78684 0.976562 12.8551C0.976562 19.9234 6.71262 25.6595 13.7439 25.6595C20.7752 25.6595 26.5483 19.9234 26.5853 12.8551C26.5483 5.78684 20.8492 0.0877881 13.7809 0.0507812ZM13.7809 24.5493C7.34174 24.5493 2.08677 19.2943 2.08677 12.8551C2.08677 6.41596 7.34174 1.16099 13.7809 1.16099C20.2201 1.16099 25.4751 6.37895 25.4751 12.8181C25.4381 19.2943 20.2201 24.5123 13.7809 24.5493Z" fill="#00594F"/>
<path d="M17.7408 12.2629C18.777 12.2629 19.6281 11.4117 19.6281 10.3385C19.6281 9.26532 18.777 8.45117 17.7038 8.45117C16.6676 8.45117 15.8164 9.30233 15.8164 10.3755C15.8164 11.4487 16.6676 12.2629 17.7408 12.2629ZM17.7408 9.59838C18.1848 9.59838 18.5179 9.96845 18.5179 10.4125C18.5179 10.8566 18.1478 11.1897 17.7038 11.1897C17.2597 11.1897 16.9266 10.8196 16.9266 10.3755C16.9266 9.93144 17.2967 9.59838 17.7408 9.59838Z" fill="#00594F"/>
<path d="M10.0057 12.2629C11.0419 12.2629 11.9301 11.4117 11.9301 10.3755C11.9301 9.33934 11.0789 8.48818 10.0427 8.45117C9.00651 8.45117 8.11835 9.30233 8.11835 10.3385C8.08134 11.4117 8.9325 12.2629 10.0057 12.2629ZM10.0057 9.59838C10.4498 9.59838 10.8198 9.96845 10.8198 10.3755C10.8198 10.7826 10.4498 11.1897 10.0057 11.1897C9.56162 11.1897 9.22855 10.8196 9.22855 10.3755C9.19155 9.93144 9.56162 9.59838 10.0057 9.59838Z" fill="#00594F"/>
<path d="M13.7816 18.2212C10.9691 18.2212 9.22976 16.3339 8.3786 15.4087L7.56445 16.1488C8.45262 17.111 10.525 19.2944 13.7816 19.2944C16.7421 19.2944 18.8145 17.259 19.8137 16.2969L19.0366 15.5197C18.0744 16.4819 16.2981 18.2212 13.7816 18.2212Z" fill="#00594F"/>
</svg>
