<svg width="47" height="9" viewBox="0 0 47 9" fill="none" xmlns="http://www.w3.org/2000/svg">
<path d="M3.16435 3.23691C3.16435 3.23691 1.64106 3.40561 0.624889 3.5184C0.533298 3.52949 0.452313 3.5907 0.421944 3.68373C0.391574 3.77676 0.421944 3.87364 0.489431 3.93486C1.24433 4.62365 2.3786 5.65515 2.3786 5.65515C2.37764 5.65515 2.0672 7.15564 1.86088 8.15678C1.84352 8.2474 1.8763 8.34332 1.95536 8.40068C2.03393 8.45803 2.13517 8.459 2.2147 8.41417C3.10361 7.90903 4.43505 7.14938 4.43505 7.14938C4.43505 7.14938 5.76696 7.90903 6.65443 8.41465C6.73541 8.459 6.83664 8.45803 6.91522 8.40068C6.99427 8.34332 7.02705 8.2474 7.00922 8.15726C6.8029 7.15564 6.49294 5.65515 6.49294 5.65515C6.49294 5.65515 7.62721 4.62365 8.38211 3.9363C8.4496 3.87316 8.47948 3.77628 8.4496 3.68373C8.41971 3.59118 8.33872 3.52997 8.24713 3.51936C7.23096 3.40561 5.70719 3.23691 5.70719 3.23691C5.70719 3.23691 5.0757 1.84004 4.65486 0.908801C4.61534 0.825413 4.53242 0.76709 4.43505 0.76709C4.33767 0.76709 4.25428 0.825895 4.21668 0.908801C3.79536 1.84004 3.16435 3.23691 3.16435 3.23691Z" fill="#FFC24A"/>
<path d="M12.7757 3.23691C12.7757 3.23691 11.2524 3.40561 10.2362 3.5184C10.1446 3.52949 10.0636 3.5907 10.0333 3.68373C10.0029 3.77676 10.0333 3.87364 10.1008 3.93486C10.8557 4.62365 11.9899 5.65515 11.9899 5.65515C11.989 5.65515 11.6785 7.15564 11.4722 8.15678C11.4549 8.2474 11.4876 8.34332 11.5667 8.40068C11.6453 8.45803 11.7465 8.459 11.826 8.41417C12.7149 7.90903 14.0464 7.14938 14.0464 7.14938C14.0464 7.14938 15.3783 7.90903 16.2658 8.41465C16.3467 8.459 16.448 8.45803 16.5265 8.40068C16.6056 8.34332 16.6384 8.2474 16.6205 8.15726C16.4142 7.15564 16.1043 5.65515 16.1043 5.65515C16.1043 5.65515 17.2385 4.62365 17.9934 3.9363C18.0609 3.87316 18.0908 3.77628 18.0609 3.68373C18.031 3.59118 17.9501 3.52997 17.8585 3.51936C16.8423 3.40561 15.3185 3.23691 15.3185 3.23691C15.3185 3.23691 14.687 1.84004 14.2662 0.908801C14.2267 0.825413 14.1438 0.76709 14.0464 0.76709C13.949 0.76709 13.8656 0.825895 13.828 0.908801C13.4067 1.84004 12.7757 3.23691 12.7757 3.23691Z" fill="#FFC24A"/>
<path d="M32.0022 3.23691C32.0022 3.23691 30.479 3.40561 29.4628 3.5184C29.3712 3.52949 29.2902 3.5907 29.2598 3.68373C29.2295 3.77676 29.2598 3.87364 29.3273 3.93486C30.0822 4.62365 31.2165 5.65515 31.2165 5.65515C31.2155 5.65515 30.9051 7.15564 30.6988 8.15678C30.6814 8.2474 30.7142 8.34332 30.7932 8.40068C30.8718 8.45803 30.9731 8.459 31.0526 8.41417C31.9415 7.90903 33.2729 7.14938 33.2729 7.14938C33.2729 7.14938 34.6049 7.90903 35.4923 8.41465C35.5733 8.459 35.6745 8.45803 35.7531 8.40068C35.8322 8.34332 35.8649 8.2474 35.8471 8.15726C35.6408 7.15564 35.3308 5.65515 35.3308 5.65515C35.3308 5.65515 36.4651 4.62365 37.22 3.9363C37.2875 3.87316 37.3174 3.77628 37.2875 3.68373C37.2576 3.59118 37.1766 3.52997 37.085 3.51936C36.0689 3.40561 34.5451 3.23691 34.5451 3.23691C34.5451 3.23691 33.9136 1.84004 33.4928 0.908801C33.4532 0.825413 33.3703 0.76709 33.2729 0.76709C33.1756 0.76709 33.0922 0.825895 33.0546 0.908801C32.6333 1.84004 32.0022 3.23691 32.0022 3.23691Z" fill="#FFC24A"/>
<path d="M22.389 3.23691C22.389 3.23691 20.8657 3.40561 19.8495 3.5184C19.7579 3.52949 19.6769 3.5907 19.6466 3.68373C19.6162 3.77676 19.6466 3.87364 19.714 3.93486C20.4689 4.62365 21.6032 5.65515 21.6032 5.65515C21.6022 5.65515 21.2918 7.15564 21.0855 8.15678C21.0681 8.2474 21.1009 8.34332 21.18 8.40068C21.2585 8.45803 21.3598 8.459 21.4393 8.41417C22.3282 7.90903 23.6597 7.14938 23.6597 7.14938C23.6597 7.14938 24.9916 7.90903 25.879 8.41465C25.96 8.459 26.0613 8.45803 26.1398 8.40068C26.2189 8.34332 26.2517 8.2474 26.2338 8.15726C26.0275 7.15564 25.7175 5.65515 25.7175 5.65515C25.7175 5.65515 26.8518 4.62365 27.6067 3.9363C27.6742 3.87316 27.7041 3.77628 27.6742 3.68373C27.6443 3.59118 27.5633 3.52997 27.4717 3.51936C26.4556 3.40561 24.9318 3.23691 24.9318 3.23691C24.9318 3.23691 24.3003 1.84004 23.8795 0.908801C23.8399 0.825413 23.757 0.76709 23.6597 0.76709C23.5623 0.76709 23.4789 0.825895 23.4413 0.908801C23.02 1.84004 22.389 3.23691 22.389 3.23691Z" fill="#FFC24A"/>
<path d="M41.6155 3.23691C41.6155 3.23691 40.0922 3.40561 39.0761 3.5184C38.9845 3.52949 38.9035 3.5907 38.8731 3.68373C38.8427 3.77676 38.8731 3.87364 38.9406 3.93486C39.6955 4.62365 40.8298 5.65515 40.8298 5.65515C40.8298 5.65515 40.5184 7.15564 40.312 8.15678C40.2947 8.2474 40.3275 8.34332 40.4065 8.40068C40.4851 8.45803 40.5863 8.459 40.6659 8.41417C41.5548 7.90903 42.8862 7.14938 42.8862 7.14938C42.8862 7.14938 44.2181 7.90903 45.1056 8.41465C45.1866 8.459 45.2878 8.45803 45.3664 8.40068C45.4454 8.34332 45.4782 8.2474 45.4604 8.15726C45.2541 7.15564 44.9441 5.65515 44.9441 5.65515C44.9441 5.65515 46.0784 4.62365 46.8333 3.9363C46.9008 3.87316 46.9307 3.77628 46.9008 3.68373C46.8709 3.59118 46.7899 3.52997 46.6983 3.51936C45.6821 3.40561 44.1584 3.23691 44.1584 3.23691C44.1584 3.23691 43.5269 1.84004 43.106 0.908801C43.0665 0.825413 42.9836 0.76709 42.8862 0.76709C42.7888 0.76709 42.7054 0.825895 42.6678 0.908801C42.2465 1.84004 41.6155 3.23691 41.6155 3.23691Z" fill="#BFBFBF"/>
</svg>
