<svg width="14" height="14" viewBox="0 0 14 14" fill="none" xmlns="http://www.w3.org/2000/svg">
<path d="M0.294922 3.93199C0.294922 1.75609 2.05883 -0.0078125 4.23473 -0.0078125H9.4878C11.6637 -0.0078125 13.4276 1.7561 13.4276 3.93199V9.18507C13.4276 11.361 11.6637 13.1249 9.4878 13.1249H4.23472C2.05883 13.1249 0.294922 11.361 0.294922 9.18506V3.93199Z" fill="#E38731"/>
<path d="M5.36862 3.93698C5.16879 4.13681 5.16879 4.4608 5.36862 4.66063L7.26651 6.55851L5.36876 8.45626C5.16893 8.65609 5.16893 8.98008 5.36876 9.17991C5.56859 9.37974 5.89258 9.37974 6.09241 9.17991L8.35205 6.92027C8.55188 6.72044 8.55188 6.39645 8.35205 6.19662C8.34966 6.19423 8.34726 6.19188 8.34483 6.18955L6.09227 3.93698C5.89244 3.73715 5.56845 3.73715 5.36862 3.93698Z" fill="white"/>
</svg>
