<svg width="946" height="121" viewBox="0 0 946 121" fill="none" xmlns="http://www.w3.org/2000/svg">
<rect y="40" width="945.553" height="80.766" fill="white"/>
<mask id="path-2-inside-1_809_115577" fill="white">
<path d="M0 0H945.553V39.8145H0V0Z"/>
</mask>
<path d="M0 0H945.553V39.8145H0V0Z" fill="white"/>
<path d="M945.553 38.8145H0V40.8145H945.553V38.8145Z" fill="#DBDBDB" mask="url(#path-2-inside-1_809_115577)"/>
<path d="M101.341 24.9221H97.9244C96.9387 24.9221 96.1399 24.1236 96.1399 23.1386V13.8977C96.1399 13.896 96.1383 13.8945 96.1363 13.8945H93.0345C93.0327 13.8945 93.0312 13.896 93.0312 13.8977V23.4587C93.0312 25.8096 94.9383 27.7155 97.2906 27.7155H101.341C101.342 27.7155 101.344 27.7139 101.344 27.7122V24.9253C101.344 24.9237 101.342 24.9221 101.341 24.9221Z" fill="#6000D1"/>
<path d="M67.5819 13.8955H57.6829C57.6811 13.8955 57.6797 13.8969 57.6797 13.8987V16.4747V16.6856V19.0081H57.6829C57.6811 19.0081 57.6797 19.0096 57.6797 19.0115V27.7131C57.6797 27.7149 57.6811 27.7163 57.6829 27.7163H67.5819C70.5236 27.7163 72.9084 25.3331 72.9084 22.393V19.2189C72.9084 16.2787 70.5236 13.8955 67.5819 13.8955ZM69.798 22.7031C69.798 23.9284 68.8048 24.9231 67.5767 24.9231H60.7937C60.7919 24.9231 60.7905 24.9213 60.7905 24.9195V19.0114C60.7905 19.0094 60.789 19.008 60.7872 19.008V16.6888H67.5767C68.805 16.6888 69.798 17.6815 69.798 18.9066V22.7031Z" fill="#6000D1"/>
<path d="M34.2655 13.895H24.5893C24.5875 13.895 24.5859 13.8964 24.5859 13.8982V16.6851C24.5859 16.6869 24.5875 16.6883 24.5893 16.6883H33.6038C34.2928 16.6883 34.8513 17.2466 34.8513 17.9352V18.6858C34.8513 19.3744 34.2928 19.9325 33.6038 19.9325H27.5655C25.92 19.9325 24.5859 21.2656 24.5859 22.9101V27.7126C24.5859 27.7144 24.5875 27.7159 24.5893 27.7159H27.6912C27.693 27.7159 27.6944 27.7144 27.6944 27.7126V23.5126C27.6944 23.0781 28.0468 22.726 28.4816 22.726H34.2655C36.3058 22.726 37.9598 21.0729 37.9598 19.0339V17.5871C37.9598 15.5481 36.3058 13.895 34.2655 13.895Z" fill="#6000D1"/>
<path d="M51.4745 13.895H44.7245C42.0937 13.895 39.9609 16.0265 39.9609 18.6558V22.9551C39.9609 25.5844 42.0937 27.716 44.7245 27.716H54.2572C54.2589 27.716 54.2604 27.7144 54.2604 27.7126V24.9256C54.2604 24.9238 54.2589 24.9224 54.2572 24.9224H44.987C43.9278 24.9224 43.0694 24.0645 43.0694 23.0061V22.7226H45.0323C45.0323 22.7244 45.0337 22.726 45.0355 22.726H51.4745C53.5251 22.726 55.1876 21.0644 55.1876 19.0152V17.606C55.1876 15.5561 53.5251 13.895 51.4745 13.895ZM52.0791 18.6067C52.0791 19.3389 51.4853 19.9323 50.7527 19.9323H45.0355C45.0337 19.9323 45.0323 19.9338 45.0323 19.9355H43.0694V18.6046C43.0694 17.5461 43.9278 16.6881 44.987 16.6881H50.7527C51.4853 16.6881 52.0791 17.2816 52.0791 18.0138V18.6067Z" fill="#6000D1"/>
<path d="M85.2539 13.8945H76.2594C76.2576 13.8945 76.2561 13.896 76.2561 13.8977V16.6848C76.2561 16.6866 76.2576 16.688 76.2594 16.688H84.9916C86.0505 16.688 86.9092 17.5459 86.9092 18.6043V19.4775H84.9429H78.504C76.4534 19.4775 74.791 21.1392 74.791 23.1884V24.0045C74.791 26.0541 76.4534 27.7155 78.504 27.7155H85.2539C87.8847 27.7155 90.0176 25.5839 90.0176 22.9548V18.6553C90.0176 16.026 87.8847 13.8945 85.2539 13.8945ZM84.9916 24.9219H79.2257C78.4933 24.9219 77.8995 24.3286 77.8995 23.5963C77.8995 22.8643 78.4933 22.2708 79.2257 22.2708H84.9429C84.9448 22.2708 84.9462 22.2694 84.9462 22.2673H86.9092V23.0055C86.9092 24.0641 86.0505 24.9219 84.9916 24.9219Z" fill="#6000D1"/>
<path d="M99.8382 16.4367L99.5099 15.8734H99.2674V16.4367H98.9473V14.8135H99.597C99.7471 14.8135 99.8748 14.8661 99.98 14.9712C100.085 15.0763 100.138 15.2032 100.138 15.3515C100.138 15.4521 100.109 15.5453 100.052 15.6311C99.9948 15.7167 99.9189 15.7813 99.8246 15.8245L100.184 16.4367H99.8382ZM99.2672 15.1125V15.5925H99.5968C99.6572 15.5925 99.7089 15.569 99.7522 15.5219C99.7955 15.4746 99.8171 15.4178 99.8171 15.3513C99.8171 15.2849 99.7955 15.2285 99.7522 15.1821C99.7089 15.1357 99.6572 15.1125 99.5968 15.1125H99.2672Z" fill="#6000D1"/>
<path d="M99.4613 17.37C98.5025 17.37 97.7227 16.5904 97.7227 15.6322C97.7227 14.6741 98.5025 13.8945 99.4613 13.8945C100.42 13.8945 101.2 14.6741 101.2 15.6322C101.2 16.5904 100.42 17.37 99.4613 17.37ZM99.4613 14.2628C98.7057 14.2628 98.091 14.8772 98.091 15.6322C98.091 16.3873 98.7055 17.0017 99.4613 17.0017C100.217 17.0017 100.832 16.3873 100.832 15.6322C100.832 14.8772 100.217 14.2628 99.4613 14.2628Z" fill="#6000D1"/>
</svg>
