<svg width="21" height="21" viewBox="0 0 21 21" fill="none" xmlns="http://www.w3.org/2000/svg">
<path d="M10.7818 5.57031C9.42192 5.57031 8.11771 6.11053 7.15611 7.07213C6.19452 8.03373 5.6543 9.33793 5.6543 10.6978C5.6543 12.0577 6.19452 13.3619 7.15611 14.3235C8.11771 15.2851 9.42192 15.8254 10.7818 15.8254C12.1417 15.8254 13.4459 15.2851 14.4075 14.3235C15.3691 13.3619 15.9093 12.0577 15.9093 10.6978C15.9093 9.33793 15.3691 8.03373 14.4075 7.07213C13.4459 6.11053 12.1417 5.57031 10.7818 5.57031ZM10.7818 14.0278C9.89835 14.0278 9.05107 13.6769 8.42637 13.0522C7.80166 12.4275 7.4507 11.5802 7.4507 10.6967C7.4507 9.81326 7.80166 8.96598 8.42637 8.34127C9.05107 7.71657 9.89835 7.36561 10.7818 7.36561C11.6653 7.36561 12.5126 7.71657 13.1373 8.34127C13.762 8.96598 14.1129 9.81326 14.1129 10.6967C14.1129 11.5802 13.762 12.4275 13.1373 13.0522C12.5126 13.6769 11.6653 14.0278 10.7818 14.0278Z" fill="#6000D1"/>
<path d="M16.1134 6.5773C16.7735 6.5773 17.3087 6.0421 17.3087 5.38191C17.3087 4.72172 16.7735 4.18652 16.1134 4.18652C15.4532 4.18652 14.918 4.72172 14.918 5.38191C14.918 6.0421 15.4532 6.5773 16.1134 6.5773Z" fill="#6000D1"/>
<path d="M20.2447 4.16688C19.988 3.50396 19.5957 2.90195 19.0929 2.39937C18.5902 1.89679 17.988 1.50473 17.325 1.24827C16.5491 0.957029 15.7295 0.799548 14.9009 0.782536C13.8331 0.735963 13.4949 0.722656 10.7869 0.722656C8.07903 0.722656 7.73194 0.722656 6.67295 0.782536C5.84504 0.798678 5.02598 0.956191 4.25113 1.24827C3.58794 1.50443 2.98562 1.89639 2.48281 2.399C1.98001 2.90162 1.58782 3.50379 1.33141 4.16688C1.04011 4.94267 0.882991 5.7624 0.866786 6.59092C0.819103 7.65768 0.804688 7.99589 0.804688 10.7049C0.804688 13.4128 0.804687 13.7577 0.866786 14.8189C0.883419 15.6484 1.03977 16.4667 1.33141 17.2441C1.58854 17.9069 1.98111 18.5088 2.48404 19.0114C2.98696 19.5139 3.58919 19.906 4.25224 20.1627C5.02562 20.4656 5.84502 20.6344 6.67517 20.6617C7.74303 20.7082 8.08125 20.7227 10.7892 20.7227C13.4971 20.7227 13.8442 20.7227 14.9032 20.6617C15.7316 20.6448 16.5512 20.4877 17.3272 20.197C17.99 19.94 18.592 19.5476 19.0947 19.0449C19.5975 18.5422 19.9899 17.9402 20.2469 17.2773C20.5386 16.5011 20.6949 15.6827 20.7115 14.8533C20.7592 13.7865 20.7736 13.4483 20.7736 10.7393C20.7736 8.03026 20.7736 7.68651 20.7115 6.6253C20.6986 5.78506 20.5407 4.95336 20.2447 4.16688ZM18.8941 14.7369C18.8869 15.3759 18.7703 16.009 18.5492 16.6087C18.3827 17.0399 18.1277 17.4315 17.8008 17.7582C17.4738 18.085 17.0821 18.3397 16.6508 18.506C16.0578 18.726 15.4314 18.8427 14.7989 18.8508C13.7455 18.8996 13.4483 18.9118 10.747 18.9118C8.04354 18.9118 7.76743 18.9118 6.69402 18.8508C6.06187 18.8431 5.43579 18.7264 4.84328 18.506C4.41046 18.3407 4.01715 18.0865 3.6888 17.7596C3.36044 17.4328 3.10435 17.0407 2.93709 16.6087C2.71913 16.0155 2.60255 15.3898 2.59222 14.7579C2.54454 13.7045 2.53345 13.4073 2.53345 10.706C2.53345 8.00365 2.53345 7.72754 2.59222 6.65302C2.59939 6.01432 2.71604 5.38158 2.93709 4.78231C3.2753 3.9074 3.96836 3.21878 4.84328 2.88389C5.43608 2.66448 6.06198 2.54785 6.69402 2.53902C7.74858 2.49134 8.04465 2.47803 10.747 2.47803C13.4494 2.47803 13.7266 2.47803 14.7989 2.53902C15.4314 2.54663 16.0579 2.6633 16.6508 2.88389C17.0821 3.05053 17.4737 3.30549 17.8007 3.63243C18.1276 3.95936 18.3826 4.35103 18.5492 4.78231C18.7672 5.37552 18.8837 6.00117 18.8941 6.63306C18.9417 7.68762 18.9539 7.98369 18.9539 10.6861C18.9539 13.3873 18.9539 13.6779 18.9063 14.738H18.8941V14.7369Z" fill="#6000D1"/>
</svg>
