<svg width="1440" height="619" viewBox="0 0 1440 619" fill="none" xmlns="http://www.w3.org/2000/svg">
<mask id="mask0_741_47915" style="mask-type:alpha" maskUnits="userSpaceOnUse" x="0" y="0" width="1440" height="619">
<path d="M0 0H1440V598.81C1440 609.856 1431.05 618.81 1420 618.81H20C8.95432 618.81 0 609.856 0 598.81V0Z" fill="#161616"/>
</mask>
<g mask="url(#mask0_741_47915)">
<path d="M0 0H1440V676.008C1440 687.054 1431.05 696.008 1420 696.008H20C8.95432 696.008 0 687.054 0 676.008V0Z" fill="white"/>
<path opacity="0.5" d="M-0.499937 48.8516V913.659H0.500063V48.8516H-0.499937ZM56.5001 48.8516V913.659H57.5001V48.8516H56.5001ZM113.5 48.8516V913.659H114.5V48.8516H113.5ZM170.5 48.8516V913.659H171.5V48.8516H170.5ZM227.5 48.8516V913.659H228.5V48.8516H227.5ZM284.5 48.8516V913.659H285.5V48.8516H284.5ZM341.5 48.8516V913.659H342.5V48.8516H341.5ZM398.5 48.8516V913.659H399.5V48.8516H398.5ZM455.5 48.8516V913.659H456.5V48.8516H455.5ZM512.5 48.8516V913.659H513.5V48.8516H512.5ZM569.5 48.8516V913.659H570.5V48.8516H569.5ZM626.5 48.8516V913.659H627.5V48.8516H626.5ZM683.5 48.8516V913.659H684.5V48.8516H683.5ZM740.5 48.8516V913.659H741.5V48.8516H740.5ZM797.5 48.8516V913.659H798.5V48.8516H797.5ZM854.5 48.8516V913.659H855.5V48.8516H854.5ZM911.5 48.8516V913.659H912.5V48.8516H911.5ZM968.5 48.8516V913.659H969.5V48.8516H968.5ZM1025.5 48.8516V913.659H1026.5V48.8516H1025.5ZM1082.5 48.8516V913.659H1083.5V48.8516H1082.5ZM1139.5 48.8516V913.659H1140.5V48.8516H1139.5ZM1196.5 48.8516V913.659H1197.5V48.8516H1196.5ZM1253.5 48.8516V913.659H1254.5V48.8516H1253.5ZM1310.5 48.8516V913.659H1311.5V48.8516H1310.5ZM1367.5 48.8516V913.659H1368.5V48.8516H1367.5ZM1424.5 48.8516V913.659H1425.5V48.8516H1424.5ZM3.55151e-05 870.15L1440 870.149V869.149L3.54722e-05 869.15L3.55151e-05 870.15ZM3.29799e-05 811.396L1440 811.396V810.396L3.29369e-05 810.396L3.29799e-05 811.396ZM3.04446e-05 752.643L1440 752.643V751.643L3.04017e-05 751.643L3.04446e-05 752.643ZM2.79093e-05 693.89L1440 693.89V692.89L2.78664e-05 692.89L2.79093e-05 693.89ZM2.53741e-05 635.137L1440 635.136V634.136L2.53311e-05 634.137L2.53741e-05 635.137ZM2.28388e-05 576.383L1440 576.383V575.383L2.27959e-05 575.383L2.28388e-05 576.383ZM2.03036e-05 517.63L1440 517.63V516.63L2.02606e-05 516.63L2.03036e-05 517.63ZM1.77683e-05 458.877L1440 458.877V457.877L1.77254e-05 457.877L1.77683e-05 458.877ZM1.5233e-05 400.124L1440 400.123V399.123L1.51901e-05 399.124L1.5233e-05 400.124ZM1.26978e-05 341.37L1440 341.37V340.37L1.26548e-05 340.37L1.26978e-05 341.37ZM1.01625e-05 282.617L1440 282.617V281.617L1.01196e-05 281.617L1.01625e-05 282.617ZM7.62725e-06 223.864L1440 223.864V222.864L7.58431e-06 222.864L7.62725e-06 223.864ZM5.09199e-06 165.111L1440 165.11V164.11L5.04905e-06 164.111L5.09199e-06 165.111ZM2.55807e-06 106.357L1440 106.357V105.357L2.51245e-06 105.357L2.55807e-06 106.357ZM2.21395e-08 47.6041L1440 47.604V46.604L-2.21395e-08 46.6041L2.21395e-08 47.6041Z" fill="url(#paint0_linear_741_47915)"/>
</g>
<defs>
<linearGradient id="paint0_linear_741_47915" x1="720" y1="47.104" x2="720" y2="1067.16" gradientUnits="userSpaceOnUse">
<stop offset="0.0107333" stop-color="#6000D1" stop-opacity="0"/>
<stop offset="0.338113" stop-color="#6000D1" stop-opacity="0.12"/>
<stop offset="0.884263" stop-color="#6000D1" stop-opacity="0"/>
</linearGradient>
</defs>
</svg>
