<svg width="98" height="13" viewBox="0 0 98 13" fill="none" xmlns="http://www.w3.org/2000/svg">
<path d="M5.59779 4.08467H3.74859V2.79655C3.74859 2.3128 4.05046 2.20002 4.26307 2.20002C4.47521 2.20002 5.56804 2.20002 5.56804 2.20002V0.0733681L3.77084 0.065918C1.77578 0.065918 1.32176 1.65204 1.32176 2.66707V4.08467H0.167969V6.27606H1.32176C1.32176 9.08838 1.32176 12.4769 1.32176 12.4769H3.74859C3.74859 12.4769 3.74859 9.05499 3.74859 6.27606H5.38614L5.59779 4.08467Z" fill="white"/>
<path d="M28.9695 4.2417H26.541V11.728H28.9695V4.2417Z" fill="white"/>
<path d="M35.5852 4.32949C35.5594 4.32142 35.535 4.31259 35.5079 4.30496C35.4752 4.29752 35.4427 4.29131 35.4094 4.28601C35.2806 4.26009 35.1392 4.24172 34.9737 4.24172C33.558 4.24172 32.6598 5.27424 32.3641 5.67298V4.2417H29.9355V11.728H32.364V7.64457C32.364 7.64457 34.1992 5.08153 34.9736 6.9639V11.728H37.4015V6.67614C37.4015 5.54495 36.6283 4.60239 35.5852 4.32949Z" fill="white"/>
<path d="M28.9166 2.02984C28.9166 2.68771 28.3847 3.22085 27.7288 3.22085C27.0729 3.22085 26.541 2.68769 26.541 2.02984C26.541 1.3721 27.0729 0.838867 27.7288 0.838867C28.3847 0.838867 28.9166 1.3721 28.9166 2.02984Z" fill="white"/>
<path d="M61.8347 3.63281C60.1926 3.63281 58.832 4.96994 58.832 6.63548C58.832 8.30102 60.1692 9.63815 61.8347 9.63815C63.5002 9.63815 64.8374 8.27756 64.8374 6.63548C64.8374 4.9934 63.4768 3.63281 61.8347 3.63281ZM61.8347 8.55906C60.7791 8.55906 59.9111 7.69111 59.9111 6.63548C59.9111 5.57985 60.7791 4.7119 61.8347 4.7119C62.8903 4.7119 63.7583 5.57985 63.7583 6.63548C63.7583 7.69111 62.8903 8.55906 61.8347 8.55906Z" fill="white"/>
<path d="M64.9557 4.24193C65.3314 4.24193 65.636 3.93735 65.636 3.56164C65.636 3.18592 65.3314 2.88135 64.9557 2.88135C64.58 2.88135 64.2754 3.18592 64.2754 3.56164C64.2754 3.93735 64.58 4.24193 64.9557 4.24193Z" fill="white"/>
<path d="M66.7146 1.80261C66.1047 1.16924 65.2367 0.84082 64.2515 0.84082H59.419C57.3782 0.84082 56.0176 2.2014 56.0176 4.24228V9.05124C56.0176 10.0599 56.346 10.9279 57.0028 11.5613C57.6362 12.1712 58.4807 12.4762 59.4425 12.4762H64.228C65.2367 12.4762 66.0812 12.1477 66.6911 11.5613C67.3245 10.9514 67.6529 10.0834 67.6529 9.0747V4.24228C67.6529 3.25703 67.3245 2.41253 66.7146 1.80261ZM66.6207 9.0747C66.6207 9.80191 66.3627 10.3884 65.9405 10.7872C65.5182 11.186 64.9317 11.3971 64.228 11.3971H59.4425C58.7387 11.3971 58.1523 11.186 57.73 10.7872C57.3078 10.3649 57.0967 9.77845 57.0967 9.05124V4.24228C57.0967 3.53853 57.3078 2.95207 57.73 2.52982C58.1288 2.13103 58.7387 1.9199 59.4425 1.9199H64.2749C64.9787 1.9199 65.5651 2.13103 65.9874 2.55328C66.3862 2.97553 66.6207 3.56199 66.6207 4.24228V9.0747Z" fill="white"/>
<path d="M97.1298 2.81087C96.6735 3.01364 96.1825 3.15041 95.6673 3.21162C96.1933 2.89676 96.5967 2.39803 96.7869 1.80308C96.2949 2.09501 95.7502 2.30685 95.17 2.4212C94.7057 1.9265 94.0438 1.61719 93.3115 1.61719C91.9054 1.61719 90.7654 2.75697 90.7654 4.16299C90.7654 4.36223 90.7878 4.55643 90.8314 4.74308C88.7152 4.63678 86.8388 3.62345 85.5829 2.08317C85.3637 2.45899 85.2382 2.89626 85.2382 3.36325C85.2382 4.24636 85.6877 5.02569 86.3709 5.48211C85.9537 5.46876 85.561 5.35415 85.2176 5.16348C85.2173 5.17405 85.2173 5.18489 85.2173 5.19572C85.2173 6.42895 86.0951 7.45764 87.26 7.6919C87.0464 7.74983 86.8214 7.78106 86.5891 7.78106C86.4248 7.78106 86.2654 7.76519 86.1099 7.73522C86.4342 8.74654 87.3744 9.4828 88.4884 9.5032C87.617 10.1861 86.5193 10.5931 85.3262 10.5931C85.1208 10.5931 84.918 10.581 84.7188 10.5573C85.8459 11.28 87.1842 11.7011 88.622 11.7011C93.3057 11.7011 95.8666 7.82212 95.8666 4.45795C95.8666 4.34762 95.8643 4.23755 95.8595 4.12823C96.3568 3.77005 96.7887 3.32144 97.1298 2.81087Z" fill="white"/>
</svg>
