<svg width="25" height="24" viewBox="0 0 25 24" fill="none" xmlns="http://www.w3.org/2000/svg">
<rect x="0.951172" width="23.0994" height="23.0994" rx="11.5497" fill="#EC9F09"/>
<path d="M12.5 13.5498C13.8807 13.5498 15 12.4305 15 11.0498C15 9.66909 13.8807 8.5498 12.5 8.5498C11.1193 8.5498 10 9.66909 10 11.0498C10 12.4305 11.1193 13.5498 12.5 13.5498Z" stroke="white" stroke-width="1.07" stroke-miterlimit="10"/>
<path d="M8.48828 16.0122C8.86447 15.2712 9.43851 14.6489 10.1467 14.2141C10.855 13.7794 11.6698 13.5493 12.5008 13.5493C13.3318 13.5493 14.1466 13.7794 14.8548 14.2141C15.5631 14.6489 16.1371 15.2712 16.5133 16.0122" stroke="white" stroke-width="1.07" stroke-linecap="round" stroke-linejoin="round"/>
<path d="M17 8.0498C17.5523 8.0498 18 7.60209 18 7.0498C18 6.49752 17.5523 6.0498 17 6.0498C16.4477 6.0498 16 6.49752 16 7.0498C16 7.60209 16.4477 8.0498 17 8.0498Z" stroke="white" stroke-width="1.07" stroke-linecap="round" stroke-linejoin="round"/>
<path d="M17 6.0498V5.2998" stroke="white" stroke-width="1.07" stroke-linecap="round" stroke-linejoin="round"/>
<path d="M16.132 6.5498L15.4883 6.1748" stroke="white" stroke-width="1.07" stroke-linecap="round" stroke-linejoin="round"/>
<path d="M16.132 7.5498L15.4883 7.9248" stroke="white" stroke-width="1.07" stroke-linecap="round" stroke-linejoin="round"/>
<path d="M17 8.0498V8.7998" stroke="white" stroke-width="1.07" stroke-linecap="round" stroke-linejoin="round"/>
<path d="M17.8691 7.5498L18.5129 7.9248" stroke="white" stroke-width="1.07" stroke-linecap="round" stroke-linejoin="round"/>
<path d="M17.8691 6.5498L18.5129 6.1748" stroke="white" stroke-width="1.07" stroke-linecap="round" stroke-linejoin="round"/>
<path d="M18.4563 10.8312C18.4866 11.0695 18.5012 11.3096 18.5 11.5499C18.5 12.7366 18.1481 13.8966 17.4888 14.8833C16.8295 15.87 15.8925 16.6391 14.7961 17.0932C13.6997 17.5473 12.4933 17.6661 11.3295 17.4346C10.1656 17.2031 9.09648 16.6317 8.25736 15.7926C7.41825 14.9534 6.8468 13.8843 6.61529 12.7205C6.38378 11.5566 6.5026 10.3502 6.95673 9.25381C7.41085 8.15746 8.17989 7.22038 9.16658 6.5611C10.1533 5.90181 11.3133 5.54991 12.5 5.54991C12.6857 5.54874 12.8714 5.55709 13.0563 5.57491" stroke="white" stroke-width="1.07" stroke-linecap="round" stroke-linejoin="round"/>
</svg>
