<svg width="27" height="27" viewBox="0 0 27 27" fill="none" xmlns="http://www.w3.org/2000/svg">
<path d="M26.2563 12.8586C25.2713 19.7532 23.958 21.3948 18.3767 25.0063C14.1085 24.0213 8.85547 20.4399 8.85547 13.1869C8.85547 5.93392 13.4519 1.36748 17.72 1.6958C22.9731 4.32233 24.2864 6.29223 26.2563 12.8586Z" fill="#DBDBDB" fill-opacity="0.52"/>
<path d="M13.7809 0.710938C6.71262 0.710938 0.976562 6.447 0.976562 13.5153C0.976562 20.5836 6.71262 26.3197 13.7439 26.3197C20.7752 26.3197 26.5483 20.5836 26.5853 13.5153C26.5483 6.447 20.8492 0.747944 13.7809 0.710938ZM13.7809 25.2095C7.34174 25.2095 2.08677 19.9545 2.08677 13.5153C2.08677 7.07611 7.34174 1.82114 13.7809 1.82114C20.2201 1.82114 25.4751 7.03911 25.4751 13.4783C25.4381 19.9545 20.2201 25.1725 13.7809 25.2095Z" fill="#C7C7C7"/>
<path d="M17.7408 12.923C18.777 12.923 19.6281 12.0719 19.6281 10.9987C19.6281 9.92548 18.777 9.11133 17.7038 9.11133C16.6676 9.11133 15.8164 9.96248 15.8164 11.0357C15.8164 12.1089 16.6676 12.923 17.7408 12.923ZM17.7408 10.2585C18.1848 10.2585 18.5179 10.6286 18.5179 11.0727C18.5179 11.5168 18.1478 11.8498 17.7038 11.8498C17.2597 11.8498 16.9266 11.4798 16.9266 11.0357C16.9266 10.5916 17.2967 10.2585 17.7408 10.2585Z" fill="#C7C7C7"/>
<path d="M10.0057 12.923C11.0419 12.923 11.9301 12.0719 11.9301 11.0357C11.9301 9.99949 11.0789 9.14833 10.0427 9.11133C9.00651 9.11133 8.11835 9.96249 8.11835 10.9987C8.08134 12.0719 8.9325 12.923 10.0057 12.923ZM10.0057 10.2585C10.4498 10.2585 10.8198 10.6286 10.8198 11.0357C10.8198 11.4428 10.4498 11.8498 10.0057 11.8498C9.56162 11.8498 9.22855 11.4798 9.22855 11.0357C9.19155 10.5916 9.56162 10.2585 10.0057 10.2585Z" fill="#C7C7C7"/>
<path d="M13.7816 18.8814C10.9691 18.8814 9.22976 16.994 8.3786 16.0688L7.56445 16.809C8.45262 17.7712 10.525 19.9546 13.7816 19.9546C16.7421 19.9546 18.8145 17.9192 19.8137 16.957L19.0366 16.1799C18.0744 17.142 16.2981 18.8814 13.7816 18.8814Z" fill="#C7C7C7"/>
</svg>
