<svg width="14" height="14" viewBox="0 0 14 14" fill="none" xmlns="http://www.w3.org/2000/svg">
<path d="M0.294922 4.04722C0.294922 1.87133 2.05883 0.107422 4.23473 0.107422H9.4878C11.6637 0.107422 13.4276 1.87133 13.4276 4.04723V9.3003C13.4276 11.4762 11.6637 13.2401 9.4878 13.2401H4.23472C2.05883 13.2401 0.294922 11.4762 0.294922 9.3003V4.04722Z" fill="#33B679"/>
<path d="M5.36862 4.05222C5.16879 4.25205 5.16879 4.57603 5.36862 4.77586L7.26651 6.67375L5.36876 8.5715C5.16893 8.77133 5.16893 9.09532 5.36876 9.29515C5.56859 9.49498 5.89258 9.49497 6.09241 9.29515L8.35205 7.0355C8.55188 6.83567 8.55188 6.51169 8.35205 6.31186C8.34966 6.30947 8.34726 6.30711 8.34483 6.30478L6.09227 4.05222C5.89244 3.85239 5.56845 3.85239 5.36862 4.05222Z" fill="white"/>
</svg>
