<svg width="14" height="14" viewBox="0 0 14 14" fill="none" xmlns="http://www.w3.org/2000/svg">
<path d="M0.753906 4.473C0.753906 2.29711 2.51782 0.533203 4.69371 0.533203H9.94679C12.1227 0.533203 13.8866 2.29711 13.8866 4.47301V9.72608C13.8866 11.902 12.1227 13.6659 9.94678 13.6659H4.69371C2.51781 13.6659 0.753906 11.902 0.753906 9.72608V4.473Z" fill="#B13B3B"/>
<path d="M5.82761 4.478C5.62778 4.67783 5.62778 5.00181 5.82761 5.20164L7.72549 7.09953L5.82774 8.99728C5.62791 9.19711 5.62791 9.5211 5.82774 9.72093C6.02757 9.92076 6.35156 9.92076 6.55139 9.72093L8.81103 7.46128C9.01086 7.26146 9.01086 6.93747 8.81103 6.73764C8.80865 6.73525 8.80624 6.73289 8.80382 6.73056L6.55125 4.478C6.35142 4.27817 6.02744 4.27817 5.82761 4.478Z" fill="white"/>
</svg>
