<svg width="62" height="27" viewBox="0 0 62 27" fill="none" xmlns="http://www.w3.org/2000/svg">
<path d="M8.27687 8.59584L8.25995 8.60598L8.24135 8.60429C7.28745 8.47914 6.77328 7.77893 6.77328 7.18189C6.77328 6.5764 7.15045 5.92524 7.9775 5.92524C8.67771 5.92524 9.13098 6.40219 9.13098 7.14299C9.13098 7.37132 9.0684 8.15779 8.27687 8.59584ZM19.2705 7.37132V4.53329H17.728V7.56413C17.728 8.22882 17.4692 8.5637 16.9381 8.58907H10.4891C10.3927 8.58907 10.3132 8.51804 10.2997 8.42501L10.3149 8.40472C10.594 8.03601 10.7141 7.31212 10.7141 7.0246C10.7141 5.25379 9.69927 4.2373 7.92676 4.2373C6.31663 4.2373 5.1919 5.33497 5.1919 6.9079C5.1919 7.30029 5.25279 8.02417 5.66547 8.46391L5.68915 8.48928L5.63671 8.64827L5.58598 8.63812C5.38302 8.60091 4.85533 8.58738 4.63038 8.58738H4.2566C2.85111 8.58738 2.57543 7.91424 2.57543 6.7523V6.0115C2.57543 5.90495 2.48917 5.81869 2.38262 5.81869H1.22406C1.11751 5.81869 1.03125 5.90495 1.03125 6.0115V7.12608C1.03125 9.26898 2.112 10.3125 4.33271 10.3125H16.933C19.0049 10.3125 19.2705 8.74129 19.2705 7.37132Z" fill="#151817"/>
<path d="M22.1535 1.08301H20.6094V10.3125H22.1535V1.08301Z" fill="#151817"/>
<path d="M22.8125 11.2919V12.9765C24.9588 12.9494 25.8366 12.1427 25.8366 10.2027V5.37061H24.2941V10.0623C24.2941 10.864 23.8087 11.2665 22.8125 11.2919Z" fill="#151817"/>
<path d="M29.9656 4.25098C28.8984 4.25098 28.122 4.4996 27.4557 5.05435L28.281 6.35667C28.67 6.0387 29.1723 5.88479 29.8117 5.88479C30.8383 5.88479 30.9905 6.53426 30.9905 6.92157V8.58921H27.3711V10.3127H32.5584V6.52242C32.5584 4.54696 30.933 4.25098 29.9656 4.25098Z" fill="#151817"/>
<path d="M40.9251 8.60285H39.6177C38.909 8.60285 38.4524 8.12082 38.4524 7.37157C38.4524 6.51407 38.975 5.96101 39.7851 5.96101C40.5107 5.96101 40.9251 6.46502 40.9251 7.3462V8.60285ZM58.8463 7.37157V4.53353H57.3038V7.56438C57.3038 8.22907 57.0451 8.56395 56.514 8.58932H53.4662V7.93816C53.4662 7.09081 53.4662 6.2164 52.3246 5.56862L50.2663 4.39992L54.1749 1.97118L53.4426 0.848145L48.3686 4.04474V5.11196L51.4163 6.88447C51.8832 7.16184 51.9221 7.60835 51.9221 8.00412V8.59101H42.7534H42.4693V7.35973C42.4693 5.3183 41.5543 4.23755 39.824 4.23755C37.972 4.23755 36.9082 5.37919 36.9082 7.37157C36.9082 9.19143 37.9196 10.235 39.682 10.235H40.8524L40.8354 10.4785C40.8135 10.8354 40.6223 11.6658 39.3099 11.6658H37.4376V13.3893H39.3742C41.8621 13.3893 42.4321 11.747 42.4693 10.3686L42.471 10.3111H42.7534H56.5123C58.5808 10.3128 58.8463 8.74154 58.8463 7.37157Z" fill="#151817"/>
<path d="M61.9214 1.08301H60.3789V10.3125H61.9214V1.08301Z" fill="#151817"/>
<path d="M16.4643 11.1338C17.0495 11.1372 17.4723 11.5752 17.4689 12.1723C17.4656 12.7592 17.0258 13.1972 16.444 13.1938C15.8825 13.1905 15.4478 12.7355 15.4512 12.1571C15.4529 11.5702 15.8892 11.1304 16.4643 11.1338Z" fill="#151817"/>
<path d="M19.0756 11.1338C19.6608 11.1372 20.0836 11.5752 20.0803 12.1723C20.0769 12.7592 19.6371 13.1972 19.0553 13.1938C18.4938 13.1905 18.0591 12.7355 18.0625 12.1571C18.0642 11.5702 18.5006 11.1304 19.0756 11.1338Z" fill="#151817"/>
<path d="M56.3315 11.1338C56.9167 11.1372 57.3395 11.5752 57.3361 12.1723C57.3327 12.7592 56.893 13.1972 56.3112 13.1938C55.7497 13.1905 55.315 12.7355 55.3184 12.1571C55.3218 11.5702 55.7581 11.1304 56.3315 11.1338Z" fill="#151817"/>
<path d="M58.9428 11.1338C59.528 11.1372 59.9508 11.5752 59.9475 12.1723C59.9441 12.7592 59.5043 13.1972 58.9225 13.1938C58.361 13.1905 57.9263 12.7355 57.9297 12.1571C57.9331 11.5702 58.3694 11.1304 58.9428 11.1338Z" fill="#151817"/>
<path d="M8.00336 1.1226C8.58855 1.12598 9.01138 1.56404 9.008 2.16107C9.00462 2.74796 8.56487 3.18601 7.98306 3.18263C7.42154 3.17925 6.98687 2.72428 6.99025 2.14585C6.99364 1.55896 7.43 1.11753 8.00336 1.1226Z" fill="#151817"/>
<path d="M30.9935 22.9999C30.9986 23.0794 31.0019 23.1623 31.0121 23.2469C31.0814 23.8828 31.3453 24.4139 31.8408 24.808C32.3381 25.202 32.9064 25.3407 33.5271 25.2579C34.1258 25.1784 34.6129 24.8959 34.9799 24.402C35.2725 24.0063 35.4129 23.5513 35.4281 23.0541C35.4434 22.5365 35.325 22.0562 35.0391 21.6266C34.4641 20.7657 33.4645 20.4833 32.5427 20.764C31.555 21.0651 30.9918 21.9598 30.9935 22.9999ZM35.4281 20.2668C35.4298 20.2211 35.4349 20.1771 35.4349 20.1315C35.4349 18.8714 35.4349 17.6131 35.4349 16.353C35.4349 16.2093 35.4349 16.2093 35.5736 16.2093C36.0184 16.2093 36.4632 16.2127 36.9063 16.2076C36.9943 16.2059 37.0163 16.233 37.0146 16.3209C37.0129 19.7374 37.0129 23.1522 37.0146 26.5686C37.0146 26.6583 36.9909 26.6819 36.9047 26.6803C36.4497 26.6752 35.9964 26.6769 35.5415 26.6803C35.4535 26.6803 35.4298 26.6515 35.4315 26.5652C35.4366 26.3031 35.4332 26.0409 35.4332 25.7788C35.4332 25.7433 35.4298 25.7077 35.4264 25.6536C35.3943 25.679 35.3757 25.6908 35.3622 25.7061C34.799 26.3792 34.0869 26.7597 33.226 26.8342C32.1334 26.9272 31.1914 26.5805 30.4184 25.7788C30.0074 25.3526 29.7335 24.8367 29.5576 24.265C29.3901 23.7154 29.3377 23.1522 29.3867 22.5839C29.473 21.5877 29.8316 20.7099 30.5571 20.0215C31.2742 19.3416 32.1334 19.0439 33.1059 19.0964C33.999 19.1437 34.7415 19.5141 35.3351 20.2008C35.3571 20.2245 35.3774 20.2482 35.3994 20.2735L35.4281 20.2668Z" fill="#151817"/>
<path d="M55.9014 22.2796C57.2883 22.2796 58.6684 22.2796 60.0485 22.2796C59.9318 21.5084 59.2214 20.6424 58.1491 20.5663C56.8062 20.4699 56.0519 21.4914 55.9014 22.2796ZM55.9031 23.6377C56.1111 24.4039 56.5492 24.9468 57.2578 25.2022C58.3183 25.5861 59.2874 25.373 60.1415 24.6187C60.2075 24.5595 60.2633 24.4885 60.3208 24.4191C60.3512 24.3836 60.3766 24.3701 60.4172 24.4056C60.7538 24.7033 61.0904 25.0009 61.4354 25.3054C61.4134 25.3375 61.3948 25.3679 61.3728 25.395C60.8722 25.9971 60.2481 26.4064 59.514 26.6432C58.8916 26.8445 58.2523 26.9138 57.6079 26.8174C56.0925 26.5908 54.9847 25.7958 54.4215 24.2973C54.1695 23.6225 54.1306 22.9189 54.2591 22.2069C54.4096 21.368 54.7817 20.6525 55.3991 20.0809C55.8676 19.6462 56.4139 19.3604 57.0295 19.2082C57.6181 19.0627 58.2083 19.0458 58.7969 19.176C60.0231 19.4449 60.9161 20.1553 61.4354 21.3375C61.6722 21.8771 61.7753 22.4487 61.7618 23.0407C61.7584 23.198 61.7398 23.3553 61.7347 23.5126C61.7314 23.6107 61.6891 23.631 61.6011 23.631C60.2751 23.6276 58.9474 23.6293 57.6215 23.6293C57.0955 23.6293 56.5695 23.6293 56.0435 23.6293C56.0012 23.6293 55.9589 23.6327 55.9031 23.6377Z" fill="#151817"/>
<path d="M6.77866 22.2792C6.62813 21.4166 5.82645 20.5337 4.64252 20.5608C3.47213 20.5862 2.7567 21.535 2.62816 22.2792H6.77866ZM2.63323 23.6356C2.69074 23.913 2.79898 24.1549 2.94951 24.3764C3.30469 24.9007 3.79686 25.2102 4.40405 25.3269C5.12793 25.4673 5.80615 25.3337 6.4387 24.9515C6.65858 24.8179 6.85984 24.6555 7.01883 24.4475C7.07633 24.3713 7.08817 24.3646 7.1795 24.4373C7.47379 24.7028 7.77315 24.9633 8.07083 25.2255C8.09789 25.2491 8.12326 25.2745 8.16047 25.3083C8.1148 25.3658 8.0759 25.4217 8.03024 25.4724C7.46703 26.1083 6.77358 26.5176 5.96175 26.7206C5.42222 26.8559 4.87592 26.8965 4.32794 26.817C3.03408 26.6293 2.01083 26.0035 1.36643 24.8077C0.970664 24.072 0.847198 23.2754 0.946986 22.4432C1.05861 21.5079 1.44085 20.713 2.12076 20.0788C2.58588 19.6441 3.13048 19.3617 3.74105 19.2077C4.28565 19.0708 4.83533 19.0454 5.38332 19.1469C6.47084 19.3447 7.34018 19.9012 7.92537 20.8822C8.40909 21.6923 8.55455 22.5752 8.45814 23.5105C8.44799 23.6052 8.41417 23.6289 8.32283 23.6289C6.4776 23.6255 4.63068 23.6272 2.78545 23.6272C2.73978 23.6289 2.69074 23.6322 2.63323 23.6356Z" fill="#151817"/>
<path d="M18.938 22.9676C18.9397 23.02 18.9414 23.0775 18.9448 23.135C18.982 23.7439 19.2086 24.2648 19.6433 24.6826C19.9934 25.0191 20.4112 25.2069 20.8864 25.2627C21.4615 25.3303 21.9959 25.2119 22.4627 24.8585C23.1528 24.3358 23.4234 23.6119 23.3608 22.7477C23.3202 22.1743 23.1004 21.6771 22.6928 21.2779C22.2666 20.8585 21.749 20.664 21.1638 20.664C20.5938 20.664 20.0847 20.8449 19.6602 21.2424C19.1697 21.7024 18.9465 22.286 18.938 22.9676ZM21.3769 19.0894C22.3257 19.1046 23.3236 19.5139 24.105 20.4204C24.5194 20.9008 24.7832 21.464 24.9185 22.0931C25.0386 22.653 25.0505 23.2145 24.9355 23.7726C24.7004 24.9058 24.1016 25.7751 23.1105 26.3468C22.6471 26.614 22.1465 26.768 21.6188 26.8288C21.0657 26.8931 20.5211 26.8508 19.9917 26.6834C18.7977 26.3079 17.9621 25.5282 17.5359 24.3138C17.2383 23.4682 17.2315 22.609 17.4953 21.7549C17.8032 20.757 18.4137 20.0128 19.322 19.5359C19.9258 19.2162 20.4839 19.091 21.3769 19.0894Z" fill="#151817"/>
<path d="M16.5768 25.0147C16.2538 25.5627 15.8293 25.9906 15.2999 26.3069C14.5743 26.7382 13.7895 26.9039 12.9574 26.8396C12.1151 26.7737 11.3642 26.4743 10.7181 25.9145C10.2175 25.4798 9.87075 24.9369 9.65088 24.3043C9.42932 23.665 9.37351 23.0054 9.48006 22.339C9.64412 21.3039 10.1211 20.4549 10.9583 19.8376C11.7481 19.2557 12.6361 19.0274 13.595 19.1035C14.8297 19.2033 15.8191 19.7581 16.516 20.8253C16.587 20.9335 16.5853 20.9352 16.4821 20.9995C16.0931 21.2447 15.7024 21.4866 15.3134 21.7335C15.239 21.7809 15.2035 21.7758 15.1528 21.6963C14.6843 20.9758 14.0213 20.6376 13.1824 20.6663C12.5464 20.6883 12.012 20.9437 11.5942 21.4392C11.2221 21.8824 11.0547 22.405 11.0614 22.9868C11.0716 23.7682 11.3676 24.4075 11.99 24.8659C12.4466 25.2007 12.9642 25.3259 13.5206 25.265C14.2344 25.1872 14.784 24.832 15.173 24.213C15.2018 24.1673 15.2221 24.1521 15.2728 24.1826C15.6923 24.4481 16.1134 24.7103 16.5346 24.9741C16.5481 24.9843 16.5599 24.9978 16.5768 25.0147Z" fill="#151817"/>
<path d="M40.1506 20.3029C40.2538 20.1846 40.3536 20.0594 40.4635 19.9461C40.9929 19.4065 41.6356 19.1495 42.3781 19.1427C42.6352 19.1393 42.6352 19.141 42.6352 19.3998C42.6352 19.8328 42.6318 20.2657 42.6369 20.6987C42.6386 20.7968 42.6064 20.8256 42.5134 20.8222C42.1599 20.812 41.8098 20.8442 41.4716 20.9643C40.8525 21.1858 40.4432 21.6154 40.242 22.2564C40.1506 22.5473 40.1269 22.8467 40.1269 23.1511C40.1286 24.2826 40.1269 25.4141 40.1269 26.5456C40.1269 26.6775 40.1269 26.6775 39.9984 26.6775C39.5502 26.6775 39.1037 26.6758 38.6555 26.6792C38.5709 26.6792 38.5371 26.6623 38.5371 26.5642C38.5405 24.1693 38.5405 21.7761 38.5371 19.3812C38.5371 19.2814 38.5692 19.256 38.6606 19.256C39.1088 19.2594 39.5553 19.2594 40.0035 19.256C40.0965 19.2543 40.1286 19.2831 40.1269 19.3812C40.1219 19.6501 40.1253 19.919 40.1253 20.1862V20.2928C40.1337 20.2979 40.1422 20.2996 40.1506 20.3029Z" fill="#151817"/>
<path d="M43.9997 22.9785C43.9997 21.7861 43.9997 20.5938 43.9997 19.4014C43.9997 19.2593 43.9997 19.2576 44.1418 19.2576C44.5832 19.2576 45.0247 19.2593 45.4644 19.2559C45.5574 19.2542 45.5879 19.283 45.5879 19.3811C45.5862 21.776 45.5862 24.1709 45.5879 26.5641C45.5879 26.6521 45.5642 26.6791 45.478 26.6791C45.0213 26.6758 44.5629 26.6758 44.1063 26.6791C44.0166 26.6808 43.998 26.6504 43.998 26.5641C44.0014 25.3701 43.9997 24.1743 43.9997 22.9785Z" fill="#151817"/>
<path d="M44.8022 15.9517C45.3874 15.9551 45.8102 16.3931 45.8068 16.9902C45.8034 17.577 45.3637 18.0151 44.7819 18.0117C44.2204 18.0083 43.7857 17.5534 43.7891 16.9749C43.7908 16.388 44.2271 15.9483 44.8022 15.9517Z" fill="#151817"/>
<path d="M54.0244 19.2983H52.2198L50.3441 23.4827L48.4008 19.2983H46.6621L50.3441 26.7199L54.0244 19.2983Z" fill="#151817"/>
</svg>
