<svg width="236" height="152" viewBox="0 0 236 152" fill="none" xmlns="http://www.w3.org/2000/svg">
<mask id="mask0_621_9070" style="mask-type:alpha" maskUnits="userSpaceOnUse" x="0" y="0" width="236" height="152">
<rect y="0.867188" width="235.116" height="150.278" rx="4.86482" fill="#F8F8F8"/>
</mask>
<g mask="url(#mask0_621_9070)">
<rect y="0.867188" width="235.116" height="150.278" rx="4.86482" fill="#C9F3FC"/>
<path d="M15.1195 24.1659C15.1195 25.7546 16.2573 26.463 17.32 26.463C18.3719 26.463 19.5098 25.7546 19.5098 24.1659C19.5098 22.5773 18.3719 21.8581 17.32 21.8581C16.2573 21.8581 15.1195 22.5773 15.1195 24.1659ZM13.3591 24.1767C13.3591 21.7615 15.1732 20.205 17.32 20.205C19.4561 20.205 21.2702 21.7615 21.2702 24.1767C21.2702 26.5811 19.4561 28.1376 17.32 28.1376C15.1732 28.1376 13.3591 26.5811 13.3591 24.1767ZM24.003 24.9173V27.9766H22.3714V22.6417H23.9494V23.2535C24.2392 22.749 24.894 22.5021 25.4414 22.5021C26.7832 22.5021 27.3843 23.4575 27.3843 24.6275V27.9766H25.7527V24.9066C25.7527 24.3806 25.4736 23.9834 24.8832 23.9834C24.3465 23.9834 24.003 24.3806 24.003 24.9173ZM30.3869 27.9766H28.7553V20.205H30.3869V27.9766ZM33.4583 27.9766H31.8267V22.6417H33.4583V27.9766ZM31.6872 21.0101C31.6872 20.4841 32.1166 20.0547 32.6318 20.0547C33.1685 20.0547 33.5979 20.4841 33.5979 21.0101C33.5979 21.5361 33.1685 21.9654 32.6318 21.9654C32.1166 21.9654 31.6872 21.5361 31.6872 21.0101ZM36.5192 24.9173V27.9766H34.8877V22.6417H36.4656V23.2535C36.7554 22.749 37.4102 22.5021 37.9576 22.5021C39.2994 22.5021 39.9005 23.4575 39.9005 24.6275V27.9766H38.2689V24.9066C38.2689 24.3806 37.9898 23.9834 37.3995 23.9834C36.8627 23.9834 36.5192 24.3806 36.5192 24.9173ZM42.506 24.6704H44.6421C44.6206 24.2625 44.3415 23.7688 43.5687 23.7688C42.8817 23.7688 42.5382 24.2733 42.506 24.6704ZM44.7602 26.0551L46.1234 26.4416C45.8658 27.3647 45.0178 28.1376 43.6653 28.1376C42.1947 28.1376 40.8851 27.0856 40.8851 25.293C40.8851 23.5755 42.1625 22.4807 43.5472 22.4807C45.2003 22.4807 46.22 23.5004 46.22 25.2179C46.22 25.4433 46.1985 25.6902 46.1878 25.7224H42.4738C42.506 26.3235 43.0534 26.7529 43.6867 26.7529C44.2771 26.7529 44.6099 26.4738 44.7602 26.0551ZM54.9972 27.9766H50.0166V20.366H51.7126V26.3557H54.9972V27.9766ZM57.2655 24.6704H59.4016C59.3801 24.2625 59.101 23.7688 58.3282 23.7688C57.6412 23.7688 57.2977 24.2733 57.2655 24.6704ZM59.5197 26.0551L60.8829 26.4416C60.6253 27.3647 59.7773 28.1376 58.4248 28.1376C56.9542 28.1376 55.6446 27.0856 55.6446 25.293C55.6446 23.5755 56.922 22.4807 58.3067 22.4807C59.9598 22.4807 60.9795 23.5004 60.9795 25.2179C60.9795 25.4433 60.958 25.6902 60.9473 25.7224H57.2333C57.2655 26.3235 57.8129 26.7529 58.4462 26.7529C59.0366 26.7529 59.3694 26.4738 59.5197 26.0551ZM64.4852 23.9834C63.809 23.9834 63.2615 24.4558 63.2615 25.3145C63.2615 26.1625 63.8304 26.6348 64.5067 26.6348C65.14 26.6348 65.4942 26.2376 65.6123 25.8405L67.0507 26.2806C66.8145 27.2144 65.9343 28.1376 64.5067 28.1376C62.918 28.1376 61.6407 26.9675 61.6407 25.3145C61.6407 23.6507 62.8858 22.4807 64.453 22.4807C65.9236 22.4807 66.7823 23.3823 67.0185 24.3377L65.5586 24.7778C65.4406 24.3699 65.1185 23.9834 64.4852 23.9834ZM69.9977 21.0852V22.6417H71.0389V24.0693H69.9977V26.0659C69.9977 26.506 70.2339 26.6241 70.5881 26.6241C70.7599 26.6241 70.9209 26.5919 71.0175 26.5704V27.9229C70.9531 27.9551 70.6847 28.0732 70.1695 28.0732C69.0639 28.0732 68.3876 27.4184 68.3876 26.3557V24.0693H67.443V22.6417H67.7113C68.2695 22.6417 68.5379 22.266 68.5379 21.7722V21.0852H69.9977ZM75.6828 27.9766C75.6613 27.88 75.6399 27.5794 75.6399 27.4399C75.3608 27.9014 74.7489 28.0946 74.2122 28.0946C72.9134 28.0946 72.1835 27.15 72.1835 26.0122V22.6417H73.8151V25.6687C73.8151 26.184 74.0942 26.5919 74.6738 26.5919C75.2212 26.5919 75.5647 26.2162 75.5647 25.6794V22.6417H77.1963V27.0212C77.1963 27.5043 77.2393 27.8907 77.25 27.9766H75.6828ZM82.0235 22.6417V24.2518C81.841 24.2089 81.6693 24.1981 81.5083 24.1981C80.8535 24.1981 80.2631 24.5846 80.2631 25.6472V27.9766H78.6315V22.6417H80.2095V23.3609C80.4885 22.7598 81.1648 22.588 81.5942 22.588C81.7552 22.588 81.9162 22.6095 82.0235 22.6417ZM84.1848 24.6704H86.3209C86.2994 24.2625 86.0203 23.7688 85.2475 23.7688C84.5605 23.7688 84.217 24.2733 84.1848 24.6704ZM86.439 26.0551L87.8022 26.4416C87.5446 27.3647 86.6966 28.1376 85.3441 28.1376C83.8735 28.1376 82.5639 27.0856 82.5639 25.293C82.5639 23.5755 83.8413 22.4807 85.226 22.4807C86.8791 22.4807 87.8988 23.5004 87.8988 25.2179C87.8988 25.4433 87.8773 25.6902 87.8666 25.7224H84.1526C84.1848 26.3235 84.7322 26.7529 85.3656 26.7529C85.9559 26.7529 86.2887 26.4738 86.439 26.0551ZM88.5063 26.463L89.891 26.2162C89.9125 26.5811 90.1701 26.9353 90.7283 26.9353C91.1469 26.9353 91.3509 26.7099 91.3509 26.4738C91.3509 26.2806 91.222 26.1195 90.8249 26.0337L90.213 25.8941C89.0752 25.6472 88.6244 25.0032 88.6244 24.2518C88.6244 23.275 89.4831 22.4807 90.6746 22.4807C92.2203 22.4807 92.757 23.4467 92.8107 24.0693L91.4582 24.3162C91.4153 23.962 91.1898 23.6614 90.6961 23.6614C90.3848 23.6614 90.1164 23.8439 90.1164 24.123C90.1164 24.3484 90.2989 24.4772 90.5351 24.5202L91.2435 24.6597C92.3491 24.8851 92.8858 25.5506 92.8858 26.3342C92.8858 27.2466 92.1881 28.1376 90.7605 28.1376C89.0859 28.1376 88.5492 27.0534 88.5063 26.463Z" fill="black"/>
<path d="M17.0815 41.7876H13.6316V36.2911H14.5619V40.9038H17.0815V41.7876ZM18.7458 41.7876H17.8543V38.0121H18.7458V41.7876ZM17.7147 36.6865C17.7147 36.3609 17.9783 36.0973 18.2962 36.0973C18.6218 36.0973 18.8854 36.3609 18.8854 36.6865C18.8854 37.0121 18.6218 37.2679 18.2962 37.2679C17.9783 37.2679 17.7147 37.0121 17.7147 36.6865ZM23.317 38.0121L21.8363 41.7876H20.937L19.4021 38.0121H20.3944L21.3944 40.71L22.3712 38.0121H23.317ZM24.4934 39.4851H26.3463C26.3308 39.0432 26.0362 38.6479 25.416 38.6479C24.85 38.6479 24.5244 39.082 24.4934 39.4851ZM26.447 40.4697L27.2068 40.71C27.0052 41.369 26.4083 41.9039 25.5012 41.9039C24.4779 41.9039 23.5709 41.1596 23.5709 39.8805C23.5709 38.6866 24.4547 37.8959 25.4082 37.8959C26.5711 37.8959 27.2533 38.6634 27.2533 39.8572C27.2533 40.0045 27.2378 40.1286 27.23 40.1441H24.4702C24.4934 40.7178 24.9431 41.1286 25.5012 41.1286C26.0439 41.1286 26.323 40.8418 26.447 40.4697ZM33.4467 38.0121L31.966 41.7876H31.0667L29.5317 38.0121H30.524L31.5241 40.71L32.5009 38.0121H33.4467ZM35.0002 41.7876H34.1087V38.0121H35.0002V41.7876ZM33.9692 36.6865C33.9692 36.3609 34.2328 36.0973 34.5506 36.0973C34.8762 36.0973 35.1398 36.3609 35.1398 36.6865C35.1398 37.0121 34.8762 37.2679 34.5506 37.2679C34.2328 37.2679 33.9692 37.0121 33.9692 36.6865ZM36.7651 39.8882C36.7651 40.6092 37.1682 41.0899 37.7807 41.0899C38.3698 41.0899 38.7807 40.6015 38.7807 39.8805C38.7807 39.1595 38.3776 38.7099 37.7884 38.7099C37.1992 38.7099 36.7651 39.1673 36.7651 39.8882ZM39.649 36.1748V41.0976C39.649 41.4387 39.68 41.7256 39.6878 41.7876H38.8272C38.8117 41.7023 38.7885 41.4542 38.7885 41.2992C38.6102 41.617 38.2148 41.8806 37.6799 41.8806C36.5945 41.8806 35.8658 41.0279 35.8658 39.8882C35.8658 38.8029 36.6023 37.9114 37.6644 37.9114C38.3233 37.9114 38.6567 38.2137 38.773 38.454V36.1748H39.649ZM41.4519 39.4851H43.3048C43.2893 39.0432 42.9947 38.6479 42.3745 38.6479C41.8085 38.6479 41.4829 39.082 41.4519 39.4851ZM43.4056 40.4697L44.1653 40.71C43.9637 41.369 43.3668 41.9039 42.4598 41.9039C41.4364 41.9039 40.5294 41.1596 40.5294 39.8805C40.5294 38.6866 41.4132 37.8959 42.3667 37.8959C43.5296 37.8959 44.2118 38.6634 44.2118 39.8572C44.2118 40.0045 44.1963 40.1286 44.1886 40.1441H41.4287C41.4519 40.7178 41.9016 41.1286 42.4598 41.1286C43.0024 41.1286 43.2815 40.8418 43.4056 40.4697ZM46.7302 41.0976C47.2884 41.0976 47.7845 40.6867 47.7845 39.896C47.7845 39.113 47.2884 38.7099 46.7302 38.7099C46.1798 38.7099 45.6759 39.113 45.6759 39.896C45.6759 40.679 46.1798 41.0976 46.7302 41.0976ZM46.7302 37.8959C47.8621 37.8959 48.6916 38.7409 48.6916 39.896C48.6916 41.0589 47.8621 41.9039 46.7302 41.9039C45.6061 41.9039 44.7766 41.0589 44.7766 39.896C44.7766 38.7409 45.6061 37.8959 46.7302 37.8959ZM49.2273 40.7643L50.0103 40.5472C50.0413 40.8883 50.2971 41.1907 50.7778 41.1907C51.1499 41.1907 51.3437 40.9891 51.3437 40.7565C51.3437 40.555 51.2042 40.3999 50.9018 40.3379L50.3436 40.2138C49.6769 40.0666 49.3281 39.6324 49.3281 39.113C49.3281 38.454 49.9328 37.8959 50.7158 37.8959C51.7701 37.8959 52.1112 38.5781 52.1732 38.9502L51.4135 39.1673C51.3825 38.9502 51.2197 38.6013 50.7158 38.6013C50.3979 38.6013 50.1731 38.8029 50.1731 39.0355C50.1731 39.237 50.3204 39.3843 50.553 39.4308L51.1266 39.5471C51.8399 39.7022 52.212 40.1363 52.212 40.6945C52.212 41.2682 51.7468 41.9039 50.7855 41.9039C49.6924 41.9039 49.2738 41.1907 49.2273 40.7643ZM54.6934 40.7643L55.4764 40.5472C55.5074 40.8883 55.7632 41.1907 56.2439 41.1907C56.616 41.1907 56.8098 40.9891 56.8098 40.7565C56.8098 40.555 56.6703 40.3999 56.3679 40.3379L55.8097 40.2138C55.143 40.0666 54.7942 39.6324 54.7942 39.113C54.7942 38.454 55.3989 37.8959 56.1819 37.8959C57.2362 37.8959 57.5773 38.5781 57.6393 38.9502L56.8796 39.1673C56.8486 38.9502 56.6858 38.6013 56.1819 38.6013C55.864 38.6013 55.6392 38.8029 55.6392 39.0355C55.6392 39.237 55.7865 39.3843 56.0191 39.4308L56.5927 39.5471C57.306 39.7022 57.6781 40.1363 57.6781 40.6945C57.6781 41.2682 57.2129 41.9039 56.2516 41.9039C55.1585 41.9039 54.7399 41.1907 54.6934 40.7643ZM59.1751 39.4851H61.0279C61.0124 39.0432 60.7178 38.6479 60.0976 38.6479C59.5317 38.6479 59.2061 39.082 59.1751 39.4851ZM61.1287 40.4697L61.8885 40.71C61.6869 41.369 61.0899 41.9039 60.1829 41.9039C59.1596 41.9039 58.2525 41.1596 58.2525 39.8805C58.2525 38.6866 59.1363 37.8959 60.0899 37.8959C61.2527 37.8959 61.935 38.6634 61.935 39.8572C61.935 40.0045 61.9195 40.1286 61.9117 40.1441H59.1518C59.1751 40.7178 59.6247 41.1286 60.1829 41.1286C60.7256 41.1286 61.0047 40.8418 61.1287 40.4697ZM62.461 40.7643L63.244 40.5472C63.275 40.8883 63.5308 41.1907 64.0115 41.1907C64.3836 41.1907 64.5774 40.9891 64.5774 40.7565C64.5774 40.555 64.4379 40.3999 64.1355 40.3379L63.5773 40.2138C62.9106 40.0666 62.5618 39.6324 62.5618 39.113C62.5618 38.454 63.1665 37.8959 63.9495 37.8959C65.0038 37.8959 65.3449 38.5781 65.4069 38.9502L64.6472 39.1673C64.6162 38.9502 64.4534 38.6013 63.9495 38.6013C63.6316 38.6013 63.4068 38.8029 63.4068 39.0355C63.4068 39.237 63.5541 39.3843 63.7867 39.4308L64.3603 39.5471C65.0736 39.7022 65.4457 40.1363 65.4457 40.6945C65.4457 41.2682 64.9805 41.9039 64.0192 41.9039C62.9261 41.9039 62.5075 41.1907 62.461 40.7643ZM66.0041 40.7643L66.7871 40.5472C66.8181 40.8883 67.0739 41.1907 67.5546 41.1907C67.9267 41.1907 68.1205 40.9891 68.1205 40.7565C68.1205 40.555 67.981 40.3999 67.6786 40.3379L67.1205 40.2138C66.4537 40.0666 66.1049 39.6324 66.1049 39.113C66.1049 38.454 66.7096 37.8959 67.4926 37.8959C68.5469 37.8959 68.888 38.5781 68.95 38.9502L68.1903 39.1673C68.1593 38.9502 67.9965 38.6013 67.4926 38.6013C67.1747 38.6013 66.9499 38.8029 66.9499 39.0355C66.9499 39.237 67.0972 39.3843 67.3298 39.4308L67.9035 39.5471C68.6167 39.7022 68.9888 40.1363 68.9888 40.6945C68.9888 41.2682 68.5236 41.9039 67.5623 41.9039C66.4692 41.9039 66.0506 41.1907 66.0041 40.7643ZM70.7721 41.7876H69.8806V38.0121H70.7721V41.7876ZM69.741 36.6865C69.741 36.3609 70.0046 36.0973 70.3225 36.0973C70.6481 36.0973 70.9116 36.3609 70.9116 36.6865C70.9116 37.0121 70.6481 37.2679 70.3225 37.2679C70.0046 37.2679 69.741 37.0121 69.741 36.6865ZM73.5913 41.0976C74.1495 41.0976 74.6456 40.6867 74.6456 39.896C74.6456 39.113 74.1495 38.7099 73.5913 38.7099C73.0409 38.7099 72.5369 39.113 72.5369 39.896C72.5369 40.679 73.0409 41.0976 73.5913 41.0976ZM73.5913 37.8959C74.7231 37.8959 75.5526 38.7409 75.5526 39.896C75.5526 41.0589 74.7231 41.9039 73.5913 41.9039C72.4672 41.9039 71.6377 41.0589 71.6377 39.896C71.6377 38.7409 72.4672 37.8959 73.5913 37.8959ZM77.321 39.6092V41.7876H76.4217V38.0121H77.2977V38.5161C77.5458 38.0819 77.9955 37.9036 78.4141 37.9036C79.3366 37.9036 79.7785 38.5703 79.7785 39.3998V41.7876H78.8792V39.5549C78.8792 39.0897 78.6699 38.7176 78.104 38.7176C77.5923 38.7176 77.321 39.113 77.321 39.6092ZM83.9359 36.857V38.0121H84.7189V38.8107H83.9359V40.5627C83.9359 40.8961 84.0832 41.0356 84.4166 41.0356C84.5406 41.0356 84.6879 41.0124 84.7267 41.0046V41.7488C84.6724 41.7721 84.5018 41.8341 84.1762 41.8341C83.4785 41.8341 83.0444 41.4155 83.0444 40.71V38.8107H82.3467V38.0121H82.5405C82.9436 38.0121 83.1219 37.7563 83.1219 37.423V36.857H83.9359ZM85.4179 40.7643C85.4179 40.0898 85.9141 39.7177 86.5575 39.6247L87.5266 39.4774C87.7436 39.4464 87.8057 39.3378 87.8057 39.206C87.8057 38.8882 87.5886 38.6323 87.0924 38.6323C86.6195 38.6323 86.3559 38.9347 86.3172 39.3146L85.4954 39.1285C85.5652 38.4773 86.1544 37.8959 87.0847 37.8959C88.2475 37.8959 88.6894 38.5548 88.6894 39.3068V41.1829C88.6894 41.524 88.7282 41.7488 88.736 41.7876H87.8987C87.8909 41.7643 87.8599 41.6093 87.8599 41.3069C87.6816 41.5938 87.3095 41.9039 86.6971 41.9039C85.9063 41.9039 85.4179 41.3612 85.4179 40.7643ZM86.8676 41.1984C87.3715 41.1984 87.8057 40.9581 87.8057 40.2216V40.051L86.8211 40.1983C86.542 40.2449 86.3172 40.3999 86.3172 40.71C86.3172 40.9658 86.511 41.1984 86.8676 41.1984ZM93.3117 38.0121L91.7612 39.6092L93.3427 41.7876H92.2418L91.1332 40.2449L90.6681 40.7333V41.7876H89.7765V36.1748H90.6681V39.5394L92.1178 38.0121H93.3117ZM94.4397 39.4851H96.2925C96.277 39.0432 95.9824 38.6479 95.3623 38.6479C94.7963 38.6479 94.4707 39.082 94.4397 39.4851ZM96.3933 40.4697L97.1531 40.71C96.9515 41.369 96.3546 41.9039 95.4475 41.9039C94.4242 41.9039 93.5172 41.1596 93.5172 39.8805C93.5172 38.6866 94.4009 37.8959 95.3545 37.8959C96.5174 37.8959 97.1996 38.6634 97.1996 39.8572C97.1996 40.0045 97.1841 40.1286 97.1763 40.1441H94.4165C94.4397 40.7178 94.8894 41.1286 95.4475 41.1286C95.9902 41.1286 96.2693 40.8418 96.3933 40.4697ZM97.7256 40.7643L98.5086 40.5472C98.5396 40.8883 98.7954 41.1907 99.2761 41.1907C99.6482 41.1907 99.842 40.9891 99.842 40.7565C99.842 40.555 99.7025 40.3999 99.4001 40.3379L98.842 40.2138C98.1752 40.0666 97.8264 39.6324 97.8264 39.113C97.8264 38.454 98.4311 37.8959 99.2141 37.8959C100.268 37.8959 100.61 38.5781 100.672 38.9502L99.9118 39.1673C99.8808 38.9502 99.718 38.6013 99.2141 38.6013C98.8962 38.6013 98.6714 38.8029 98.6714 39.0355C98.6714 39.237 98.8187 39.3843 99.0513 39.4308L99.625 39.5471C100.338 39.7022 100.71 40.1363 100.71 40.6945C100.71 41.2682 100.245 41.9039 99.2838 41.9039C98.1908 41.9039 97.7721 41.1907 97.7256 40.7643ZM103.292 40.7643C103.292 40.0898 103.789 39.7177 104.432 39.6247L105.401 39.4774C105.618 39.4464 105.68 39.3378 105.68 39.206C105.68 38.8882 105.463 38.6323 104.967 38.6323C104.494 38.6323 104.231 38.9347 104.192 39.3146L103.37 39.1285C103.44 38.4773 104.029 37.8959 104.959 37.8959C106.122 37.8959 106.564 38.5548 106.564 39.3068V41.1829C106.564 41.524 106.603 41.7488 106.611 41.7876H105.773C105.766 41.7643 105.734 41.6093 105.734 41.3069C105.556 41.5938 105.184 41.9039 104.572 41.9039C103.781 41.9039 103.292 41.3612 103.292 40.7643ZM104.742 41.1984C105.246 41.1984 105.68 40.9581 105.68 40.2216V40.051L104.696 40.1983C104.417 40.2449 104.192 40.3999 104.192 40.71C104.192 40.9658 104.386 41.1984 104.742 41.1984ZM111.249 36.9423C111.008 36.9423 110.69 37.0508 110.69 37.516V38.0121H111.566V38.7951H110.69V41.7876H109.783V38.7951H109.124V38.0121H109.783V37.4927C109.783 36.6477 110.326 36.1361 111.101 36.1361C111.326 36.1361 111.512 36.1826 111.574 36.2136V36.9811C111.52 36.9656 111.419 36.9423 111.249 36.9423ZM114.719 41.369C114.533 41.7101 114.091 41.8961 113.649 41.8961C112.75 41.8961 112.223 41.2294 112.223 40.3922V38.0121H113.122V40.2294C113.122 40.6945 113.339 41.0899 113.882 41.0899C114.401 41.0899 114.673 40.741 114.673 40.2449V38.0121H115.572V41.0976C115.572 41.4077 115.595 41.6481 115.611 41.7876H114.75C114.735 41.7023 114.719 41.524 114.719 41.369ZM117.635 39.6092V41.7876H116.736V38.0121H117.612V38.5161C117.86 38.0819 118.31 37.9036 118.728 37.9036C119.651 37.9036 120.093 38.5703 120.093 39.3998V41.7876H119.194V39.5549C119.194 39.0897 118.984 38.7176 118.418 38.7176C117.907 38.7176 117.635 39.113 117.635 39.6092Z" fill="#5C5C5C"/>
<rect x="12.9727" y="57.7603" width="68.9457" height="21.9729" rx="3.24322" fill="#6000D1"/>
<path d="M29.9922 67.4181L28.976 67.7043C28.9403 67.4682 28.747 67.0674 28.1316 67.0674C27.7094 67.0674 27.4375 67.3322 27.4375 67.6113C27.4375 67.8546 27.5878 68.0335 27.9384 68.0979L28.6182 68.2267C29.5843 68.4056 30.0852 69.0282 30.0852 69.751C30.0852 70.5453 29.4197 71.3539 28.2103 71.3539C26.8077 71.3539 26.2066 70.4451 26.1351 69.7295L27.1727 69.479C27.2156 69.9442 27.5305 70.3521 28.2246 70.3521C28.6683 70.3521 28.9403 70.1374 28.9403 69.8225C28.9403 69.5649 28.7327 69.3788 28.3964 69.3144L27.7023 69.1856C26.8435 69.021 26.3211 68.4485 26.3211 67.6971C26.3211 66.7382 27.1655 66.0656 28.1388 66.0656C29.4054 66.0656 29.8849 66.8241 29.9922 67.4181ZM34.6966 67.2535H33.1294V71.2466H31.9988V67.2535H30.4387V66.1729H34.6966V67.2535ZM38.3132 71.2466L37.9482 70.2161H35.9875L35.6225 71.2466H34.4346L36.3453 66.1729H37.6548L39.5441 71.2466H38.3132ZM36.9822 67.4324L36.3596 69.1856H37.5904L36.9822 67.4324ZM42.6096 71.2466L41.7007 69.3574H41.3V71.2466H40.1693V66.1729H42.1802C43.1821 66.1729 43.8261 66.8599 43.8261 67.7616C43.8261 68.4485 43.4468 68.9709 42.8242 69.1928L43.8547 71.2466H42.6096ZM41.3 68.3841H41.9655C42.4307 68.3841 42.6811 68.1265 42.6811 67.7687C42.6811 67.3894 42.4307 67.1533 41.9655 67.1533H41.3V68.3841ZM48.5057 67.2535H46.9385V71.2466H45.8078V67.2535H44.2478V66.1729H48.5057V67.2535ZM55.3606 71.2466H54.1655L52.0759 67.9118V71.2466H50.9524V66.1729H52.3264L54.2299 69.2572V66.1729H55.3606V71.2466ZM57.3325 68.7062C57.3325 69.7653 58.091 70.2376 58.7995 70.2376C59.5008 70.2376 60.2594 69.7653 60.2594 68.7062C60.2594 67.6471 59.5008 67.1676 58.7995 67.1676C58.091 67.1676 57.3325 67.6471 57.3325 68.7062ZM56.1589 68.7133C56.1589 67.1032 57.3683 66.0656 58.7995 66.0656C60.2236 66.0656 61.433 67.1032 61.433 68.7133C61.433 70.3163 60.2236 71.3539 58.7995 71.3539C57.3683 71.3539 56.1589 70.3163 56.1589 68.7133ZM66.8874 69.4289L67.7103 66.1729H68.8696L67.4885 71.2466H66.322L65.2415 67.8832L64.1537 71.2466H62.9658L61.5847 66.1729H62.7869L63.6242 69.4218L64.6761 66.1729H65.8354L66.8874 69.4289Z" fill="white"/>
<path opacity="0.16" d="M114.759 132.464C136.198 163.528 173.374 167.269 199.278 168.753C250.532 171.682 256.131 152.584 263.371 135.079C270.612 117.575 291.482 98.2035 258.501 82.5704C225.541 66.9874 213.378 40.493 173.024 41.3386C125.825 42.3014 90.86 97.8491 114.759 132.464Z" fill="url(#paint0_linear_621_9070)"/>
<path d="M232.615 147.458H140.4C138.693 147.458 137.07 146.713 135.955 145.418L122.65 129.952C121.521 128.639 122.452 126.604 124.183 126.604H216.398C218.106 126.604 219.729 127.349 220.843 128.644L234.148 144.11C235.277 145.423 234.346 147.458 232.615 147.458Z" fill="#EEEEEE"/>
<path d="M234.549 145.344H140.603C138.87 145.344 137.226 144.59 136.095 143.275L122.557 127.53C122.527 127.495 122.532 127.442 122.566 127.412C122.602 127.382 122.654 127.386 122.684 127.42L136.221 143.165C137.321 144.444 138.918 145.177 140.603 145.177H234.548C234.595 145.177 234.632 145.215 234.632 145.261C234.632 145.307 234.595 145.344 234.549 145.344Z" fill="#2E1616"/>
<path d="M182.441 123.872H136.834C136.28 123.872 135.815 123.422 135.797 122.867L134.778 92.4635C134.759 91.9086 135.193 91.4585 135.747 91.4585H181.355C181.909 91.4585 182.373 91.9081 182.392 92.4635L183.411 122.867C183.429 123.422 182.995 123.872 182.441 123.872Z" fill="#161616"/>
<path d="M136.96 123.856C136.927 123.856 136.899 123.829 136.897 123.796L135.887 93.6749C135.876 93.3329 135.999 93.0113 136.232 92.7695C136.465 92.5276 136.782 92.3945 137.123 92.3945H182.31C182.344 92.3945 182.373 92.4225 182.373 92.4575C182.373 92.4926 182.345 92.5205 182.31 92.5205H137.123C136.816 92.5205 136.532 92.6399 136.322 92.8574C136.112 93.0748 136.003 93.3634 136.013 93.6713L137.022 123.792C137.023 123.827 136.997 123.856 136.962 123.857C136.962 123.856 136.961 123.856 136.96 123.856Z" fill="#161616"/>
<path d="M168.214 132.23H153.517C153.341 132.23 153.17 132.153 153.05 132.02L151.078 129.813C150.726 129.419 150.985 128.808 151.504 128.808H166.201C166.377 128.808 166.548 128.885 166.667 129.019L168.64 131.226C168.992 131.62 168.733 132.23 168.214 132.23Z" fill="#161616"/>
<path d="M162.52 130.874H157.727L157.453 122.708H162.246L162.52 130.874Z" fill="#161616"/>
<path d="M157.568 123.993C159.118 123.993 160.667 123.993 162.216 123.993C162.297 123.993 162.297 123.868 162.216 123.868C160.667 123.868 159.118 123.868 157.568 123.868C157.488 123.868 157.488 123.993 157.568 123.993Z" fill="#161616"/>
<path d="M157.68 130.125C159.303 130.125 160.927 130.125 162.55 130.125C162.631 130.125 162.631 130 162.55 130C160.927 130 159.303 130 157.68 130C157.599 130 157.599 130.125 157.68 130.125Z" fill="#161616"/>
<path d="M153.611 131.394C157.545 131.394 161.478 131.394 165.412 131.394C166.091 131.394 166.771 131.394 167.451 131.394C167.531 131.394 167.531 131.268 167.451 131.268C163.517 131.268 159.584 131.268 155.65 131.268C154.971 131.268 154.291 131.268 153.611 131.268C153.531 131.268 153.531 131.394 153.611 131.394Z" fill="#161616"/>
<path d="M157.578 128.884C157.591 129.277 157.605 129.67 157.618 130.063C157.62 130.144 157.746 130.144 157.743 130.063C157.73 129.67 157.717 129.277 157.703 128.884C157.701 128.804 157.576 128.803 157.578 128.884Z" fill="#161616"/>
<path d="M162.447 128.883C162.46 129.276 162.474 129.669 162.487 130.062C162.489 130.143 162.615 130.143 162.612 130.062C162.599 129.669 162.586 129.276 162.573 128.883C162.57 128.803 162.445 128.802 162.447 128.883Z" fill="#161616"/>
<path d="M151.305 128.93C152.06 129.745 152.805 130.569 153.569 131.376C153.625 131.435 153.713 131.346 153.658 131.287C152.894 130.48 152.149 129.656 151.393 128.841C151.338 128.782 151.249 128.871 151.305 128.93Z" fill="#161616"/>
<path d="M186.499 113.736H142.369C141.815 113.736 141.351 113.286 141.332 112.731L140.346 83.3204C140.328 82.7651 140.762 82.3154 141.316 82.3154H185.445C185.999 82.3154 186.463 82.7651 186.482 83.3204L187.468 112.731C187.487 113.286 187.053 113.736 186.499 113.736Z" fill="#EEEEEE"/>
<path d="M177.668 95.3685H156.027C155.288 95.3685 154.669 94.7685 154.644 94.0288L154.542 90.9697C154.517 90.2299 155.096 89.6299 155.835 89.6299H177.476C178.215 89.6299 178.834 90.2299 178.859 90.9697L178.961 94.0288C178.986 94.769 178.408 95.3685 177.668 95.3685Z" fill="#C8C8C8"/>
<path d="M186.597 86.7412H140.461L140.346 83.3204C140.328 82.7651 140.762 82.3154 141.316 82.3154H185.445C185.999 82.3154 186.463 82.7651 186.482 83.3204L186.597 86.7412Z" fill="#161616"/>
<path d="M150.462 94.5571C149.344 94.5571 148.404 93.6461 148.366 92.5263C148.348 91.9812 148.543 91.4685 148.916 91.0824C149.288 90.6967 149.793 90.4844 150.337 90.4844C151.455 90.4844 152.395 91.3953 152.433 92.5151C152.451 93.0603 152.256 93.5729 151.883 93.9591C151.511 94.3447 151.006 94.5571 150.462 94.5571ZM150.337 90.8197C149.884 90.8197 149.465 90.996 149.156 91.3156C148.847 91.6357 148.686 92.0619 148.701 92.5151C148.732 93.4566 149.523 94.2223 150.462 94.2223C150.915 94.2223 151.334 94.046 151.643 93.7264C151.952 93.4063 152.114 92.98 152.099 92.5268C152.067 91.5854 151.277 90.8197 150.337 90.8197Z" fill="#161616"/>
<path d="M177.903 102.409H156.261C155.522 102.409 154.903 101.809 154.879 101.069L154.776 98.0102C154.751 97.2704 155.33 96.6704 156.069 96.6704H177.71C178.449 96.6704 179.069 97.2704 179.093 98.0102L179.195 101.069C179.221 101.809 178.642 102.409 177.903 102.409Z" fill="#C9F3FC"/>
<path d="M150.699 101.574C149.58 101.574 148.64 100.663 148.603 99.5434C148.584 98.9982 148.78 98.4856 149.152 98.0995C149.525 97.7138 150.029 97.5015 150.573 97.5015C151.692 97.5015 152.632 98.4124 152.669 99.5322C152.688 100.077 152.492 100.59 152.12 100.976C151.748 101.362 151.243 101.574 150.699 101.574ZM150.574 97.8368C150.121 97.8368 149.702 98.0131 149.393 98.3327C149.084 98.6528 148.922 99.079 148.938 99.5322C148.969 100.474 149.76 101.239 150.699 101.239C151.152 101.239 151.571 101.063 151.88 100.743C152.189 100.423 152.351 99.9971 152.335 99.5439C152.304 98.6025 151.513 97.8368 150.574 97.8368Z" fill="#161616"/>
<path d="M178.139 109.447H156.498C155.759 109.447 155.139 108.847 155.115 108.107L155.012 105.048C154.988 104.308 155.567 103.708 156.305 103.708H177.947C178.686 103.708 179.305 104.308 179.329 105.048L179.432 108.107C179.457 108.847 178.878 109.447 178.139 109.447Z" fill="#C8C8C8"/>
<path d="M150.935 108.57C149.817 108.57 148.877 107.659 148.839 106.539C148.821 105.994 149.016 105.482 149.389 105.096C149.761 104.71 150.266 104.498 150.81 104.498C151.928 104.498 152.868 105.409 152.906 106.528C152.924 107.073 152.729 107.586 152.356 107.972C151.984 108.358 151.479 108.57 150.935 108.57ZM150.81 104.832C150.357 104.832 149.938 105.009 149.629 105.328C149.32 105.648 149.158 106.075 149.173 106.528C149.205 107.469 149.995 108.235 150.935 108.235C151.388 108.235 151.807 108.059 152.116 107.739C152.425 107.419 152.586 106.993 152.571 106.539C152.54 105.598 151.749 104.832 150.81 104.832Z" fill="#161616"/>
<path d="M184.931 84.5276C184.948 85.0438 184.544 85.4625 184.028 85.4625C183.513 85.4625 183.08 85.0438 183.063 84.5276C183.046 84.0114 183.45 83.5928 183.966 83.5928C184.481 83.5928 184.913 84.0114 184.931 84.5276Z" fill="#FFF1DE"/>
<path d="M181.352 84.5276C181.369 85.0438 180.965 85.4625 180.45 85.4625C179.934 85.4625 179.502 85.0438 179.485 84.5276C179.468 84.0114 179.872 83.5928 180.388 83.5928C180.903 83.5928 181.335 84.0114 181.352 84.5276Z" fill="#FFF1DE"/>
<path d="M169.812 91.3768C172.117 91.3768 174.423 91.3768 176.728 91.3768C176.943 91.3768 176.944 91.042 176.728 91.042C174.423 91.042 172.117 91.042 169.812 91.042C169.597 91.042 169.596 91.3768 169.812 91.3768Z" fill="#FFF8F5"/>
<path d="M156.685 91.3768C159.744 91.3768 162.801 91.3768 165.86 91.3768C166.075 91.3768 166.075 91.042 165.86 91.042C162.801 91.042 159.744 91.042 156.685 91.042C156.47 91.042 156.47 91.3768 156.685 91.3768Z" fill="#FFF8F5"/>
<path d="M156.726 92.6239C163.407 92.6239 170.088 92.6239 176.769 92.6239C176.984 92.6239 176.985 92.2891 176.769 92.2891C170.088 92.2891 163.407 92.2891 156.726 92.2891C156.511 92.2891 156.51 92.6239 156.726 92.6239Z" fill="#FFF8F5"/>
<path d="M174.835 93.869C175.494 93.869 176.153 93.869 176.812 93.869C177.027 93.869 177.027 93.5342 176.812 93.5342C176.153 93.5342 175.494 93.5342 174.835 93.5342C174.62 93.5342 174.62 93.869 174.835 93.869Z" fill="#FFF8F5"/>
<path d="M156.767 93.869C161.425 93.869 166.083 93.869 170.741 93.869C170.956 93.869 170.956 93.5342 170.741 93.5342C166.083 93.5342 161.425 93.5342 156.767 93.5342C156.552 93.5342 156.551 93.869 156.767 93.869Z" fill="#FFF8F5"/>
<path d="M165.392 98.4164C169.25 98.4164 173.108 98.4164 176.967 98.4164C177.182 98.4164 177.182 98.0815 176.967 98.0815C173.109 98.0815 169.251 98.0815 165.392 98.0815C165.177 98.0815 165.177 98.4164 165.392 98.4164Z" fill="#FFF8F5"/>
<path d="M156.921 98.4159C158.38 98.4159 159.838 98.4159 161.297 98.4159C161.512 98.4159 161.513 98.0811 161.297 98.0811C159.838 98.0811 158.38 98.0811 156.921 98.0811C156.706 98.0811 156.706 98.4159 156.921 98.4159Z" fill="#FFF8F5"/>
<path d="M156.962 99.6615C163.643 99.6615 170.324 99.6615 177.006 99.6615C177.221 99.6615 177.221 99.3267 177.006 99.3267C170.325 99.3267 163.644 99.3267 156.962 99.3267C156.747 99.3267 156.747 99.6615 156.962 99.6615Z" fill="#FFF8F5"/>
<path d="M170.413 100.91C172.625 100.91 174.836 100.91 177.047 100.91C177.262 100.91 177.263 100.575 177.047 100.575C174.836 100.575 172.624 100.575 170.413 100.575C170.198 100.574 170.198 100.91 170.413 100.91Z" fill="#FFF8F5"/>
<path d="M157.005 100.91C160.158 100.91 163.31 100.91 166.462 100.91C166.677 100.91 166.678 100.575 166.462 100.575C163.31 100.575 160.158 100.575 157.005 100.575C156.79 100.574 156.79 100.91 157.005 100.91Z" fill="#FFF8F5"/>
<path d="M165.484 105.456C169.389 105.456 173.294 105.456 177.199 105.456C177.414 105.456 177.415 105.121 177.199 105.121C173.294 105.121 169.389 105.121 165.484 105.121C165.268 105.121 165.268 105.456 165.484 105.456Z" fill="#FFF8F5"/>
<path d="M157.16 105.456C158.571 105.456 159.983 105.456 161.394 105.456C161.609 105.456 161.61 105.122 161.394 105.122C159.983 105.122 158.571 105.122 157.16 105.122C156.944 105.122 156.944 105.456 157.16 105.456Z" fill="#FFF8F5"/>
<path d="M157.201 106.702C163.882 106.702 170.562 106.702 177.244 106.702C177.459 106.702 177.46 106.367 177.244 106.367C170.563 106.367 163.882 106.367 157.201 106.367C156.985 106.367 156.985 106.702 157.201 106.702Z" fill="#FFF8F5"/>
<path d="M175.027 107.95C175.78 107.95 176.532 107.95 177.285 107.95C177.5 107.95 177.501 107.615 177.285 107.615C176.532 107.615 175.78 107.615 175.027 107.615C174.812 107.615 174.811 107.95 175.027 107.95Z" fill="#FFF8F5"/>
<path d="M157.24 107.95C161.851 107.95 166.461 107.95 171.072 107.95C171.287 107.95 171.288 107.615 171.072 107.615C166.461 107.615 161.851 107.615 157.24 107.615C157.025 107.615 157.024 107.95 157.24 107.95Z" fill="#FFF8F5"/>
<path d="M148.989 97.0906C149.59 98.2017 150.136 99.3388 150.622 100.505C150.704 100.701 151.028 100.615 150.945 100.416C150.447 99.223 149.893 98.0585 149.278 96.9214C149.175 96.7319 148.886 96.9006 148.989 97.0906Z" fill="#C9F3FC"/>
<path d="M150.944 100.505C151.142 99.617 151.474 98.7899 151.95 98.014C152.063 97.8296 151.774 97.6614 151.661 97.8448C151.172 98.643 150.826 99.5017 150.622 100.416C150.575 100.626 150.897 100.715 150.944 100.505Z" fill="#C9F3FC"/>
<path d="M199.554 97.1375C198.854 96.3571 197.898 95.7805 196.738 95.5122C194.487 94.992 192.278 95.8989 191.177 97.9418C190.181 99.7887 189.336 101.888 188.764 103.909C188.361 105.334 188.156 107.318 189.421 108.358C190.153 108.96 191.113 109.161 192.04 109.271C192.058 109.321 192.086 109.37 192.136 109.419C192.222 109.501 192.347 109.389 192.296 109.3C192.339 109.304 192.382 109.309 192.425 109.313C192.537 109.324 192.551 109.174 192.469 109.125C192.526 109.081 192.583 109.037 192.639 108.992C192.702 108.994 192.765 108.996 192.828 108.999C192.978 108.985 193.149 109.011 193.3 109.015C193.584 109.023 193.868 109.029 194.152 109.026C194.662 109.019 195.174 108.986 195.676 108.893C196.801 108.684 197.865 108.052 199.031 108.167C199.006 108.265 198.98 108.362 198.956 108.46C198.924 108.586 199.118 108.64 199.15 108.514C199.18 108.395 199.211 108.276 199.241 108.157C199.281 108.124 199.296 108.065 199.274 108.025C199.528 107.026 199.781 106.026 200.035 105.027C200.709 102.371 201.614 99.4315 199.554 97.1375Z" fill="#FFA67D"/>
<path d="M189.949 101.002C189.949 101.002 187.868 102.823 187.7 103.238C187.531 103.654 188.198 103.928 189.354 104.485C190.51 105.043 189.949 101.002 189.949 101.002Z" fill="#FFA67D"/>
<path d="M191.135 100.874C191.048 101.135 190.692 101.083 190.23 100.807C190.115 100.738 190 100.697 189.888 100.667C189.615 100.528 189.86 99.784 190.232 99.8668C190.902 100.088 191.236 100.57 191.135 100.874Z" fill="#161616"/>
<path d="M190.02 100.968C190.404 101.05 190.242 101.592 190.127 101.801C190.052 101.936 189.925 102.088 189.752 102.048C189.499 101.991 189.553 101.643 189.6 101.46C189.653 101.257 189.769 100.915 190.02 100.968Z" fill="#332323"/>
<path d="M202.03 101.044C201.999 100.201 201.262 100.001 201.262 100.001L201.262 100.004C201.544 98.5858 201.663 97.5051 200.987 96.2934C200.534 95.48 199.825 95.2066 199.02 95.4612C198.698 94.6589 198.19 93.9369 197.451 93.5554C196.256 92.9381 195.086 93.7236 194.497 94.7646C194.34 94.7184 194.179 94.6838 194.012 94.663C192.716 94.4984 191.401 95.138 190.82 96.3264C190.206 97.5818 190.606 98.852 191.413 99.9078C191.726 100.317 192.162 100.71 192.64 100.934C192.399 102.086 192.169 102.954 192.575 104.07C193.035 105.332 194.078 106.485 195.634 106.859C196.197 106.514 198.529 107.605 199.26 107.401C199.323 107.383 199.341 107.325 199.327 107.276C199.56 106.852 199.772 106.418 199.963 105.977L199.963 105.979C199.963 105.978 202.061 101.888 202.03 101.044Z" fill="#161616"/>
<path d="M193.894 102.687C193.74 103.613 192.866 104.239 191.941 104.084C191.016 103.93 190.391 103.054 190.545 102.128C190.699 101.202 191.573 100.576 192.498 100.73C193.423 100.885 194.048 101.761 193.894 102.687Z" fill="#FFA67D"/>
<path d="M191.622 99.8462C191.622 99.8462 191.376 103.418 190.261 104.107C189.147 104.797 188.696 104.169 188.696 104.169C188.696 104.169 187.996 104.599 187.871 105.784C187.747 106.968 187.91 108.882 189.911 108.932C193.302 109.014 192.578 104.07 192.578 104.07L192.669 100.372L191.622 99.8462Z" fill="#161616"/>
<path d="M170.803 123.87C170.803 123.87 165.243 134.758 164.081 137.417C162.919 140.077 163.5 143.027 165.574 144.523C167.65 146.019 170.554 145.562 173.915 143.65C177.277 141.739 184.373 137.168 184.373 137.168L187.776 136.42L184.912 130.311L182.329 130.342L170.803 123.87Z" fill="#FFA67D"/>
<path d="M175.626 140.182C177.926 136.375 180.226 132.568 182.525 128.761C182.581 128.669 182.437 128.584 182.381 128.677C180.081 132.484 177.781 136.291 175.481 140.098C175.426 140.19 175.57 140.274 175.626 140.182Z" fill="#161616"/>
<path d="M228.607 133.981C227.376 131.683 222.446 123.081 222.446 123.081L211.761 128.957L209.446 129.115L207.32 134.79L210.421 135.215C210.421 135.215 217.102 138.798 220.248 140.269C223.395 141.738 226.029 141.939 227.779 140.45C229.53 138.962 229.839 136.279 228.607 133.981Z" fill="#FFA67D"/>
<path d="M222.648 135.869C222.082 133.509 221.352 131.194 220.464 128.939C222.051 128.104 224.041 126.94 225.477 125.866C224.472 124.36 221.347 120.11 219.489 117.424C218.501 115.994 217.565 114.489 216.368 113.221C215.321 112.114 214.081 111.19 212.729 110.492C211.246 109.726 209.638 109.245 207.982 109.056C207.062 108.894 202.164 108.61 200.669 108.411C200.635 108.406 200.601 108.403 200.568 108.399C200.199 106.474 197.965 106.146 196.342 106.381C194.29 106.678 192.307 107.396 190.503 108.413C186.709 108.581 183.606 109.051 180.272 111.066C176.687 113.233 173.988 116.563 171.853 120.115C170.752 121.946 169.782 123.85 168.838 125.766C172.044 127.554 177.684 129.764 182.573 130.976C182.837 130.539 183.777 128.514 183.833 128.357C185.395 133.189 189.002 140.534 190.113 142.789C190.384 142.719 212.369 137.919 214.822 137.479C217.38 137.021 220.987 136.231 222.648 135.869Z" fill="#587EE0"/>
<path d="M218.15 127.437C219.995 126.105 221.892 124.85 223.84 123.675C223.932 123.619 223.848 123.475 223.756 123.53C221.808 124.706 219.911 125.96 218.066 127.292C217.979 127.355 218.063 127.5 218.15 127.437Z" fill="#161616"/>
<path d="M227.353 149.495C227.247 147.475 226.806 145.433 226.398 143.461C225.498 139.112 224.276 134.825 222.996 130.575C221.515 125.661 218.545 120.304 213.439 118.503C208.466 116.747 203.405 118.758 199.727 122.219C198.088 123.76 196.686 125.536 195.403 127.38C194.003 129.393 192.69 131.481 191.493 133.621C189.099 137.899 187.251 142.643 187.362 147.619C187.454 151.704 189.079 155.756 192.135 158.514C194.034 160.227 196.893 161.012 199.362 161.343C201.702 161.656 204.07 161.582 206.421 161.461C208.72 161.342 211.011 161.256 213.308 160.99C215.573 160.727 217.936 160.487 220.133 159.869C222.595 159.179 224.918 157.96 226.154 155.654C227.204 153.695 227.462 151.607 227.353 149.495Z" fill="#EEEEEE"/>
<path d="M187.687 149.854C189.162 143.228 191.759 136.89 195.351 131.134C196.785 128.836 198.315 126.506 200.216 124.563C201.856 122.887 203.795 121.495 205.964 120.593C209.099 119.291 212.531 119.129 215.838 119.79C215.943 119.81 215.988 119.649 215.882 119.628C212.912 119.034 209.831 119.08 206.943 120.048C204.683 120.806 202.628 122.084 200.874 123.692C198.99 125.42 197.508 127.531 196.104 129.653C194.203 132.526 192.54 135.558 191.153 138.712C189.583 142.282 188.374 146.002 187.526 149.809C187.502 149.914 187.663 149.959 187.687 149.854Z" fill="#161616"/>
<path d="M214.829 149.381C214.812 148.411 214.812 147.439 214.764 146.47C214.727 145.703 214.636 144.917 214.317 144.209C213.358 142.084 210.548 142.058 209.577 144.209C209.257 144.917 209.168 145.703 209.13 146.47C209.083 147.439 209.081 148.411 209.065 149.381C209 153.362 208.984 157.345 209.022 161.328C210.451 161.251 211.879 161.156 213.307 160.989C213.827 160.928 214.351 160.87 214.877 160.807C214.907 156.998 214.893 153.188 214.829 149.381Z" fill="#161616"/>
<path d="M190.502 108.495C193.811 108.107 197.255 108.12 200.566 108.481C200.673 108.492 200.672 108.325 200.566 108.313C197.256 107.952 193.811 107.94 190.502 108.327C190.396 108.34 190.395 108.507 190.502 108.495Z" fill="#161616"/>
<path d="M183.799 128.608C184.367 127.52 184.903 126.418 185.409 125.3C185.453 125.202 185.309 125.117 185.264 125.216C184.759 126.333 184.222 127.436 183.655 128.523C183.605 128.619 183.749 128.704 183.799 128.608Z" fill="#161616"/>
<path d="M170.182 123.101C174.621 125.167 179.283 126.683 183.922 128.225C184.025 128.259 184.068 128.097 183.967 128.063C179.341 126.526 174.693 125.016 170.267 122.956C170.169 122.911 170.084 123.055 170.182 123.101Z" fill="#161616"/>
<path d="M139.162 127.625H132.408C132.408 127.625 133.484 134.731 133.855 136.851C134.226 138.97 135.748 140.434 139.162 140.434C142.576 140.434 144.097 138.97 144.468 136.851C144.839 134.731 145.915 127.625 145.915 127.625H139.162Z" fill="#FFF8F5"/>
<path d="M148.453 118.591C147.605 118.468 146.806 119.316 146.272 119.855C145.532 120.605 144.899 121.46 144.354 122.361C144.266 122.507 144.18 122.656 144.095 122.807C144.235 121.371 144.335 119.931 144.379 118.494C144.43 116.806 144.48 115.058 144.278 113.378C144.185 112.617 143.739 111.583 142.787 111.741C141.672 111.926 141.166 113.538 140.869 114.444C140.642 115.139 140.457 115.846 140.301 116.56C139.969 115.451 138.655 110.746 137.122 111.908C136.372 112.477 136.545 114.101 136.594 114.895C136.668 116.077 136.801 117.256 136.971 118.429C136.575 117.501 136.155 116.584 135.707 115.685C135.034 114.282 134.304 112.906 133.525 111.561C132.988 110.637 131.214 108.114 130.148 108.779C129.083 109.444 129.396 111.273 129.566 112.434C129.73 113.548 130.11 114.613 130.49 115.673C131.489 118.457 132.451 121.322 133.714 124.024C132.382 123.051 130.878 122.04 129.335 121.459C128.901 121.297 128.263 121.062 127.812 121.299C127.066 121.688 127.474 122.693 127.845 123.199C129.083 124.88 130.598 126.394 132.318 127.581C132.318 127.581 132.318 127.583 132.32 127.583C132.35 127.603 132.381 127.624 132.409 127.644C132.41 127.644 132.41 127.645 132.411 127.645C132.486 128.195 135.478 128.637 139.161 128.637C141.166 128.637 142.966 128.506 144.203 128.298C144.21 128.297 144.217 128.295 144.224 128.294C144.294 128.283 144.363 128.27 144.429 128.258C144.452 128.253 144.475 128.249 144.498 128.244C144.547 128.235 144.595 128.225 144.642 128.215C144.669 128.21 144.697 128.204 144.724 128.198C144.764 128.19 144.804 128.18 144.843 128.171C144.87 128.165 144.899 128.159 144.925 128.152C144.967 128.142 145.007 128.131 145.047 128.12C145.085 128.11 145.122 128.1 145.158 128.09C145.193 128.08 145.228 128.07 145.26 128.059C145.283 128.052 145.305 128.045 145.327 128.038C145.355 128.028 145.382 128.019 145.409 128.009C145.429 128.002 145.447 127.994 145.466 127.987C145.493 127.977 145.519 127.966 145.544 127.955C145.558 127.949 145.573 127.943 145.587 127.936C145.616 127.922 145.643 127.909 145.668 127.895C145.674 127.892 145.681 127.889 145.686 127.886L145.686 127.886C145.835 127.802 145.915 127.714 145.915 127.624C145.915 127.609 145.912 127.594 145.907 127.579C146.823 126.305 147.618 124.923 148.257 123.537C148.676 122.632 150.447 118.883 148.453 118.591Z" fill="#00594F"/>
<path d="M132.771 129.691C136.812 130.942 141.536 131.113 145.551 129.671C145.651 129.635 145.608 129.473 145.506 129.51C141.518 130.942 136.829 130.773 132.815 129.529C132.713 129.497 132.669 129.659 132.771 129.691Z" fill="#2E1616"/>
<path d="M136.934 118.448C138.228 121.753 139.346 125.127 140.283 128.55C140.312 128.654 140.473 128.61 140.445 128.505C139.507 125.082 138.389 121.708 137.095 118.403C137.056 118.304 136.895 118.347 136.934 118.448Z" fill="#2E1616"/>
<path d="M133.661 124.026C135.33 125.272 136.831 126.805 137.952 128.567C138.01 128.657 138.155 128.573 138.097 128.482C136.959 126.695 135.439 125.146 133.745 123.881C133.659 123.817 133.575 123.962 133.661 124.026Z" fill="#2E1616"/>
<path d="M140.248 116.542C139.63 119.233 139.255 121.979 139.18 124.739C139.177 124.847 139.344 124.847 139.347 124.739C139.422 121.993 139.795 119.263 140.409 116.587C140.433 116.482 140.272 116.437 140.248 116.542Z" fill="#2E1616"/>
<path d="M141.983 128.485C142.471 126.55 143.186 124.673 144.111 122.905C144.161 122.809 144.017 122.725 143.967 122.821C143.035 124.601 142.313 126.491 141.821 128.44C141.795 128.545 141.956 128.589 141.983 128.485Z" fill="#2E1616"/>
<path d="M94.1363 141.14L97.5638 135.203L100.991 141.14H94.1363Z" stroke="#C5DCE2" stroke-width="0.596343"/>
<path d="M116.848 121.855C116.848 123.703 115.35 125.2 113.503 125.2C111.655 125.2 110.158 123.703 110.158 121.855C110.158 120.008 111.655 118.51 113.503 118.51C115.35 118.51 116.848 120.008 116.848 121.855Z" stroke="#C5DCE2" stroke-width="0.596343"/>
<path d="M170.131 72.4437C170.131 73.6624 169.143 74.6503 167.925 74.6503C166.706 74.6503 165.718 73.6624 165.718 72.4437C165.718 71.2251 166.706 70.2371 167.925 70.2371C169.143 70.2371 170.131 71.2251 170.131 72.4437Z" stroke="#C5DCE2" stroke-width="0.596343"/>
<path d="M192.988 65.0755L186.254 62.6703C186.183 62.6451 186.106 62.6451 186.036 62.6703L179.301 65.0755C179.171 65.122 179.084 65.2461 179.086 65.3845C179.087 65.5229 179.176 65.6452 179.308 65.689L182.035 66.5984V69.7679C182.035 69.9126 182.131 70.0398 182.27 70.0798L186.055 71.1689C186.084 71.1773 186.115 71.1815 186.145 71.1815C186.175 71.1815 186.205 71.1773 186.234 71.1689L187.426 70.8259C187.598 70.7764 187.698 70.5966 187.648 70.4243C187.599 70.2521 187.419 70.1526 187.247 70.2022L186.145 70.5193L182.684 69.5236V66.8148L186.042 67.9343C186.109 67.9565 186.181 67.9566 186.247 67.9343L186.85 67.7333C186.85 67.7333 186.85 67.7333 186.85 67.7333L187.358 67.564C187.528 67.5073 187.62 67.3235 187.563 67.1534C187.507 66.9834 187.323 66.8915 187.153 66.9482L186.145 67.2844L183.127 66.2782L180.405 65.3705L186.145 63.3205L191.885 65.3705L189.827 66.0566C189.827 66.0566 189.827 66.0566 189.827 66.0566L189.573 66.1413L189.364 66.2111H189.364L189.039 66.3193C188.869 66.376 188.777 66.5598 188.834 66.7298C188.891 66.8998 189.074 66.9916 189.244 66.935L189.605 66.8147V69.5236L189.201 69.64C189.028 69.6895 188.929 69.8693 188.978 70.0416C189.019 70.1839 189.149 70.2765 189.29 70.2765C189.32 70.2765 189.35 70.2724 189.38 70.2637L190.019 70.0798C190.158 70.0398 190.254 69.9125 190.254 69.7679V66.5984L192.982 65.6889C193.113 65.6452 193.202 65.5229 193.204 65.3845C193.205 65.2461 193.118 65.122 192.988 65.0755Z" fill="#C5DCE2"/>
<path d="M188.641 66.8927C188.64 66.8852 188.64 66.8776 188.639 66.8701C188.639 66.8647 188.638 66.8594 188.637 66.854C188.636 66.849 188.636 66.8439 188.635 66.839C188.634 66.833 188.632 66.8271 188.631 66.8213C188.63 66.817 188.629 66.8126 188.627 66.8083C188.626 66.8025 188.624 66.797 188.621 66.7914C188.62 66.787 188.618 66.7826 188.617 66.7784C188.615 66.7732 188.612 66.7683 188.61 66.7634C188.608 66.7587 188.606 66.754 188.603 66.7494C188.601 66.745 188.598 66.7408 188.596 66.7366C188.593 66.7317 188.59 66.7268 188.587 66.7221C188.584 66.7181 188.581 66.7143 188.578 66.7104C188.575 66.7058 188.572 66.7011 188.568 66.6966C188.565 66.6924 188.561 66.6884 188.557 66.6844C188.554 66.6806 188.551 66.6768 188.547 66.6732C188.541 66.6673 188.535 66.6619 188.529 66.6565C188.527 66.655 188.526 66.6534 188.524 66.6519L188.523 66.6512C188.523 66.6511 188.523 66.6509 188.523 66.6507L186.352 64.8451C186.215 64.7305 186.01 64.7492 185.895 64.887C185.781 65.0248 185.8 65.2294 185.937 65.344L187.992 67.0535V72.8068C187.632 72.8808 187.36 73.2002 187.36 73.5819V74.0227C187.36 74.459 187.715 74.814 188.151 74.814H188.592C189.028 74.814 189.383 74.459 189.383 74.0227V73.5819C189.383 73.162 189.055 72.8177 188.641 72.7923V66.9029C188.641 66.9029 188.641 66.9028 188.641 66.9026V66.9013C188.641 66.8984 188.641 66.8956 188.641 66.8927ZM188.734 73.5819V74.0227C188.734 74.1012 188.671 74.1649 188.592 74.1649H188.151C188.073 74.1649 188.009 74.1011 188.009 74.0227V73.5819C188.009 73.5035 188.073 73.4397 188.151 73.4397H188.592C188.671 73.4397 188.734 73.5035 188.734 73.5819Z" fill="#C5DCE2"/>
<path d="M94.375 123.164C94.375 122.907 94.477 122.661 94.6584 122.48C94.8399 122.298 95.0861 122.196 95.3427 122.196H100.569" stroke="#AEC9CF" stroke-width="0.596343" stroke-linecap="round" stroke-linejoin="round"/>
<path d="M95.3427 116.39H100.569V124.132H95.3427C95.0861 124.132 94.8399 124.03 94.6584 123.849C94.477 123.667 94.375 123.421 94.375 123.164V117.358C94.375 117.101 94.477 116.855 94.6584 116.674C94.8399 116.492 95.0861 116.39 95.3427 116.39V116.39Z" stroke="#C5DCE2" stroke-width="0.596343" stroke-linecap="round" stroke-linejoin="round"/>
</g>
<defs>
<linearGradient id="paint0_linear_621_9070" x1="245.17" y1="65.2409" x2="201.299" y2="172.079" gradientUnits="userSpaceOnUse">
<stop offset="0.005319" stop-color="white"/>
<stop offset="1" stop-color="#0FA4C5"/>
</linearGradient>
</defs>
</svg>
