<svg width="47" height="8" viewBox="0 0 47 8" fill="none" xmlns="http://www.w3.org/2000/svg">
<path d="M3.08818 2.72665C3.08818 2.72665 1.56489 2.89536 0.548717 3.00815C0.457126 3.01923 0.376141 3.08045 0.345772 3.17348C0.315402 3.2665 0.345772 3.36339 0.413259 3.4246C1.16816 4.11339 2.30243 5.1449 2.30243 5.1449C2.30147 5.1449 1.99102 6.64539 1.7847 7.64652C1.76735 7.73714 1.80013 7.83306 1.87919 7.89042C1.95776 7.94778 2.05899 7.94874 2.13853 7.90392C3.02744 7.39877 4.35888 6.63912 4.35888 6.63912C4.35888 6.63912 5.69079 7.39877 6.57825 7.9044C6.65924 7.94874 6.76047 7.94778 6.83905 7.89042C6.9181 7.83306 6.95088 7.73714 6.93305 7.64701C6.72673 6.64539 6.41677 5.1449 6.41677 5.1449C6.41677 5.1449 7.55104 4.11339 8.30594 3.42605C8.37343 3.36291 8.40331 3.26602 8.37342 3.17348C8.34354 3.08093 8.26255 3.01972 8.17096 3.00911C7.15479 2.89536 5.63102 2.72665 5.63102 2.72665C5.63102 2.72665 4.99953 1.32979 4.57869 0.398547C4.53916 0.315159 4.45625 0.256836 4.35888 0.256836C4.2615 0.256836 4.1781 0.315641 4.1405 0.398547C3.71919 1.32979 3.08818 2.72665 3.08818 2.72665Z" fill="#FFC24A"/>
<path d="M12.6995 2.72665C12.6995 2.72665 11.1762 2.89536 10.16 3.00815C10.0685 3.01923 9.98747 3.08045 9.9571 3.17348C9.92673 3.2665 9.9571 3.36339 10.0246 3.4246C10.7795 4.11339 11.9138 5.1449 11.9138 5.1449C11.9128 5.1449 11.6024 6.64539 11.396 7.64652C11.3787 7.73714 11.4115 7.83306 11.4905 7.89042C11.5691 7.94778 11.6703 7.94874 11.7499 7.90392C12.6388 7.39877 13.9702 6.63912 13.9702 6.63912C13.9702 6.63912 15.3021 7.39877 16.1896 7.9044C16.2706 7.94874 16.3718 7.94778 16.4504 7.89042C16.5294 7.83306 16.5622 7.73714 16.5444 7.64701C16.3381 6.64539 16.0281 5.1449 16.0281 5.1449C16.0281 5.1449 17.1624 4.11339 17.9173 3.42605C17.9848 3.36291 18.0146 3.26602 17.9848 3.17348C17.9549 3.08093 17.8739 3.01972 17.7823 3.00911C16.7661 2.89536 15.2423 2.72665 15.2423 2.72665C15.2423 2.72665 14.6109 1.32979 14.19 0.398547C14.1505 0.315159 14.0676 0.256836 13.9702 0.256836C13.8728 0.256836 13.7894 0.315641 13.7518 0.398547C13.3305 1.32979 12.6995 2.72665 12.6995 2.72665Z" fill="#FFC24A"/>
<path d="M31.9261 2.72665C31.9261 2.72665 30.4028 2.89536 29.3866 3.00815C29.295 3.01923 29.214 3.08045 29.1837 3.17348C29.1533 3.2665 29.1837 3.36339 29.2512 3.4246C30.006 4.11339 31.1403 5.1449 31.1403 5.1449C31.1394 5.1449 30.8289 6.64539 30.6226 7.64652C30.6052 7.73714 30.638 7.83306 30.7171 7.89042C30.7957 7.94778 30.8969 7.94874 30.9764 7.90392C31.8653 7.39877 33.1968 6.63912 33.1968 6.63912C33.1968 6.63912 34.5287 7.39877 35.4161 7.9044C35.4971 7.94874 35.5984 7.94778 35.6769 7.89042C35.756 7.83306 35.7888 7.73714 35.7709 7.64701C35.5646 6.64539 35.2547 5.1449 35.2547 5.1449C35.2547 5.1449 36.3889 4.11339 37.1438 3.42605C37.2113 3.36291 37.2412 3.26602 37.2113 3.17348C37.1814 3.08093 37.1004 3.01972 37.0089 3.00911C35.9927 2.89536 34.4689 2.72665 34.4689 2.72665C34.4689 2.72665 33.8374 1.32979 33.4166 0.398547C33.3771 0.315159 33.2941 0.256836 33.1968 0.256836C33.0994 0.256836 33.016 0.315641 32.9784 0.398547C32.5571 1.32979 31.9261 2.72665 31.9261 2.72665Z" fill="#FFC24A"/>
<path d="M22.3128 2.72665C22.3128 2.72665 20.7895 2.89536 19.7733 3.00815C19.6817 3.01923 19.6008 3.08045 19.5704 3.17348C19.54 3.2665 19.5704 3.36339 19.6379 3.4246C20.3928 4.11339 21.527 5.1449 21.527 5.1449C21.5261 5.1449 21.2156 6.64539 21.0093 7.64652C20.992 7.73714 21.0247 7.83306 21.1038 7.89042C21.1824 7.94778 21.2836 7.94874 21.3631 7.90392C22.2521 7.39877 23.5835 6.63912 23.5835 6.63912C23.5835 6.63912 24.9154 7.39877 25.8029 7.9044C25.8838 7.94874 25.9851 7.94778 26.0637 7.89042C26.1427 7.83306 26.1755 7.73714 26.1577 7.64701C25.9513 6.64539 25.6414 5.1449 25.6414 5.1449C25.6414 5.1449 26.7756 4.11339 27.5305 3.42605C27.598 3.36291 27.6279 3.26602 27.598 3.17348C27.5681 3.08093 27.4872 3.01972 27.3956 3.00911C26.3794 2.89536 24.8556 2.72665 24.8556 2.72665C24.8556 2.72665 24.2241 1.32979 23.8033 0.398547C23.7638 0.315159 23.6809 0.256836 23.5835 0.256836C23.4861 0.256836 23.4027 0.315641 23.3651 0.398547C22.9438 1.32979 22.3128 2.72665 22.3128 2.72665Z" fill="#FFC24A"/>
<path d="M41.5394 2.72665C41.5394 2.72665 40.0161 2.89536 38.9999 3.00815C38.9083 3.01923 38.8273 3.08045 38.7969 3.17348C38.7666 3.2665 38.7969 3.36339 38.8644 3.4246C39.6193 4.11339 40.7536 5.1449 40.7536 5.1449C40.7536 5.1449 40.4422 6.64539 40.2359 7.64652C40.2185 7.73714 40.2513 7.83306 40.3304 7.89042C40.4089 7.94778 40.5102 7.94874 40.5897 7.90392C41.4786 7.39877 42.81 6.63912 42.81 6.63912C42.81 6.63912 44.142 7.39877 45.0294 7.9044C45.1104 7.94874 45.2116 7.94778 45.2902 7.89042C45.3693 7.83306 45.4021 7.73714 45.3842 7.64701C45.1779 6.64539 44.8679 5.1449 44.8679 5.1449C44.8679 5.1449 46.0022 4.11339 46.7571 3.42605C46.8246 3.36291 46.8545 3.26602 46.8246 3.17348C46.7947 3.08093 46.7137 3.01972 46.6221 3.00911C45.606 2.89536 44.0822 2.72665 44.0822 2.72665C44.0822 2.72665 43.4507 1.32979 43.0299 0.398547C42.9903 0.315159 42.9074 0.256836 42.81 0.256836C42.7127 0.256836 42.6293 0.315641 42.5917 0.398547C42.1704 1.32979 41.5394 2.72665 41.5394 2.72665Z" fill="#BFBFBF"/>
</svg>
