<svg width="14" height="14" viewBox="0 0 14 14" fill="none" xmlns="http://www.w3.org/2000/svg">
<path d="M0.294922 4.81627C0.294922 2.64037 2.05883 0.876465 4.23473 0.876465H9.4878C11.6637 0.876465 13.4276 2.64037 13.4276 4.81627V10.0693C13.4276 12.2452 11.6637 14.0091 9.4878 14.0091H4.23472C2.05883 14.0091 0.294922 12.2452 0.294922 10.0693V4.81627Z" fill="#039BE5"/>
<path d="M5.36862 4.82126C5.16879 5.02109 5.16879 5.34508 5.36862 5.54491L7.26651 7.44279L5.36876 9.34054C5.16893 9.54037 5.16893 9.86436 5.36876 10.0642C5.56859 10.264 5.89258 10.264 6.09241 10.0642L8.35205 7.80455C8.55188 7.60472 8.55188 7.28073 8.35205 7.0809C8.34966 7.07851 8.34726 7.07615 8.34483 7.07382L6.09227 4.82126C5.89244 4.62143 5.56845 4.62143 5.36862 4.82126Z" fill="white"/>
</svg>
