<svg width="25" height="24" viewBox="0 0 25 24" fill="none" xmlns="http://www.w3.org/2000/svg">
<rect x="0.951172" y="0.900391" width="23.0994" height="23.0994" rx="11.5497" fill="#6000D1"/>
<path fill-rule="evenodd" clip-rule="evenodd" d="M6.5 8.45003C6.5 7.71365 7.09695 7.1167 7.83333 7.1167H17.1667C17.9031 7.1167 18.5 7.71365 18.5 8.45003V13.7834C18.5 14.5198 17.9031 15.1167 17.1667 15.1167H7.83333C7.09695 15.1167 6.5 14.5198 6.5 13.7834V8.45003ZM7.83333 8.45003H17.1667V13.7834H7.83333V8.45003Z" fill="white"/>
<path d="M5.83268 16.4502C5.4645 16.4502 5.16602 16.7487 5.16602 17.1169C5.16602 17.4851 5.4645 17.7835 5.83268 17.7835H19.166C19.5342 17.7835 19.8327 17.4851 19.8327 17.1169C19.8327 16.7487 19.5342 16.4502 19.166 16.4502H5.83268Z" fill="white"/>
</svg>
