<svg width="27" height="27" viewBox="0 0 27 27" fill="none" xmlns="http://www.w3.org/2000/svg">
<path d="M26.2563 12.6125C25.2713 19.5071 23.958 21.1487 18.3767 24.7602C14.1085 23.7753 8.85547 20.1938 8.85547 12.9408C8.85547 5.68782 13.4519 1.12138 17.72 1.44971C22.9731 4.07623 24.2864 6.04614 26.2563 12.6125Z" fill="#DBDBDB" fill-opacity="0.52"/>
<path d="M13.7809 0.464844C6.71262 0.464844 0.976562 6.2009 0.976562 13.2692C0.976562 20.3375 6.71262 26.0736 13.7439 26.0736C20.7752 26.0736 26.5483 20.3375 26.5853 13.2692C26.5483 6.2009 20.8492 0.501851 13.7809 0.464844ZM13.7809 24.9634C7.34174 24.9634 2.08677 19.7084 2.08677 13.2692C2.08677 6.83002 7.34174 1.57505 13.7809 1.57505C20.2201 1.57505 25.4751 6.79301 25.4751 13.2322C25.4381 19.7084 20.2201 24.9264 13.7809 24.9634Z" fill="#C7C7C7"/>
<path d="M17.7408 12.6765C18.777 12.6765 19.6281 11.8253 19.6281 10.7521C19.6281 9.6789 18.777 8.86475 17.7038 8.86475C16.6676 8.86475 15.8164 9.7159 15.8164 10.7891C15.8164 11.8623 16.6676 12.6765 17.7408 12.6765ZM17.7408 10.012C18.1848 10.012 18.5179 10.382 18.5179 10.8261C18.5179 11.2702 18.1478 11.6033 17.7038 11.6033C17.2597 11.6033 16.9266 11.2332 16.9266 10.7891C16.9266 10.345 17.2967 10.012 17.7408 10.012Z" fill="#C7C7C7"/>
<path d="M10.0057 12.6765C11.0419 12.6765 11.9301 11.8253 11.9301 10.7891C11.9301 9.75291 11.0789 8.90175 10.0427 8.86475C9.00651 8.86475 8.11835 9.7159 8.11835 10.7521C8.08134 11.8253 8.9325 12.6765 10.0057 12.6765ZM10.0057 10.012C10.4498 10.012 10.8198 10.382 10.8198 10.7891C10.8198 11.1962 10.4498 11.6033 10.0057 11.6033C9.56162 11.6033 9.22855 11.2332 9.22855 10.7891C9.19155 10.345 9.56162 10.012 10.0057 10.012Z" fill="#C7C7C7"/>
<path d="M13.7816 18.6348C10.9691 18.6348 9.22976 16.7474 8.3786 15.8223L7.56445 16.5624C8.45262 17.5246 10.525 19.708 13.7816 19.708C16.7421 19.708 18.8145 17.6726 19.8137 16.7104L19.0366 15.9333C18.0744 16.8955 16.2981 18.6348 13.7816 18.6348Z" fill="#C7C7C7"/>
</svg>
