<svg width="50" height="50" viewBox="0 0 50 50" fill="none" xmlns="http://www.w3.org/2000/svg">
<path d="M49.8755 24.8254C49.8755 38.5362 38.7608 49.6509 25.05 49.6509C11.3393 49.6509 0.224609 38.5362 0.224609 24.8254C0.224609 11.1147 11.3393 0 25.05 0C38.7608 0 49.8755 11.1147 49.8755 24.8254ZM10.1548 24.8254C10.1548 33.0519 16.8236 39.7207 25.05 39.7207C33.2765 39.7207 39.9453 33.0519 39.9453 24.8254C39.9453 16.599 33.2765 9.93017 25.05 9.93017C16.8236 9.93017 10.1548 16.599 10.1548 24.8254Z" fill="#EEE7F6"/>
<path d="M49.8755 24.8254C49.8755 19.3451 48.062 14.0187 44.7179 9.67692C41.3738 5.33512 36.6869 2.22191 31.3882 0.822722C26.0894 -0.576462 20.4766 -0.182973 15.4249 1.94183C10.3732 4.06664 6.1666 7.80333 3.46097 12.5693C0.755339 17.3352 -0.297211 22.8624 0.467439 28.2892C1.23209 33.716 3.77096 38.7372 7.68817 42.5699C11.6054 46.4027 16.6807 48.8315 22.1229 49.4777C27.565 50.1239 33.068 48.9511 37.7739 46.1423L32.6843 37.6155C29.8608 39.3008 26.559 40.0045 23.2938 39.6168C20.0285 39.2291 16.9832 37.7718 14.6329 35.4721C12.2826 33.1725 10.7593 30.1598 10.3005 26.9037C9.84169 23.6476 10.4732 20.3313 12.0966 17.4717C13.72 14.6122 16.244 12.3702 19.275 11.0953C22.306 9.82039 25.6737 9.5843 28.8529 10.4238C32.0322 11.2633 34.8443 13.1312 36.8508 15.7363C38.8572 18.3414 39.9453 21.5372 39.9453 24.8254H49.8755Z" fill="#9C60E2"/>
<path d="M49.8755 24.8254C49.8755 20.6474 48.821 16.5369 46.8097 12.8748C44.7985 9.21266 41.8955 6.1174 38.3697 3.87573C34.8439 1.63407 30.8094 0.31852 26.6399 0.0509578C22.4704 -0.216604 18.3008 0.572478 14.5174 2.3451C10.734 4.11773 7.45918 6.81655 4.99633 10.1915C2.53348 13.5665 0.962257 17.5085 0.428231 21.6523C-0.105794 25.7961 0.41465 30.0077 1.94135 33.8968C3.46805 37.786 5.95161 41.2269 9.16196 43.9008L15.5172 36.2707C13.591 34.6663 12.1008 32.6018 11.1848 30.2683C10.2688 27.9348 9.95654 25.4079 10.277 22.9216C10.5974 20.4353 11.5401 18.0701 13.0178 16.0451C14.4955 14.0201 16.4604 12.4008 18.7305 11.3372C21.0005 10.2737 23.5022 9.80021 26.0039 9.96075C28.5056 10.1213 30.9263 10.9106 33.0418 12.2556C35.1573 13.6006 36.8991 15.4578 38.1059 17.655C39.3126 19.8523 39.9453 22.3186 39.9453 24.8254H49.8755Z" fill="#E74694"/>
<path d="M49.8755 24.8254C49.8755 21.5653 49.2334 18.3371 47.9858 15.3252C46.7382 12.3132 44.9095 9.57646 42.6043 7.2712C40.299 4.96595 37.5623 3.13732 34.5503 1.88972C31.5384 0.642129 28.3102 -1.42505e-07 25.05 0C21.7899 1.42505e-07 18.5617 0.642129 15.5498 1.88972C12.5378 3.13732 9.80107 4.96595 7.49581 7.2712C5.19056 9.57646 3.36193 12.3132 2.11433 15.3252C0.866738 18.3371 0.224609 21.5653 0.224609 24.8254H10.1548C10.1548 22.8694 10.5401 20.9324 11.2886 19.1253C12.0372 17.3181 13.1344 15.6761 14.5175 14.2929C15.9007 12.9097 17.5427 11.8126 19.3499 11.064C21.1571 10.3155 23.094 9.93017 25.05 9.93017C27.0061 9.93017 28.943 10.3155 30.7502 11.064C32.5574 11.8126 34.1994 12.9097 35.5826 14.2929C36.9657 15.6761 38.0629 17.3181 38.8115 19.1253C39.56 20.9324 39.9453 22.8694 39.9453 24.8254H49.8755Z" fill="#FCBB09"/>
<path d="M49.8755 24.8254C49.8755 21.5653 49.2334 18.3371 47.9858 15.3252C46.7382 12.3132 44.9095 9.57646 42.6043 7.2712C40.299 4.96595 37.5623 3.13732 34.5503 1.88972C31.5384 0.642129 28.3102 -1.42505e-07 25.05 0L25.05 9.93017C27.0061 9.93017 28.943 10.3155 30.7502 11.064C32.5574 11.8126 34.1994 12.9097 35.5826 14.2929C36.9657 15.6761 38.0629 17.3181 38.8115 19.1253C39.56 20.9324 39.9453 22.8694 39.9453 24.8254H49.8755Z" fill="#1CC186"/>
</svg>
