<svg width="10" height="10" viewBox="0 0 10 10" fill="none" xmlns="http://www.w3.org/2000/svg">
<g clip-path="url(#clip0_811_117136)">
<path d="M5.17212 0.989746C2.70092 0.989746 0.695312 2.99536 0.695312 5.46655C0.695312 7.93775 2.70092 9.94336 5.17212 9.94336C7.64332 9.94336 9.64893 7.93775 9.64893 5.46655C9.64893 2.99536 7.64332 0.989746 5.17212 0.989746ZM5.17212 9.048C3.19337 9.048 1.59067 7.4453 1.59067 5.46655C1.59067 3.4878 3.19337 1.88511 5.17212 1.88511C7.15087 1.88511 8.75356 3.4878 8.75356 5.46655C8.75356 7.4453 7.15087 9.048 5.17212 9.048Z" fill="#6000D1"/>
<path d="M5.17212 7.70496C6.40836 7.70496 7.41052 6.70279 7.41052 5.46655C7.41052 4.23032 6.40836 3.22815 5.17212 3.22815C3.93588 3.22815 2.93372 4.23032 2.93372 5.46655C2.93372 6.70279 3.93588 7.70496 5.17212 7.70496Z" fill="#6000D1"/>
</g>
<defs>
<clipPath id="clip0_811_117136">
<rect width="8.95361" height="8.95361" fill="white" transform="translate(0.695312 0.989746)"/>
</clipPath>
</defs>
</svg>
