<svg width="17" height="17" viewBox="0 0 17 17" fill="none" xmlns="http://www.w3.org/2000/svg">
<path d="M3.59766 9.04492H12.1006" stroke="black" stroke-width="0.650226" stroke-miterlimit="10" stroke-linecap="round" stroke-linejoin="round"/>
<path d="M12.1006 7.8803V11.4565C12.0856 12.882 11.6955 13.2422 10.21 13.2422H5.48831C3.97779 13.2422 3.59766 12.867 3.59766 11.3765V7.8803C3.59766 6.52983 3.91277 6.09468 5.09818 6.02465C5.21822 6.01965 5.34826 6.01465 5.48831 6.01465H10.21C11.7205 6.01465 12.1006 6.38978 12.1006 7.8803Z" stroke="black" stroke-width="0.650226" stroke-linecap="round" stroke-linejoin="round"/>
<path d="M13.6006 6.10393V9.60014C13.6006 10.9506 13.2855 11.3858 12.1001 11.4558V7.87955C12.1001 6.38903 11.72 6.0139 10.2094 6.0139H5.48779C5.34774 6.0139 5.2177 6.0189 5.09766 6.0239C5.11266 4.59841 5.5028 4.23828 6.98831 4.23828H11.71C13.2205 4.23828 13.6006 4.61341 13.6006 6.10393Z" stroke="black" stroke-width="0.650226" stroke-linecap="round" stroke-linejoin="round"/>
<path d="M5.22266 11.6465H6.08295M7.15333 11.6465H8.87392" stroke="black" stroke-width="0.650226" stroke-miterlimit="10" stroke-linecap="round" stroke-linejoin="round"/>
</svg>
