<svg width="10" height="9" viewBox="0 0 10 9" fill="none" xmlns="http://www.w3.org/2000/svg">
<g clip-path="url(#clip0_621_9264)">
<path d="M4.29605 6.3912H5.03154V4.18472H4.29605V6.3912ZM4.66379 3.44923C4.76799 3.44923 4.85533 3.41398 4.92581 3.3435C4.9963 3.27302 5.03154 3.18568 5.03154 3.08148C5.03154 2.97729 4.9963 2.88995 4.92581 2.81946C4.85533 2.74898 4.76799 2.71373 4.66379 2.71373C4.5596 2.71373 4.47226 2.74898 4.40177 2.81946C4.33129 2.88995 4.29605 2.97729 4.29605 3.08148C4.29605 3.18568 4.33129 3.27302 4.40177 3.3435C4.47226 3.41398 4.5596 3.44923 4.66379 3.44923ZM4.66379 8.22993C4.15508 8.22993 3.67701 8.1334 3.22958 7.94033C2.78216 7.74727 2.39296 7.48525 2.06199 7.15428C1.73101 6.8233 1.469 6.4341 1.27593 5.98668C1.08286 5.53925 0.986328 5.06118 0.986328 4.55247C0.986328 4.04375 1.08286 3.56568 1.27593 3.11826C1.469 2.67083 1.73101 2.28163 2.06199 1.95066C2.39296 1.61969 2.78216 1.35767 3.22958 1.1646C3.67701 0.971534 4.15508 0.875 4.66379 0.875C5.17251 0.875 5.65058 0.971534 6.098 1.1646C6.54543 1.35767 6.93463 1.61969 7.2656 1.95066C7.59657 2.28163 7.85859 2.67083 8.05165 3.11826C8.24472 3.56568 8.34126 4.04375 8.34126 4.55247C8.34126 5.06118 8.24472 5.53925 8.05165 5.98668C7.85859 6.4341 7.59657 6.8233 7.2656 7.15428C6.93463 7.48525 6.54543 7.74727 6.098 7.94033C5.65058 8.1334 5.17251 8.22993 4.66379 8.22993ZM4.66379 7.49444C5.48509 7.49444 6.18075 7.20944 6.75075 6.63943C7.32076 6.06942 7.60576 5.37377 7.60576 4.55247C7.60576 3.73117 7.32076 3.03551 6.75075 2.4655C6.18075 1.8955 5.48509 1.61049 4.66379 1.61049C3.84249 1.61049 3.14684 1.8955 2.57683 2.4655C2.00682 3.03551 1.72182 3.73117 1.72182 4.55247C1.72182 5.37377 2.00682 6.06942 2.57683 6.63943C3.14684 7.20944 3.84249 7.49444 4.66379 7.49444Z" fill="#1D4AF6"/>
</g>
<defs>
<clipPath id="clip0_621_9264">
<rect width="8.82591" height="8.82592" fill="white" transform="translate(0.25 0.139648)"/>
</clipPath>
</defs>
</svg>
