<svg width="10" height="10" viewBox="0 0 10 10" fill="none" xmlns="http://www.w3.org/2000/svg">
<g clip-path="url(#clip0_803_109112)">
<path d="M5.12436 0.369141C6.34357 0.369141 7.44742 0.863418 8.24648 1.66241C9.04546 2.46147 9.53974 3.56531 9.53974 4.78452C9.53974 6.00373 9.04546 7.10757 8.24648 7.90663C7.44742 8.70562 6.34357 9.1999 5.12436 9.1999C3.90516 9.1999 2.80131 8.70562 2.00225 7.90663C1.20326 7.10757 0.708984 6.00373 0.708984 4.78452C0.708984 3.56531 1.20326 2.46147 2.00225 1.66241C2.80131 0.863418 3.90516 0.369141 5.12436 0.369141ZM7.83978 2.0691C7.1449 1.37422 6.18486 0.944348 5.12436 0.944348C4.06387 0.944348 3.10383 1.37422 2.40894 2.06903C1.71406 2.76398 1.28419 3.72403 1.28419 4.78452C1.28419 5.84501 1.71406 6.80505 2.40887 7.49994C3.10375 8.19475 4.06387 8.62462 5.12429 8.62462C6.18471 8.62462 7.14483 8.19475 7.83971 7.49994C8.53452 6.80505 8.96439 5.84494 8.96439 4.78452C8.96439 3.7241 8.53467 2.76398 7.83978 2.0691Z" fill="black"/>
<path fill-rule="evenodd" clip-rule="evenodd" d="M2.697 7.16584L2.69524 7.15385C2.58156 6.38126 2.97312 5.6545 3.6808 5.32435C3.76158 5.28662 3.84712 5.25285 3.93638 5.22266C4.28686 5.42275 4.69268 5.53716 5.12518 5.53716C5.55768 5.53716 5.9635 5.42275 6.31397 5.22266C6.40324 5.25285 6.48877 5.28662 6.56956 5.32435C7.27723 5.6545 7.66872 6.38126 7.55511 7.15385L7.55336 7.16584C7.54576 7.17359 7.53815 7.18127 7.53055 7.18895C6.89028 7.82922 6.03083 8.18518 5.12525 8.18518C4.21967 8.18518 3.36023 7.82922 2.71995 7.18895C2.71213 7.18134 2.7046 7.17359 2.697 7.16584Z" fill="black"/>
<path fill-rule="evenodd" clip-rule="evenodd" d="M5.12484 1.87695C6.00498 1.87695 6.71843 2.59041 6.71843 3.47054C6.71843 4.35068 6.00498 5.06413 5.12484 5.06413C4.2447 5.06413 3.53125 4.35068 3.53125 3.47054C3.53125 2.59048 4.2447 1.87695 5.12484 1.87695Z" fill="black"/>
</g>
<defs>
<clipPath id="clip0_803_109112">
<rect width="8.83076" height="8.83076" fill="white" transform="translate(0.708984 0.367188)"/>
</clipPath>
</defs>
</svg>
