<svg width="9" height="10" viewBox="0 0 9 10" fill="none" xmlns="http://www.w3.org/2000/svg">
<g clip-path="url(#clip0_621_9011)">
<path d="M6.14931 0.927734H2.79514C1.25166 0.927734 0 2.1794 0 3.72287V7.07704C0 8.62052 1.25166 9.87218 2.79514 9.87218H6.14931C7.69278 9.87218 8.94444 8.62052 8.94444 7.07704V3.72287C8.94444 2.1794 7.69278 0.927734 6.14931 0.927734ZM8.1059 7.07704C8.1059 8.15596 7.22823 9.03364 6.14931 9.03364H2.79514C1.71622 9.03364 0.838542 8.15596 0.838542 7.07704V3.72287C0.838542 2.64395 1.71622 1.76628 2.79514 1.76628H6.14931C7.22823 1.76628 8.1059 2.64395 8.1059 3.72287V7.07704Z" fill="black"/>
<path d="M4.47244 3.16406C3.23755 3.16406 2.23633 4.16528 2.23633 5.40017C2.23633 6.63507 3.23755 7.63628 4.47244 7.63628C5.70733 7.63628 6.70855 6.63507 6.70855 5.40017C6.70855 4.16528 5.70733 3.16406 4.47244 3.16406ZM4.47244 6.79774C3.7021 6.79774 3.07487 6.17051 3.07487 5.40017C3.07487 4.62927 3.7021 4.0026 4.47244 4.0026C5.24278 4.0026 5.87001 4.62927 5.87001 5.40017C5.87001 6.17051 5.24278 6.79774 4.47244 6.79774Z" fill="black"/>
<path d="M6.87609 3.29417C7.04065 3.29417 7.17405 3.16076 7.17405 2.9962C7.17405 2.83164 7.04065 2.69824 6.87609 2.69824C6.71153 2.69824 6.57812 2.83164 6.57812 2.9962C6.57812 3.16076 6.71153 3.29417 6.87609 3.29417Z" fill="black"/>
</g>
<defs>
<clipPath id="clip0_621_9011">
<rect width="8.94444" height="8.94444" fill="white" transform="translate(0 0.927734)"/>
</clipPath>
</defs>
</svg>
