<svg width="8" height="8" viewBox="0 0 8 8" fill="none" xmlns="http://www.w3.org/2000/svg">
<g clip-path="url(#clip0_811_117025)">
<path d="M5.67441 0.397461H3.06294C1.86123 0.397461 0.886719 1.37197 0.886719 2.57369V5.18516C0.886719 6.38687 1.86123 7.36138 3.06294 7.36138H5.67441C6.87613 7.36138 7.85064 6.38687 7.85064 5.18516V2.57369C7.85064 1.37197 6.87613 0.397461 5.67441 0.397461ZM7.19777 5.18516C7.19777 6.02518 6.51444 6.70851 5.67441 6.70851H3.06294C2.22292 6.70851 1.53959 6.02518 1.53959 5.18516V2.57369C1.53959 1.73366 2.22292 1.05033 3.06294 1.05033H5.67441C6.51444 1.05033 7.19777 1.73366 7.19777 2.57369V5.18516Z" fill="#1F053F"/>
<path d="M4.36793 2.13965C3.40648 2.13965 2.62695 2.91917 2.62695 3.88063C2.62695 4.84209 3.40648 5.62161 4.36793 5.62161C5.32939 5.62161 6.10891 4.84209 6.10891 3.88063C6.10891 2.91917 5.32939 2.13965 4.36793 2.13965ZM4.36793 4.96874C3.76817 4.96874 3.27982 4.4804 3.27982 3.88063C3.27982 3.28043 3.76817 2.79252 4.36793 2.79252C4.9677 2.79252 5.45605 3.28043 5.45605 3.88063C5.45605 4.4804 4.9677 4.96874 4.36793 4.96874Z" fill="#1F053F"/>
<path d="M6.2398 2.24229C6.36792 2.24229 6.47178 2.13843 6.47178 2.01031C6.47178 1.88218 6.36792 1.77832 6.2398 1.77832C6.11168 1.77832 6.00781 1.88218 6.00781 2.01031C6.00781 2.13843 6.11168 2.24229 6.2398 2.24229Z" fill="#1F053F"/>
</g>
<defs>
<clipPath id="clip0_811_117025">
<rect width="6.96392" height="6.96392" fill="white" transform="translate(0.886719 0.399414)"/>
</clipPath>
</defs>
</svg>
