<svg width="8" height="7" viewBox="0 0 8 7" fill="none" xmlns="http://www.w3.org/2000/svg">
<g clip-path="url(#clip0_803_109089)">
<path d="M5.67122 0.100586H3.09558C1.91036 0.100586 0.949219 1.06173 0.949219 2.24695V4.82259C0.949219 6.00781 1.91036 6.96895 3.09558 6.96895H5.67122C6.85644 6.96895 7.81759 6.00781 7.81759 4.82259V2.24695C7.81759 1.06173 6.85644 0.100586 5.67122 0.100586ZM7.17368 4.82259C7.17368 5.65109 6.49972 6.32504 5.67122 6.32504H3.09558C2.26709 6.32504 1.59313 5.65109 1.59313 4.82259V2.24695C1.59313 1.41845 2.26709 0.744495 3.09558 0.744495H5.67122C6.49972 0.744495 7.17368 1.41845 7.17368 2.24695V4.82259Z" fill="black"/>
<path d="M4.38506 1.81787C3.4368 1.81787 2.66797 2.5867 2.66797 3.53496C2.66797 4.48323 3.4368 5.25205 4.38506 5.25205C5.33332 5.25205 6.10215 4.48323 6.10215 3.53496C6.10215 2.5867 5.33332 1.81787 4.38506 1.81787ZM4.38506 4.60815C3.79352 4.60815 3.31188 4.1265 3.31188 3.53496C3.31188 2.943 3.79352 2.46178 4.38506 2.46178C4.9766 2.46178 5.45824 2.943 5.45824 3.53496C5.45824 4.1265 4.9766 4.60815 4.38506 4.60815Z" fill="black"/>
<path d="M6.2288 1.92343C6.35517 1.92343 6.45761 1.82099 6.45761 1.69462C6.45761 1.56826 6.35517 1.46582 6.2288 1.46582C6.10244 1.46582 6 1.56826 6 1.69462C6 1.82099 6.10244 1.92343 6.2288 1.92343Z" fill="black"/>
</g>
<defs>
<clipPath id="clip0_803_109089">
<rect width="6.86837" height="6.86837" fill="white" transform="translate(0.949219 0.103027)"/>
</clipPath>
</defs>
</svg>
