<svg width="78" height="15" viewBox="0 0 78 15" fill="none" xmlns="http://www.w3.org/2000/svg">
<path d="M77.3409 11.9221H73.9244C72.9387 11.9221 72.1399 11.1236 72.1399 10.1386V0.897739C72.1399 0.895954 72.1383 0.894531 72.1363 0.894531H69.0345C69.0327 0.894531 69.0312 0.895954 69.0312 0.897739V10.4587C69.0312 12.8096 70.9383 14.7155 73.2906 14.7155H77.3407C77.3425 14.7155 77.3439 14.7139 77.3439 14.7122V11.9253C77.3439 11.9237 77.3425 11.9221 77.3409 11.9221Z" fill="#6000D1"/>
<path d="M43.5819 0.895508H33.6829C33.6811 0.895508 33.6797 0.896936 33.6797 0.898721V3.47467V3.68558V6.00815H33.6829C33.6811 6.00815 33.6797 6.00958 33.6797 6.01155V14.7131C33.6797 14.7149 33.6811 14.7163 33.6829 14.7163H43.5819C46.5236 14.7163 48.9084 12.3331 48.9084 9.39296V6.21889C48.9084 3.27875 46.5236 0.895508 43.5819 0.895508ZM45.798 9.7031C45.798 10.9284 44.8048 11.9231 43.5767 11.9231H36.7937C36.7919 11.9231 36.7905 11.9213 36.7905 11.9195V6.01136C36.7905 6.0094 36.789 6.00797 36.7872 6.00797V3.6888H43.5767C44.805 3.6888 45.798 4.68146 45.798 5.90662V9.7031Z" fill="#6000D1"/>
<path d="M10.2655 0.89502H0.589327C0.587541 0.89502 0.585938 0.896448 0.585938 0.898232V3.6851C0.585938 3.68688 0.587541 3.68831 0.589327 3.68831H9.60385C10.2928 3.68831 10.8513 4.24665 10.8513 4.93524V5.68576C10.8513 6.37435 10.2928 6.93251 9.60385 6.93251H3.56548C1.92002 6.93251 0.585938 8.26564 0.585938 9.91013V14.7126C0.585938 14.7144 0.587541 14.7159 0.589327 14.7159H3.69117C3.69296 14.7159 3.69439 14.7144 3.69439 14.7126V10.5126C3.69439 10.0781 4.04683 9.72599 4.48159 9.72599H10.2655C12.3058 9.72599 13.9598 8.07292 13.9598 6.03389V4.58711C13.9598 2.54808 12.3058 0.89502 10.2655 0.89502Z" fill="#6000D1"/>
<path d="M27.4745 0.89502H20.7245C18.0937 0.89502 15.9609 3.02648 15.9609 5.65578V9.9551C15.9609 12.5844 18.0937 14.716 20.7245 14.716H30.2572C30.2589 14.716 30.2604 14.7144 30.2604 14.7126V11.9256C30.2604 11.9238 30.2589 11.9224 30.2572 11.9224H20.987C19.9278 11.9224 19.0694 11.0645 19.0694 10.0061V9.72259H21.0323C21.0323 9.72438 21.0337 9.72598 21.0355 9.72598H27.4745C29.5251 9.72598 31.1876 8.06436 31.1876 6.01516V4.60602C31.1876 2.55611 29.5251 0.89502 27.4745 0.89502ZM28.0791 5.60671C28.0791 6.33885 27.4853 6.93233 26.7527 6.93233H21.0355C21.0337 6.93233 21.0323 6.93376 21.0323 6.93555H19.0694V5.60457C19.0694 4.54607 19.9278 3.68813 20.987 3.68813H26.7527C27.4853 3.68813 28.0791 4.28162 28.0791 5.01376V5.60671Z" fill="#6000D1"/>
<path d="M61.2539 0.894531H52.2594C52.2576 0.894531 52.2561 0.89596 52.2561 0.897744V3.68479C52.2561 3.68657 52.2576 3.688 52.2594 3.688H60.9916C62.0505 3.688 62.9092 4.54594 62.9092 5.60426V6.47754H60.9429H54.504C52.4534 6.47754 50.791 8.13917 50.791 10.1884V11.0045C50.791 13.0541 52.4534 14.7155 54.504 14.7155H61.2539C63.8847 14.7155 66.0176 12.5839 66.0176 9.95479V5.6553C66.0176 3.02599 63.8847 0.894531 61.2539 0.894531ZM60.9916 11.9219H55.2257C54.4933 11.9219 53.8995 11.3286 53.8995 10.5963C53.8995 9.86432 54.4933 9.27083 55.2257 9.27083H60.9429C60.9448 9.27083 60.9462 9.26941 60.9462 9.26727H62.9092V10.0055C62.9092 11.0641 62.0505 11.9219 60.9916 11.9219Z" fill="#6000D1"/>
<path d="M75.8382 3.43674L75.5099 2.8734H75.2674V3.43674H74.9473V1.81348H75.597C75.7471 1.81348 75.8748 1.86611 75.98 1.97121C76.0851 2.07631 76.1378 2.20319 76.1378 2.35147C76.1378 2.45211 76.109 2.54526 76.0521 2.63109C75.9948 2.71674 75.9189 2.78133 75.8246 2.82451L76.1844 3.43674H75.8382ZM75.2672 2.11254V2.59254H75.5968C75.6572 2.59254 75.7089 2.56899 75.7522 2.52188C75.7955 2.47459 75.8171 2.41785 75.8171 2.35129C75.8171 2.28491 75.7955 2.22852 75.7522 2.18213C75.7089 2.13573 75.6572 2.11254 75.5968 2.11254H75.2672Z" fill="#6000D1"/>
<path d="M75.4613 4.37C74.5025 4.37 73.7227 3.59039 73.7227 2.63217C73.7227 1.67413 74.5025 0.894531 75.4613 0.894531C76.4201 0.894531 77.2 1.67413 77.2 2.63217C77.2 3.59039 76.4201 4.37 75.4613 4.37ZM75.4613 1.26283C74.7057 1.26283 74.091 1.8772 74.091 2.63217C74.091 3.38733 74.7055 4.00169 75.4613 4.00169C76.2167 4.00169 76.8317 3.38733 76.8317 2.63217C76.8317 1.8772 76.2167 1.26283 75.4613 1.26283Z" fill="#6000D1"/>
</svg>
