<svg width="134" height="24" viewBox="0 0 134 24" fill="none" xmlns="http://www.w3.org/2000/svg">
<path d="M133.195 19.1477H127.267C125.556 19.1477 124.17 17.7612 124.17 16.0509V0.00556921C124.17 0.00247088 124.167 0 124.164 0H118.781C118.778 0 118.775 0.00247088 118.775 0.00556921V16.6068C118.775 20.6888 122.085 23.9981 126.167 23.9981H133.195C133.198 23.9981 133.201 23.9954 133.201 23.9923V19.1533C133.201 19.1505 133.198 19.1477 133.195 19.1477Z" fill="#6000D1"/>
<path d="M74.6134 0.00219727H57.4353C57.4322 0.00219727 57.4297 0.0046776 57.4297 0.00777593V4.48052V4.84675V8.87954H57.4353C57.4322 8.87954 57.4297 8.88203 57.4297 8.88544V23.9945C57.4297 23.9976 57.4322 24 57.4353 24H74.6134C79.7182 24 83.8566 19.8619 83.8566 14.7568V9.24546C83.8566 4.14034 79.7182 0.00219727 74.6134 0.00219727ZM78.459 15.2953C78.459 17.4229 76.7354 19.1499 74.6044 19.1499H62.8335C62.8304 19.1499 62.8279 19.1468 62.8279 19.1437V8.88512C62.8279 8.88171 62.8254 8.87924 62.8223 8.87924V4.85233H74.6044C76.7357 4.85233 78.459 6.57594 78.459 8.70325V15.2953Z" fill="#6000D1"/>
<path d="M16.7973 0.000244141H0.00588124C0.0027829 0.000244141 0 0.00272447 0 0.00582281V4.84481C0 4.8479 0.0027829 4.85038 0.00588124 4.85038H15.6491C16.8447 4.85038 17.8139 5.81985 17.8139 7.01549V8.31865C17.8139 9.5143 16.8447 10.4835 15.6491 10.4835H5.1705C2.31507 10.4835 0 12.7982 0 15.6537V23.9925C0 23.9956 0.0027829 23.9981 0.00588124 23.9981H5.38861C5.39171 23.9981 5.39419 23.9956 5.39419 23.9925V16.6997C5.39419 15.9452 6.0058 15.3339 6.76025 15.3339H16.7973C20.3378 15.3339 23.2081 12.4636 23.2081 8.92313V6.41101C23.2081 2.87054 20.3378 0.000244141 16.7973 0.000244141Z" fill="#6000D1"/>
<path d="M46.6616 0.000488281H34.948C30.3826 0.000488281 26.6816 3.70145 26.6816 8.26684V15.732C26.6816 20.2974 30.3826 23.9986 34.948 23.9986H51.4903C51.4934 23.9986 51.4959 23.9958 51.4959 23.9927V19.1535C51.4959 19.1504 51.4934 19.1479 51.4903 19.1479H35.4035C33.5655 19.1479 32.0759 17.6582 32.0759 15.8206V15.3283H35.4822C35.4822 15.3314 35.4846 15.3341 35.4877 15.3341H46.6616C50.22 15.3341 53.1049 12.449 53.1049 8.89086V6.44409C53.1049 2.88473 50.22 0.000488281 46.6616 0.000488281ZM47.7107 8.18165C47.7107 9.4529 46.6802 10.4834 45.4089 10.4834H35.4877C35.4846 10.4834 35.4822 10.4859 35.4822 10.489H32.0759V8.17793C32.0759 6.33999 33.5655 4.85032 35.4035 4.85032H45.4089C46.6802 4.85032 47.7107 5.88083 47.7107 7.15207V8.18165Z" fill="#6000D1"/>
<path d="M105.28 0.000244141H89.6711C89.668 0.000244141 89.6655 0.00272447 89.6655 0.00582281V4.84511C89.6655 4.84821 89.668 4.85069 89.6711 4.85069H104.824C106.662 4.85069 108.152 6.34037 108.152 8.17799V9.69431H104.74H93.5663C90.0079 9.69431 87.123 12.5795 87.123 16.1376V17.5548C87.123 21.1135 90.0079 23.9984 93.5663 23.9984H105.28C109.845 23.9984 113.546 20.2971 113.546 15.732V8.26661C113.546 3.70121 109.845 0.000244141 105.28 0.000244141ZM104.824 19.1476H94.8187C93.5478 19.1476 92.5172 18.1175 92.5172 16.8459C92.5172 15.575 93.5478 14.5444 94.8187 14.5444H104.74C104.743 14.5444 104.746 14.542 104.746 14.5383H108.152V15.82C108.152 17.6583 106.662 19.1476 104.824 19.1476Z" fill="#6000D1"/>
<path d="M130.587 4.41451L130.017 3.43635H129.597V4.41451H129.041V1.59595H130.169C130.429 1.59595 130.651 1.68734 130.833 1.86983C131.016 2.05232 131.107 2.27262 131.107 2.53009C131.107 2.70484 131.057 2.86657 130.958 3.0156C130.859 3.16432 130.727 3.27648 130.564 3.35146L131.188 4.41451H130.587ZM129.596 2.11523V2.94868H130.168C130.273 2.94868 130.363 2.90778 130.438 2.82599C130.513 2.74388 130.551 2.64535 130.551 2.52978C130.551 2.41452 130.513 2.31661 130.438 2.23606C130.363 2.1555 130.273 2.11523 130.168 2.11523H129.596Z" fill="#6000D1"/>
<path d="M129.935 6.03488C128.271 6.03488 126.918 4.68121 126.918 3.0174C126.918 1.35391 128.271 0.000244141 129.935 0.000244141C131.599 0.000244141 132.952 1.35391 132.952 3.0174C132.952 4.68121 131.599 6.03488 129.935 6.03488ZM129.935 0.639748C128.624 0.639748 127.557 1.7065 127.557 3.0174C127.557 4.32862 128.624 5.39537 129.935 5.39537C131.246 5.39537 132.313 4.32862 132.313 3.0174C132.313 1.7065 131.246 0.639748 129.935 0.639748Z" fill="#6000D1"/>
</svg>
