<svg width="77" height="13" viewBox="0 0 77 13" fill="none" xmlns="http://www.w3.org/2000/svg">
<path d="M76.407 10.0825H73.0196C72.0422 10.0825 71.2502 9.36409 71.2502 8.47791V0.164018C71.2502 0.162413 71.2486 0.161133 71.2466 0.161133H68.1712C68.1694 0.161133 68.168 0.162413 68.168 0.164018V8.76592C68.168 10.881 70.0588 12.5958 72.3911 12.5958H76.4068C76.4086 12.5958 76.41 12.5943 76.41 12.5927V10.0854C76.41 10.084 76.4086 10.0825 76.407 10.0825Z" fill="#6000D1"/>
<path d="M42.9353 0.162109H33.1204C33.1186 0.162109 33.1172 0.163395 33.1172 0.165V2.48255V2.67231V4.7619H33.1204C33.1186 4.7619 33.1172 4.76319 33.1172 4.76496V12.5937C33.1172 12.5953 33.1186 12.5966 33.1204 12.5966H42.9353C45.852 12.5966 48.2165 10.4524 48.2165 7.80719V4.95151C48.2165 2.30629 45.852 0.162109 42.9353 0.162109ZM45.1325 8.08621C45.1325 9.18864 44.1477 10.0835 42.9301 10.0835H36.2047C36.2029 10.0835 36.2015 10.0819 36.2015 10.0803V4.76479C36.2015 4.76303 36.2001 4.76175 36.1983 4.76175V2.6752H42.9301C44.1479 2.6752 45.1325 3.56829 45.1325 4.67056V8.08621Z" fill="#6000D1"/>
<path d="M9.90202 0.161621H0.308048C0.306278 0.161621 0.304688 0.162906 0.304688 0.164512V2.67183C0.304688 2.67344 0.306278 2.67472 0.308048 2.67472H9.24596C9.9291 2.67472 10.4828 3.17705 10.4828 3.79657V4.4718C10.4828 5.09133 9.9291 5.5935 9.24596 5.5935H3.25891C1.62743 5.5935 0.304688 6.79289 0.304688 8.27243V12.5932C0.304688 12.5948 0.306278 12.5961 0.308048 12.5961H3.38353C3.3853 12.5961 3.38672 12.5948 3.38672 12.5932V8.81442C3.38672 8.42351 3.73617 8.10676 4.16723 8.10676H9.90202C11.9249 8.10676 13.5649 6.61951 13.5649 4.78501V3.48336C13.5649 1.64887 11.9249 0.161621 9.90202 0.161621Z" fill="#6000D1"/>
<path d="M26.9665 0.161133H20.2739C17.6654 0.161133 15.5508 2.07878 15.5508 4.44434V8.3124C15.5508 10.678 17.6654 12.5958 20.2739 12.5958H29.7255C29.7273 12.5958 29.7287 12.5943 29.7287 12.5927V10.0852C29.7287 10.0836 29.7273 10.0824 29.7255 10.0824H20.5341C19.484 10.0824 18.6328 9.31048 18.6328 8.35831V8.10322H20.5791C20.5791 8.10482 20.5805 8.10626 20.5822 8.10626H26.9665C28.9997 8.10626 30.648 6.61132 30.648 4.76768V3.49989C30.648 1.6556 28.9997 0.161133 26.9665 0.161133ZM27.5659 4.4002C27.5659 5.0589 26.9772 5.59285 26.2508 5.59285H20.5822C20.5805 5.59285 20.5791 5.59413 20.5791 5.59574H18.6328V4.39827C18.6328 3.44595 19.484 2.67407 20.5341 2.67407H26.2508C26.9772 2.67407 27.5659 3.20803 27.5659 3.86673V4.4002Z" fill="#6000D1"/>
<path d="M60.4579 0.161133H51.5399C51.5381 0.161133 51.5367 0.162418 51.5367 0.164023V2.6715C51.5367 2.6731 51.5381 2.67439 51.5399 2.67439H60.1979C61.2478 2.67439 62.0991 3.44627 62.0991 4.39843V5.18411H60.1495H53.7654C51.7323 5.18411 50.084 6.67907 50.084 8.52271V9.25702C50.084 11.101 51.7323 12.5958 53.7654 12.5958H60.4579C63.0664 12.5958 65.1812 10.678 65.1812 8.31256V4.44435C65.1812 2.07879 63.0664 0.161133 60.4579 0.161133ZM60.1979 10.0824H54.481C53.7548 10.0824 53.166 9.54856 53.166 8.88971C53.166 8.23117 53.7548 7.69721 54.481 7.69721H60.1495C60.1515 7.69721 60.1529 7.69593 60.1529 7.694H62.0991V8.35815C62.0991 9.31064 61.2478 10.0824 60.1979 10.0824Z" fill="#6000D1"/>
<path d="M74.9166 2.44872L74.591 1.94189H74.3506V2.44872H74.0332V0.988281H74.6774C74.8263 0.988281 74.9529 1.03564 75.0571 1.13019C75.1614 1.22475 75.2136 1.3389 75.2136 1.47231C75.2136 1.56285 75.1851 1.64666 75.1286 1.72388C75.0718 1.80094 74.9966 1.85905 74.9031 1.8979L75.2598 2.44872H74.9166ZM74.3504 1.25735V1.6892H74.6772C74.7371 1.6892 74.7884 1.66801 74.8312 1.62563C74.8743 1.58308 74.8957 1.53203 74.8957 1.47215C74.8957 1.41242 74.8743 1.36169 74.8312 1.31995C74.7884 1.27821 74.7371 1.25735 74.6772 1.25735H74.3504Z" fill="#6000D1"/>
<path d="M74.5442 3.28798C73.5936 3.28798 72.8203 2.58657 72.8203 1.72447C72.8203 0.862534 73.5936 0.161133 74.5442 0.161133C75.4948 0.161133 76.2681 0.862534 76.2681 1.72447C76.2681 2.58657 75.4948 3.28798 74.5442 3.28798ZM74.5442 0.492492C73.795 0.492492 73.1855 1.04523 73.1855 1.72447C73.1855 2.40388 73.7949 2.95662 74.5442 2.95662C75.2932 2.95662 75.9029 2.40388 75.9029 1.72447C75.9029 1.04523 75.2932 0.492492 74.5442 0.492492Z" fill="#6000D1"/>
</svg>
