<svg width="100" height="19" viewBox="0 0 100 19" fill="none" xmlns="http://www.w3.org/2000/svg">
<path d="M99.897 14.4135H95.4505C94.1676 14.4135 93.1279 13.3737 93.1279 12.0909V0.0569113C93.1279 0.0545875 93.1258 0.0527344 93.1233 0.0527344H89.0862C89.0839 0.0527344 89.082 0.0545875 89.082 0.0569113V12.5078C89.082 15.5694 91.5641 18.0514 94.6256 18.0514H99.8968C99.8991 18.0514 99.901 18.0493 99.901 18.047V14.4177C99.901 14.4156 99.8991 14.4135 99.897 14.4135Z" fill="#6000D1"/>
<path d="M55.96 0.0541992H43.0764C43.0741 0.0541992 43.0723 0.0560595 43.0723 0.0583832V3.41295V3.68762V6.71222H43.0764C43.0741 6.71222 43.0723 6.71409 43.0723 6.71664V18.0484C43.0723 18.0507 43.0741 18.0526 43.0764 18.0526H55.96C59.7887 18.0526 62.8925 14.949 62.8925 11.1201V6.98666C62.8925 3.15781 59.7887 0.0541992 55.96 0.0541992ZM58.8443 11.524C58.8443 13.1197 57.5516 14.415 55.9533 14.415H47.1251C47.1228 14.415 47.1209 14.4127 47.1209 14.4104V6.7164C47.1209 6.71385 47.1191 6.71199 47.1168 6.71199V3.6918H55.9533C57.5518 3.6918 58.8443 4.98451 58.8443 6.58V11.524Z" fill="#6000D1"/>
<path d="M12.598 0.0532227H0.00441094C0.00208718 0.0532227 0 0.0550829 0 0.0574067V3.68665C0 3.68897 0.00208718 3.69083 0.00441094 3.69083H11.7368C12.6336 3.69083 13.3604 4.41793 13.3604 5.31467V6.29204C13.3604 7.18878 12.6336 7.91565 11.7368 7.91565H3.87788C1.73631 7.91565 0 9.65173 0 11.7933V18.0475C0 18.0498 0.00208718 18.0516 0.00441094 18.0516H4.04147C4.04379 18.0516 4.04565 18.0498 4.04565 18.0475V12.5778C4.04565 12.012 4.50436 11.5535 5.07019 11.5535H12.598C15.2534 11.5535 17.4061 9.40076 17.4061 6.7454V4.86131C17.4061 2.20595 15.2534 0.0532227 12.598 0.0532227Z" fill="#6000D1"/>
<path d="M34.9967 0.0532227H26.2115C22.7875 0.0532227 20.0117 2.82895 20.0117 6.253V11.8519C20.0117 15.2759 22.7875 18.0519 26.2115 18.0519H38.6183C38.6206 18.0519 38.6224 18.0498 38.6224 18.0474V14.418C38.6224 14.4157 38.6206 14.4138 38.6183 14.4138H26.5531C25.1746 14.4138 24.0574 13.2965 24.0574 11.9183V11.5491H26.6121C26.6121 11.5514 26.614 11.5535 26.6163 11.5535H34.9967C37.6655 11.5535 39.8292 9.38961 39.8292 6.72101V4.88594C39.8292 2.21641 37.6655 0.0532227 34.9967 0.0532227ZM35.7835 6.18911C35.7835 7.14254 35.0106 7.91541 34.0572 7.91541H26.6163C26.614 7.91541 26.6121 7.91727 26.6121 7.9196H24.0574V6.18631C24.0574 4.80786 25.1746 3.6906 26.5531 3.6906H34.0572C35.0106 3.6906 35.7835 4.46348 35.7835 5.41692V6.18911Z" fill="#6000D1"/>
<path d="M78.9592 0.0527344H67.2529C67.2505 0.0527344 67.2487 0.0545946 67.2487 0.0569184V3.68639C67.2487 3.68871 67.2505 3.69057 67.2529 3.69057H78.6179C79.9961 3.69057 81.1136 4.80784 81.1136 6.18606V7.3233H78.5544H70.1743C67.5055 7.3233 65.3418 9.48718 65.3418 12.1558V13.2187C65.3418 15.8877 67.5055 18.0514 70.1743 18.0514H78.9592C82.3833 18.0514 85.1592 15.2754 85.1592 11.8516V6.25252C85.1592 2.82847 82.3833 0.0527344 78.9592 0.0527344ZM78.6179 14.4133H71.1135C70.1603 14.4133 69.3874 13.6407 69.3874 12.687C69.3874 11.7338 70.1603 10.9609 71.1135 10.9609H78.5544C78.557 10.9609 78.5588 10.9591 78.5588 10.9563H81.1136V11.9176C81.1136 13.2963 79.9961 14.4133 78.6179 14.4133Z" fill="#6000D1"/>
<path d="M97.9408 3.36344L97.5135 2.62982H97.1979V3.36344H96.7812V1.24951H97.6269C97.8223 1.24951 97.9885 1.31806 98.1253 1.45493C98.2622 1.59179 98.3307 1.75702 98.3307 1.95012C98.3307 2.08118 98.2933 2.20248 98.2192 2.31426C98.1446 2.4258 98.0459 2.50991 97.9232 2.56615L98.3914 3.36344H97.9408ZM97.1977 1.63897V2.26406H97.6266C97.7052 2.26406 97.7726 2.23339 97.8288 2.17204C97.8853 2.11046 97.9134 2.03656 97.9134 1.94989C97.9134 1.86344 97.8853 1.79001 97.8288 1.72959C97.7726 1.66918 97.7052 1.63897 97.6266 1.63897H97.1977Z" fill="#6000D1"/>
<path d="M97.4523 4.57872C96.2045 4.57872 95.1895 3.56347 95.1895 2.31561C95.1895 1.06798 96.2045 0.0527344 97.4523 0.0527344C98.7002 0.0527344 99.7152 1.06798 99.7152 2.31561C99.7152 3.56347 98.7002 4.57872 97.4523 4.57872ZM97.4523 0.532363C96.4689 0.532363 95.6688 1.33243 95.6688 2.31561C95.6688 3.29902 96.4687 4.09909 97.4523 4.09909C98.4355 4.09909 99.2358 3.29902 99.2358 2.31561C99.2358 1.33243 98.4355 0.532363 97.4523 0.532363Z" fill="#6000D1"/>
</svg>
