<svg width="105" height="17" viewBox="0 0 105 17" fill="none" xmlns="http://www.w3.org/2000/svg">
<path d="M104.639 13.5052H99.9813C98.6375 13.5052 97.5485 12.5272 97.5485 11.321V0.00392805C97.5485 0.00174275 97.5463 0 97.5436 0H93.3149C93.3125 0 93.3105 0.00174275 93.3105 0.00392805V11.713C93.3105 14.5921 95.9104 16.9263 99.1172 16.9263H104.639C104.641 16.9263 104.643 16.9243 104.643 16.9221V13.5091C104.643 13.5071 104.641 13.5052 104.639 13.5052Z" fill="#6000D1"/>
<path d="M58.6147 0.00146484H45.1196C45.1172 0.00146484 45.1152 0.00321426 45.1152 0.00539956V3.1601V3.4184V6.26279H45.1196C45.1172 6.26279 45.1152 6.26455 45.1152 6.26695V16.9236C45.1152 16.9258 45.1172 16.9275 45.1196 16.9275H58.6147C62.625 16.9275 65.8762 14.0088 65.8762 10.4081V6.52088C65.8762 2.92016 62.625 0.00146484 58.6147 0.00146484ZM61.6358 10.7879C61.6358 12.2886 60.2818 13.5066 58.6076 13.5066H49.3605C49.358 13.5066 49.3561 13.5045 49.3561 13.5023V6.26672C49.3561 6.26432 49.3541 6.26258 49.3517 6.26258V3.42234H58.6076C60.282 3.42234 61.6358 4.63802 61.6358 6.13845V10.7879Z" fill="#6000D1"/>
<path d="M13.1959 0.000488281H0.00462029C0.00218625 0.000488281 0 0.0022377 0 0.004423V3.41743C0 3.41962 0.00218625 3.42137 0.00462029 3.42137H12.2939C13.2332 3.42137 13.9946 4.10514 13.9946 4.94845V5.86759C13.9946 6.7109 13.2332 7.39446 12.2939 7.39446H4.06194C1.81872 7.39446 0 9.0271 0 11.0411V16.9226C0 16.9248 0.00218625 16.9265 0.00462029 16.9265H4.23329C4.23572 16.9265 4.23767 16.9248 4.23767 16.9226V11.7788C4.23767 11.2467 4.71815 10.8156 5.31084 10.8156H13.1959C15.9773 10.8156 18.2322 8.79108 18.2322 6.29394V4.5221C18.2322 2.02495 15.9773 0.000488281 13.1959 0.000488281Z" fill="#6000D1"/>
<path d="M36.6571 0.000488281H27.455C23.8684 0.000488281 20.9609 2.61083 20.9609 5.83087V11.0961C20.9609 14.3162 23.8684 16.9268 27.455 16.9268H40.4506C40.453 16.9268 40.455 16.9248 40.455 16.9226V13.5094C40.455 13.5072 40.453 13.5054 40.4506 13.5054H27.8128C26.3689 13.5054 25.1986 12.4547 25.1986 11.1586V10.8114H27.8746C27.8746 10.8136 27.8766 10.8155 27.879 10.8155H36.6571C39.4526 10.8155 41.719 8.7806 41.719 6.271V4.54526C41.719 2.03479 39.4526 0.000488281 36.6571 0.000488281ZM37.4813 5.77079C37.4813 6.66742 36.6718 7.39424 35.6731 7.39424H27.879C27.8766 7.39424 27.8746 7.39599 27.8746 7.39817H25.1986V5.76816C25.1986 4.47184 26.3689 3.42115 27.8128 3.42115H35.6731C36.6718 3.42115 37.4813 4.14798 37.4813 5.04461V5.77079Z" fill="#6000D1"/>
<path d="M82.7071 0H70.4451C70.4427 0 70.4407 0.00174942 70.4407 0.00393472V3.41716C70.4407 3.41934 70.4427 3.42109 70.4451 3.42109H82.3495C83.7932 3.42109 84.9637 4.47179 84.9637 5.76789V6.83737H82.2831H73.5052C70.7097 6.83737 68.4434 8.87233 68.4434 11.3819V12.3815C68.4434 14.8915 70.7097 16.9263 73.5052 16.9263H82.7071C86.2937 16.9263 89.2014 14.3157 89.2014 11.0959V5.83039C89.2014 2.61035 86.2937 0 82.7071 0ZM82.3495 13.5049H74.489C73.4906 13.5049 72.681 12.7783 72.681 11.8815C72.681 10.9851 73.4906 10.2582 74.489 10.2582H82.2831C82.2858 10.2582 82.2877 10.2565 82.2877 10.2539H84.9637V11.1579C84.9637 12.4545 83.7932 13.5049 82.3495 13.5049Z" fill="#6000D1"/>
<path d="M102.588 3.11346L102.14 2.42355H101.809V3.11346H101.373V1.12549H102.259C102.464 1.12549 102.638 1.18995 102.781 1.31866C102.924 1.44738 102.996 1.60275 102.996 1.78435C102.996 1.9076 102.957 2.02168 102.879 2.12679C102.801 2.23169 102.698 2.31079 102.569 2.36368L103.06 3.11346H102.588ZM101.809 1.49174V2.07959H102.259C102.341 2.07959 102.411 2.05075 102.47 1.99305C102.529 1.93514 102.559 1.86565 102.559 1.78413C102.559 1.70284 102.529 1.63379 102.47 1.57697C102.411 1.52015 102.341 1.49174 102.259 1.49174H101.809Z" fill="#6000D1"/>
<path d="M102.077 4.25632C100.77 4.25632 99.707 3.30156 99.707 2.12805C99.707 0.95476 100.77 0 102.077 0C103.384 0 104.448 0.95476 104.448 2.12805C104.448 3.30156 103.384 4.25632 102.077 4.25632ZM102.077 0.451052C101.047 0.451052 100.209 1.20345 100.209 2.12805C100.209 3.05287 101.047 3.80527 102.077 3.80527C103.107 3.80527 103.945 3.05287 103.945 2.12805C103.945 1.20345 103.107 0.451052 102.077 0.451052Z" fill="#6000D1"/>
</svg>
