<svg width="20" height="19" viewBox="0 0 20 19" fill="none" xmlns="http://www.w3.org/2000/svg">
<path d="M9.85774 10.3165C10.2818 10.3165 10.6256 9.97275 10.6256 9.54865C10.6256 9.12456 10.2818 8.78076 9.85774 8.78076C9.43364 8.78076 9.08984 9.12456 9.08984 9.54865C9.08984 9.97275 9.43364 10.3165 9.85774 10.3165Z" stroke="#666666" stroke-width="1.53578" stroke-linecap="round" stroke-linejoin="round"/>
<path d="M15.2347 10.3165C15.6588 10.3165 16.0026 9.97275 16.0026 9.54865C16.0026 9.12456 15.6588 8.78076 15.2347 8.78076C14.8106 8.78076 14.4668 9.12456 14.4668 9.54865C14.4668 9.97275 14.8106 10.3165 15.2347 10.3165Z" stroke="#666666" stroke-width="1.53578" stroke-linecap="round" stroke-linejoin="round"/>
<path d="M4.48274 10.3165C4.90683 10.3165 5.25063 9.97275 5.25063 9.54865C5.25063 9.12456 4.90683 8.78076 4.48274 8.78076C4.05864 8.78076 3.71484 9.12456 3.71484 9.54865C3.71484 9.97275 4.05864 10.3165 4.48274 10.3165Z" stroke="#666666" stroke-width="1.53578" stroke-linecap="round" stroke-linejoin="round"/>
</svg>
