<svg width="20" height="19" viewBox="0 0 20 19" fill="none" xmlns="http://www.w3.org/2000/svg">
<path d="M10.057 10.3165C10.481 10.3165 10.8248 9.97275 10.8248 9.54865C10.8248 9.12456 10.481 8.78076 10.057 8.78076C9.63286 8.78076 9.28906 9.12456 9.28906 9.54865C9.28906 9.97275 9.63286 10.3165 10.057 10.3165Z" stroke="#666666" stroke-width="1.53578" stroke-linecap="round" stroke-linejoin="round"/>
<path d="M15.432 10.3165C15.856 10.3165 16.1998 9.97275 16.1998 9.54865C16.1998 9.12456 15.856 8.78076 15.432 8.78076C15.0079 8.78076 14.6641 9.12456 14.6641 9.54865C14.6641 9.97275 15.0079 10.3165 15.432 10.3165Z" stroke="#666666" stroke-width="1.53578" stroke-linecap="round" stroke-linejoin="round"/>
<path d="M4.68195 10.3165C5.10605 10.3165 5.44985 9.97275 5.44985 9.54865C5.44985 9.12456 5.10605 8.78076 4.68195 8.78076C4.25786 8.78076 3.91406 9.12456 3.91406 9.54865C3.91406 9.97275 4.25786 10.3165 4.68195 10.3165Z" stroke="#666666" stroke-width="1.53578" stroke-linecap="round" stroke-linejoin="round"/>
</svg>
