<svg width="19" height="20" viewBox="0 0 19 20" fill="none" xmlns="http://www.w3.org/2000/svg">
<path d="M9.6761 10.8776C10.1002 10.8776 10.444 10.5338 10.444 10.1097C10.444 9.68559 10.1002 9.3418 9.6761 9.3418C9.252 9.3418 8.9082 9.68559 8.9082 10.1097C8.9082 10.5338 9.252 10.8776 9.6761 10.8776Z" stroke="#666666" stroke-width="1.53578" stroke-linecap="round" stroke-linejoin="round"/>
<path d="M15.0511 10.8776C15.4752 10.8776 15.819 10.5338 15.819 10.1097C15.819 9.68559 15.4752 9.3418 15.0511 9.3418C14.627 9.3418 14.2832 9.68559 14.2832 10.1097C14.2832 10.5338 14.627 10.8776 15.0511 10.8776Z" stroke="#666666" stroke-width="1.53578" stroke-linecap="round" stroke-linejoin="round"/>
<path d="M4.3011 10.8776C4.72519 10.8776 5.06899 10.5338 5.06899 10.1097C5.06899 9.68559 4.72519 9.3418 4.3011 9.3418C3.877 9.3418 3.5332 9.68559 3.5332 10.1097C3.5332 10.5338 3.877 10.8776 4.3011 10.8776Z" stroke="#666666" stroke-width="1.53578" stroke-linecap="round" stroke-linejoin="round"/>
</svg>
