<svg width="85" height="7" viewBox="0 0 85 7" fill="none" xmlns="http://www.w3.org/2000/svg">
<path d="M0 5.09157H0.921914C0.984951 5.9662 1.59956 6.13955 1.90687 6.13955C2.42692 6.13955 2.87606 5.72982 2.87606 5.20976C2.87606 4.56363 2.32448 4.41392 1.57592 4.13813C1.1189 3.98842 0.102435 3.6496 0.102435 2.55433C0.0945553 1.46695 1.02435 0.875977 1.93838 0.875977C2.68695 0.875977 3.62462 1.28572 3.69554 2.48342H2.7815C2.71846 2.16823 2.57663 1.66394 1.90687 1.66394C1.43409 1.66394 1.02435 1.987 1.02435 2.48342C1.02435 3.05075 1.45773 3.19258 2.3954 3.53928C3.12032 3.84659 3.79797 4.21693 3.79797 5.16248C3.79797 6.10804 3.15972 6.92752 1.91474 6.92752C0.756442 6.92752 0.0157592 6.21835 0 5.09157Z" fill="#6F7171"/>
<path d="M4.89207 6.8172V3.16894H4.11987V2.53069H4.89207V0.986291H5.71155V2.53069H6.53891V3.16894H5.71155V6.8172H4.89207Z" fill="#6F7171"/>
<path d="M11.3047 2.53069V6.8172H10.4852V6.06864C10.1858 6.64385 9.5712 6.94327 8.89355 6.94327C7.51462 6.94327 6.69514 5.87165 6.69514 4.67395C6.69514 3.36593 7.64858 2.40462 8.89355 2.40462C9.74455 2.40462 10.2882 2.8774 10.4852 3.28714V2.53069H11.3047ZM7.51462 4.68183V4.68971C7.5225 5.32796 7.97164 6.17895 9.01175 6.17895C9.66576 6.17895 10.1307 5.81649 10.3434 5.32796C10.438 5.13097 10.4852 4.91034 10.4931 4.68971C10.501 4.46908 10.4616 4.24845 10.367 4.05146C10.1622 3.55504 9.68151 3.16894 8.99599 3.16894C8.09771 3.16894 7.51462 3.87811 7.51462 4.68183Z" fill="#6F7171"/>
<path d="M12.3874 6.8172V2.53069H13.1596V3.16106C13.4039 2.65677 13.853 2.4125 14.4361 2.40462V3.2241H14.381C13.6088 3.2241 13.2069 3.6496 13.2069 4.5006V6.8172H12.3874Z" fill="#6F7171"/>
<path d="M15.5342 6.8172V3.16894H14.762V2.53069H15.5342V0.986291H16.3536V2.53069H17.181V3.16894H16.3536V6.8172H15.5342Z" fill="#6F7171"/>
<path d="M20.1445 6.8172V0.986291H21.9489C22.729 0.986291 23.6982 1.10449 24.3443 1.93184C24.7856 2.45978 24.9825 3.12954 24.9825 3.89387C24.9825 5.59586 24.0606 6.8172 22.0119 6.8172H20.1445ZM21.0743 1.80577V5.99772H22.0592C23.4303 5.99772 24.0606 5.12309 24.0606 3.90963C24.0606 3.35017 23.9109 2.81436 23.5879 2.42038C23.2805 2.0658 22.8157 1.80577 22.0671 1.80577H21.0743Z" fill="#6F7171"/>
<path d="M30.1881 2.53069V6.8172H29.3686V6.06864C29.0692 6.64385 28.4546 6.94327 27.7769 6.94327C26.398 6.94327 25.5785 5.87165 25.5785 4.67395C25.5785 3.36593 26.5319 2.40462 27.7769 2.40462C28.6279 2.40462 29.1716 2.8774 29.3686 3.28714V2.53069H30.1881ZM26.398 4.68183V4.68971C26.4059 5.32796 26.855 6.17895 27.8951 6.17895C28.5491 6.17895 29.014 5.81649 29.2268 5.32796C29.3213 5.13097 29.3686 4.91034 29.3765 4.68971C29.3843 4.46908 29.345 4.24845 29.2504 4.05146C29.0455 3.55504 28.5649 3.16894 27.8793 3.16894C26.9811 3.16894 26.398 3.87811 26.398 4.68183Z" fill="#6F7171"/>
<path d="M31.5781 6.8172V3.16894H30.8059V2.53069H31.5781V0.986291H32.3976V2.53069H33.2249V3.16894H32.3976V6.8172H31.5781Z" fill="#6F7171"/>
<path d="M37.8174 4.93397H34.1534C34.1928 5.80073 34.9492 6.24199 35.5953 6.24199C36.1705 6.24199 36.596 5.9662 36.8324 5.51707H37.6834C37.4786 5.98984 37.1791 6.34442 36.8167 6.58081C36.4542 6.82508 36.0287 6.94327 35.5953 6.94327C34.1928 6.94327 33.326 5.81649 33.326 4.68183C33.326 3.45261 34.2873 2.40462 35.5875 2.40462C36.2021 2.40462 36.7615 2.63313 37.1713 3.03499C37.6755 3.54716 37.8883 4.21693 37.8174 4.93397ZM34.1691 4.29573H37.0058C36.9664 3.72839 36.3991 3.09015 35.5875 3.10591C34.7522 3.10591 34.2085 3.71264 34.1691 4.29573Z" fill="#6F7171"/>
<path d="M42.7314 4.17753H44.8904V4.98913H42.7314V4.17753Z" fill="#6F7171"/>
<path d="M50.1008 6.8172V0.986291H53.363V1.80577H51.0306V3.46049H53.3315V4.27209H51.0306V5.99772H53.363V6.8172H50.1008Z" fill="#6F7171"/>
<path d="M54.3094 6.8172V2.53069H55.0816V3.19258C55.2865 2.75132 55.7671 2.39674 56.5314 2.40462C57.9025 2.42038 58.265 3.41321 58.265 4.30361V6.8172H57.4376V4.49272C57.4376 3.72052 57.1382 3.16894 56.3029 3.17682C55.4992 3.1847 55.1289 3.689 55.1289 4.42968V6.8172H54.3094Z" fill="#6F7171"/>
<path d="M63.6605 0.986291V6.8172H62.8725V6.06864C62.6361 6.5099 62.1555 6.94327 61.2729 6.94327C59.9255 6.94327 59.0745 5.90317 59.0745 4.66607C59.0745 3.33441 60.0358 2.40462 61.2572 2.40462C62.1318 2.40462 62.6676 2.89316 62.841 3.23198V0.986291H63.6605ZM59.894 4.66607V4.67395C59.9019 5.46191 60.4535 6.17895 61.399 6.17895C61.8166 6.17895 62.2027 6.0056 62.4706 5.72982C62.7464 5.45403 62.904 5.07581 62.8883 4.65031C62.8883 4.22481 62.7228 3.85447 62.4549 3.59444C62.187 3.32653 61.8166 3.16894 61.399 3.16894C60.4929 3.16894 59.894 3.86235 59.894 4.66607Z" fill="#6F7171"/>
<path d="M67.0989 6.8172V0.986291H68.9034C69.6834 0.986291 70.6526 1.10449 71.2988 1.93184C71.74 2.45978 71.937 3.12954 71.937 3.89387C71.937 5.59586 71.0151 6.8172 68.9664 6.8172H67.0989ZM68.0287 1.80577V5.99772H69.0137C70.3847 5.99772 71.0151 5.12309 71.0151 3.90963C71.0151 3.35017 70.8654 2.81436 70.5423 2.42038C70.235 2.0658 69.7701 1.80577 69.0216 1.80577H68.0287Z" fill="#6F7171"/>
<path d="M77.1425 2.53069V6.8172H76.3231V6.06864C76.0236 6.64385 75.409 6.94327 74.7314 6.94327C73.3524 6.94327 72.533 5.87165 72.533 4.67395C72.533 3.36593 73.4864 2.40462 74.7314 2.40462C75.5824 2.40462 76.1261 2.8774 76.3231 3.28714V2.53069H77.1425ZM73.3524 4.68183V4.68971C73.3603 5.32796 73.8095 6.17895 74.8496 6.17895C75.5036 6.17895 75.9685 5.81649 76.1812 5.32796C76.2758 5.13097 76.3231 4.91034 76.3309 4.68971C76.3388 4.46908 76.2994 4.24845 76.2049 4.05146C76 3.55504 75.5193 3.16894 74.8338 3.16894C73.9355 3.16894 73.3524 3.87811 73.3524 4.68183Z" fill="#6F7171"/>
<path d="M78.5325 6.8172V3.16894H77.7603V2.53069H78.5325V0.986291H79.352V2.53069H80.1794V3.16894H79.352V6.8172H78.5325Z" fill="#6F7171"/>
<path d="M84.7718 4.93397H81.1078C81.1472 5.80073 81.9037 6.24199 82.5498 6.24199C83.125 6.24199 83.5505 5.9662 83.7869 5.51707H84.6379C84.433 5.98984 84.1336 6.34442 83.7711 6.58081C83.4087 6.82508 82.9832 6.94327 82.5498 6.94327C81.1472 6.94327 80.2805 5.81649 80.2805 4.68183C80.2805 3.45261 81.2418 2.40462 82.5419 2.40462C83.1565 2.40462 83.716 2.63313 84.1257 3.03499C84.63 3.54716 84.8428 4.21693 84.7718 4.93397ZM81.1236 4.29573H83.9602C83.9208 3.72839 83.3535 3.09015 82.5419 3.10591C81.7067 3.10591 81.163 3.71264 81.1236 4.29573Z" fill="#6F7171"/>
</svg>
