<svg width="183" height="24" viewBox="0 0 183 24" fill="none" xmlns="http://www.w3.org/2000/svg">
<path d="M7.68823 20.2305H49.3697V23.7185H3.58984L7.68823 20.2305Z" fill="white"/>
<path d="M31.5818 0.958984L5.945 23.7182H0.974609L26.437 0.958984H31.5818Z" fill="white"/>
<path d="M21.6408 13.7773H49.3703V17.2653H17.7168L21.6408 13.7773Z" fill="white"/>
<path d="M28.965 7.32422H49.3698V10.8122H25.041L28.965 7.32422Z" fill="white"/>
<path d="M36.2026 0.958984H49.3698V4.44698H32.1914L36.2026 0.958984Z" fill="white"/>
<path d="M54.4277 23.6312V15.3472H60.2701V16.9168H56.1717V18.6608H60.1829V20.2304H56.1717V22.1488H60.2701V23.6312H54.4277Z" fill="white"/>
<path d="M67.0713 23.6312L64.9785 20.6664L62.8858 23.6312H60.793L63.7578 19.4456L60.9674 15.3472H63.0602L64.9785 18.2248L66.897 15.3472H68.9897L66.1993 19.3584L69.1642 23.6312H67.0713Z" fill="white"/>
<path d="M69.1641 19.5326C69.1641 17.0038 71.0824 15.2598 73.6112 15.2598C75.4424 15.2598 76.4888 16.219 77.0992 17.2654L75.6168 18.0502C75.268 17.3526 74.4832 16.8294 73.6984 16.8294C72.216 16.8294 71.0824 17.963 71.0824 19.5326C71.0824 21.1022 72.216 22.2357 73.6984 22.2357C74.5704 22.2357 75.268 21.7125 75.6168 21.0149L77.0992 21.7126C76.4888 22.759 75.4424 23.7182 73.6112 23.7182C71.0824 23.8054 69.1641 22.0614 69.1641 19.5326Z" fill="white"/>
<path d="M78.1465 23.6312V15.3472H83.9889V16.9168H79.8905V18.6608H83.9017V20.2304H79.8905V22.1488H83.9889V23.6312H78.1465Z" fill="white"/>
<path d="M85.3848 23.6312V15.3472H87.1288V22.1488H90.704V23.6312H85.3848Z" fill="white"/>
<path d="M91.9238 23.6312V15.3472H93.6678V22.1488H97.1558V23.6312H91.9238Z" fill="white"/>
<path d="M98.377 23.6312V15.3472H104.307V16.9168H100.208V18.6608H104.219V20.2304H100.208V22.1488H104.307V23.6312H98.377Z" fill="white"/>
<path d="M111.369 23.6312L107.445 18.2248V23.6312H105.701V15.3472H107.532L111.369 20.5792V15.3472H113.113V23.6312H111.369Z" fill="white"/>
<path d="M114.334 19.5326C114.334 17.0038 116.252 15.2598 118.781 15.2598C120.612 15.2598 121.659 16.219 122.269 17.2654L120.787 18.0502C120.438 17.3526 119.653 16.8294 118.868 16.8294C117.386 16.8294 116.252 17.963 116.252 19.5326C116.252 21.1022 117.386 22.2357 118.868 22.2357C119.74 22.2357 120.438 21.7125 120.787 21.0149L122.269 21.7126C121.659 22.759 120.612 23.7182 118.781 23.7182C116.252 23.8054 114.334 22.0614 114.334 19.5326Z" fill="white"/>
<path d="M123.316 23.6312V15.3472H129.159V16.9168H125.06V18.6608H129.072V20.2304H125.06V22.1488H129.159V23.6312H123.316Z" fill="white"/>
<path d="M139.622 19.5328C139.622 18.0504 138.75 16.9168 137.006 16.9168H135.523V22.1488H137.006C138.662 22.1488 139.622 20.928 139.622 19.5328ZM133.779 23.6311V15.3472H137.093C139.709 15.3472 141.54 17.004 141.54 19.5328C141.54 22.0616 139.709 23.7184 137.093 23.7184H133.779V23.6311Z" fill="white"/>
<path d="M147.557 18.0504C147.557 17.3528 147.034 16.9168 146.336 16.9168H144.505V19.184H146.336C147.034 19.184 147.557 18.748 147.557 18.0504ZM147.383 23.6312L145.726 20.6664H144.418V23.6312H142.674V15.3472H146.598C148.342 15.3472 149.388 16.4808 149.388 18.0504C149.388 19.5328 148.429 20.3176 147.557 20.492L149.388 23.6312H147.383Z" fill="white"/>
<path d="M150.697 23.6312H152.441V15.3472H150.697V23.6312Z" fill="white"/>
<path d="M156.453 23.6312L153.227 15.3472H155.232L157.499 21.7128L159.854 15.3472H161.859L158.633 23.6312H156.453Z" fill="white"/>
<path d="M162.643 23.6312H164.387V15.3472H162.643V23.6312Z" fill="white"/>
<path d="M171.711 23.6312L167.787 18.2248V23.6312H166.043V15.3472H167.874L171.711 20.5792V15.3472H173.455V23.6312H171.711Z" fill="white"/>
<path d="M174.676 19.5326C174.676 16.9166 176.681 15.2598 179.123 15.2598C180.867 15.2598 181.913 16.1317 182.524 17.0909L181.041 17.8758C180.693 17.2654 179.995 16.8294 179.036 16.8294C177.553 16.8294 176.42 17.963 176.42 19.5326C176.42 21.1022 177.553 22.2357 179.036 22.2357C179.733 22.2357 180.431 21.8869 180.78 21.6253V20.6662H178.6V19.0966H182.524V22.3229C181.652 23.2821 180.518 23.8926 178.949 23.8926C176.681 23.8054 174.676 22.1486 174.676 19.5326Z" fill="white"/>
<path d="M58.1779 2.6158H59.9219V0.958984H58.1779V2.6158ZM59.3115 7.23738C59.3115 5.92938 58.7883 5.31897 57.7419 5.31897C56.6955 5.31897 56.1723 5.92938 56.1723 7.23738C56.1723 7.76058 56.2595 8.19658 56.5211 8.54538C56.7827 8.89418 57.2187 9.06861 57.6547 9.06861C58.1779 9.06861 58.6139 8.89418 58.8755 8.54538C59.1371 8.19658 59.3115 7.76058 59.3115 7.23738ZM55.4747 2.6158H57.2187V0.958984H55.4747V2.6158ZM61.2299 7.1502C61.2299 8.1966 60.8811 8.98139 60.2707 9.59178C59.6603 10.2022 58.7883 10.551 57.7419 10.551C56.6955 10.551 55.8235 10.2022 55.2131 9.59178C54.6027 8.98139 54.2539 8.10937 54.2539 7.06297C54.2539 6.01657 54.6027 5.23178 55.2131 4.62139C55.8235 4.01099 56.6083 3.66221 57.6547 3.66221C58.7011 3.66221 59.5731 3.92381 60.1835 4.53421C60.8811 5.23181 61.2299 6.1038 61.2299 7.1502Z" fill="white"/>
<path d="M69.6875 10.5509H62.5371V8.63254H67.6819C67.6819 6.62695 66.6355 5.75491 64.1067 5.75491V4.09814C65.3275 4.09814 66.1995 4.18533 66.7227 4.35973C68.6411 5.05733 69.6875 6.45255 69.6875 8.63254V10.5509Z" fill="white"/>
<path d="M75.4427 10.551H73.6115C72.1291 10.551 71.1699 9.67904 71.1699 8.19665V1.39502H73.1755V7.15024C73.1755 8.10944 73.4371 8.63265 74.9195 8.63265H75.5299V10.551H75.4427Z" fill="white"/>
<path d="M75.0938 10.5512H78.1457V8.63281H75.0938V10.5512Z" fill="white"/>
<path d="M80.3262 12.9053H82.0702V11.2485H80.3262V12.9053ZM84.3374 10.5509H77.9718V8.63254H79.2798C79.9774 8.63254 80.239 8.19651 80.239 7.23732V4.09814H82.2447V7.23732C82.2447 7.76051 82.1574 8.19655 81.983 8.63254H84.3374V10.5509ZM77.623 12.9053H79.367V11.2485H77.623V12.9053Z" fill="white"/>
<path d="M84.0762 10.5512H87.1282V8.63281H84.0762V10.5512Z" fill="white"/>
<path d="M86.8672 10.5512H89.9192V8.63281H86.8672V10.5512Z" fill="white"/>
<path d="M89.7441 10.5512H92.709V8.63281H89.7441V10.5512Z" fill="white"/>
<path d="M92.5352 10.5512H95.5871V8.63281H92.5352V10.5512Z" fill="white"/>
<path d="M100.382 1.65682H102.126V0H100.382V1.65682ZM100.643 7.76081C101.166 7.32481 101.428 6.80159 101.428 6.10399C101.428 5.23199 100.818 4.44717 99.9457 4.44717C99.5097 4.44717 99.0737 4.6216 98.8121 4.9704C98.5505 5.3192 98.4633 5.66799 98.4633 6.10399C98.4633 6.80159 98.7249 7.32481 99.2481 7.76081C99.5097 7.93521 99.6841 8.10961 99.9457 8.19681C100.207 8.02241 100.382 7.93521 100.643 7.76081ZM97.7657 1.65682H99.5097V0H97.7657V1.65682ZM104.654 10.5512H103.521C102.126 10.5512 100.992 10.3768 99.9457 10.028C98.9865 10.3768 97.7657 10.5512 96.3705 10.5512H95.0625V8.6328H96.3705C96.9809 8.6328 97.4169 8.63277 97.5041 8.54557C96.8937 7.84797 96.5449 7.06317 96.5449 6.19117C96.5449 5.84237 96.6321 5.49361 96.7193 5.14481C97.1553 3.74961 98.3761 2.87758 99.8585 2.87758C101.341 2.87758 102.562 3.74961 102.998 5.14481C103.085 5.49361 103.172 5.84237 103.172 6.19117C103.172 7.06317 102.823 7.84797 102.213 8.54557C102.387 8.63277 102.736 8.6328 103.346 8.6328H104.48V10.5512H104.654Z" fill="white"/>
<path d="M110.586 10.551H104.133V8.63265H105.441C106.138 8.63265 106.487 8.19661 106.487 7.23742V1.39502H108.493V7.23742C108.493 7.76062 108.406 8.19665 108.231 8.63265H110.586V10.551Z" fill="white"/>
<path d="M114.422 7.84783C114.422 8.63262 114.247 9.243 113.811 9.679C113.375 10.2894 112.678 10.551 111.893 10.551H109.975V8.63265H111.457C112.155 8.63265 112.503 8.19661 112.503 7.23742V1.39502H114.509V7.84783H114.422Z" fill="white"/>
<path d="M137.355 10.5509H126.629C126.455 10.8997 126.193 11.1613 126.019 11.4229C125.147 12.3821 124.1 12.9053 122.792 12.9053C121.571 12.9053 120.438 12.4693 119.566 11.5101C118.694 10.5509 118.258 9.41731 118.258 8.10931V4.09814H120.263V7.84773C120.263 8.71972 120.438 9.41732 120.874 10.0277C121.31 10.7253 121.92 11.0741 122.792 11.0741C123.577 11.0741 124.275 10.7253 124.711 10.0277C125.059 9.41732 125.321 8.71972 125.321 7.84773V4.09814H127.327V7.23732C127.327 7.32452 127.327 7.49892 127.327 7.67332V8.10931C127.327 8.28371 127.327 8.45812 127.327 8.71972H128.373C129.071 8.71972 129.419 8.28372 129.419 7.41173V4.18532H131.425V7.32455C131.425 7.84775 131.338 8.37092 131.163 8.71972H132.384C133.082 8.71972 133.431 8.28372 133.431 7.41173V4.18532H135.436V7.23732C135.436 7.76051 135.349 8.28372 135.175 8.71972H137.529V10.5509H137.355Z" fill="white"/>
<path d="M137.094 10.5512H140.059V8.63281H137.094V10.5512Z" fill="white"/>
<path d="M142.239 3.05184H143.983V1.39502H142.239V3.05184ZM146.25 10.551H139.885V8.63265H141.193C141.89 8.63265 142.239 8.19661 142.239 7.23742V4.09825H144.245V7.23742C144.245 7.76062 144.158 8.19665 143.983 8.63265H146.338V10.551H146.25Z" fill="white"/>
<path d="M152.353 10.551H145.9V8.63265H147.208C147.906 8.63265 148.255 8.19661 148.255 7.23742V1.39502H150.26V7.23742C150.26 7.76062 150.173 8.19665 149.999 8.63265H152.353V10.551Z" fill="white"/>
<path d="M152.092 10.5512H155.144V8.63281H152.092V10.5512Z" fill="white"/>
<path d="M169.445 10.5511H154.795V8.63277H156.277C156.888 8.63277 157.324 8.28397 157.324 7.32477V4.18555H159.329V7.32477C159.329 7.84797 159.242 8.37115 159.068 8.71995H160.289C160.986 8.71995 161.335 8.28395 161.335 7.41195V4.18555H163.341V7.32477C163.341 7.84797 163.253 8.37115 163.079 8.71995H164.3C164.997 8.71995 165.346 8.28395 165.346 7.41195V4.18555H167.352V7.23754C167.352 7.76074 167.265 8.28395 167.09 8.71995H169.445V10.5511Z" fill="white"/>
<path d="M179.037 10.551H168.66V8.63265H176.857C176.683 7.06305 175.462 5.92942 173.979 5.92942H170.404L173.282 1.39502H175.636L173.805 4.09825H174.939C177.642 4.35984 179.037 6.45264 179.037 9.76623V10.551Z" fill="white"/>
<path d="M180.432 10.551H182.437V1.39502H180.432V10.551Z" fill="white"/>
</svg>
