<svg width="12" height="13" viewBox="0 0 12 13" fill="none" xmlns="http://www.w3.org/2000/svg">
<path d="M6.04624 11.1979C5.43676 11.1979 4.86345 11.0817 4.32631 10.8493C3.78917 10.6169 3.32185 10.302 2.92433 9.90447C2.52683 9.50696 2.21187 9.03963 1.97947 8.50249C1.74706 7.96535 1.63086 7.39204 1.63086 6.78257C1.63086 6.17309 1.74706 5.59978 1.97947 5.06264C2.21187 4.5255 2.52683 4.05818 2.92433 3.66066C3.32185 3.26315 3.78917 2.9482 4.32631 2.71579C4.86345 2.48339 5.43676 2.36719 6.04624 2.36719C7.18971 2.36719 8.17609 2.74441 9.00539 3.49886C9.83469 4.25331 10.3094 5.18529 10.4295 6.2948H9.93328C9.84711 5.58469 9.59065 4.94738 9.16389 4.38288C8.73713 3.81838 8.18852 3.40185 7.51803 3.13328V3.34838C7.51803 3.61821 7.42196 3.8492 7.22981 4.04135C7.03765 4.2335 6.80666 4.32958 6.53684 4.32958H5.55564V5.31077C5.55564 5.44978 5.50863 5.56629 5.41459 5.66032C5.32056 5.75436 5.20405 5.80137 5.06504 5.80137H4.08385V6.78257H4.98956V8.25436H4.57445L2.21958 5.89949C2.19505 6.04667 2.17256 6.19385 2.15212 6.34103C2.13168 6.48821 2.12146 6.63539 2.12146 6.78257C2.12146 7.8537 2.49758 8.77358 3.24983 9.54218C4.00208 10.3108 4.93422 10.6992 6.04624 10.7073V11.1979ZM10.4729 11.0659L8.78038 9.39217C8.63383 9.49658 8.47501 9.57835 8.30393 9.63746C8.13285 9.69659 7.95265 9.72615 7.76333 9.72615C7.28217 9.72615 6.8757 9.56026 6.54391 9.22848C6.21213 8.89669 6.04624 8.49022 6.04624 8.00906C6.04624 7.5279 6.21213 7.12143 6.54391 6.78964C6.8757 6.45786 7.28217 6.29197 7.76333 6.29197C8.24449 6.29197 8.65096 6.45786 8.98275 6.78964C9.31453 7.12143 9.48042 7.5279 9.48042 8.00906C9.48042 8.20467 9.44929 8.38959 9.38702 8.56382C9.32475 8.73804 9.23827 8.89843 9.12757 9.04498L10.8201 10.7187L10.4729 11.0659ZM7.76333 9.23555C8.10675 9.23555 8.39702 9.11699 8.63414 8.87987C8.87126 8.64275 8.98982 8.35248 8.98982 8.00906C8.98982 7.66564 8.87126 7.37537 8.63414 7.13825C8.39702 6.90113 8.10675 6.78257 7.76333 6.78257C7.41991 6.78257 7.12964 6.90113 6.89252 7.13825C6.6554 7.37537 6.53684 7.66564 6.53684 8.00906C6.53684 8.35248 6.6554 8.64275 6.89252 8.87987C7.12964 9.11699 7.41991 9.23555 7.76333 9.23555Z" fill="black"/>
</svg>
