<svg width="13" height="13" viewBox="0 0 13 13" fill="none" xmlns="http://www.w3.org/2000/svg">
<path d="M6.63892 10.6064C6.02096 10.6064 5.43968 10.4886 4.89506 10.253C4.35045 10.0174 3.87662 9.69801 3.47358 9.29498C3.07054 8.89193 2.7512 8.4181 2.51557 7.87349C2.27993 7.32888 2.16211 6.7476 2.16211 6.12964C2.16211 5.51168 2.27993 4.9304 2.51557 4.38579C2.7512 3.84117 3.07054 3.36735 3.47358 2.9643C3.87662 2.56126 4.35045 2.24193 4.89506 2.00629C5.43968 1.77065 6.02096 1.65283 6.63892 1.65283C7.79829 1.65283 8.7984 2.0353 9.63923 2.80025C10.4801 3.5652 10.9614 4.51014 11.0832 5.63509H10.58C10.4927 4.91509 10.2326 4.26892 9.79994 3.69657C9.36725 3.12422 8.811 2.70189 8.13119 2.42958V2.64768C8.13119 2.92126 8.03377 3.15546 7.83895 3.35029C7.64412 3.54511 7.40992 3.64252 7.13634 3.64252H6.14149V4.63737C6.14149 4.77831 6.09382 4.89644 5.99848 4.99178C5.90314 5.08712 5.78501 5.13479 5.64407 5.13479H4.64922V6.12964H5.56754V7.62191H5.14665L2.75902 5.23428C2.73415 5.3835 2.71135 5.53273 2.69062 5.68196C2.6699 5.83118 2.65953 5.98041 2.65953 6.12964C2.65953 7.21568 3.04089 8.14835 3.80361 8.92764C4.56632 9.70694 5.51142 10.1007 6.63892 10.109V10.6064ZM11.1272 10.4725L9.41109 8.77554C9.2625 8.88141 9.10148 8.96431 8.92802 9.02425C8.75456 9.0842 8.57185 9.11418 8.3799 9.11418C7.89204 9.11418 7.47991 8.94598 7.14351 8.60958C6.80712 8.27318 6.63892 7.86105 6.63892 7.3732C6.63892 6.88534 6.80712 6.47321 7.14351 6.13681C7.47991 5.80042 7.89204 5.63222 8.3799 5.63222C8.86775 5.63222 9.27988 5.80042 9.61628 6.13681C9.95268 6.47321 10.1209 6.88534 10.1209 7.3732C10.1209 7.57153 10.0893 7.75902 10.0262 7.93567C9.96304 8.11232 9.87535 8.27494 9.76312 8.42353L11.4792 10.1205L11.1272 10.4725ZM8.3799 8.61675C8.72809 8.61675 9.0224 8.49654 9.26282 8.25612C9.50324 8.0157 9.62345 7.72139 9.62345 7.3732C9.62345 7.025 9.50324 6.73069 9.26282 6.49027C9.0224 6.24985 8.72809 6.12964 8.3799 6.12964C8.0317 6.12964 7.73739 6.24985 7.49697 6.49027C7.25655 6.73069 7.13634 7.025 7.13634 7.3732C7.13634 7.72139 7.25655 8.0157 7.49697 8.25612C7.73739 8.49654 8.0317 8.61675 8.3799 8.61675Z" fill="#1F053F"/>
</svg>
