<svg width="16" height="16" viewBox="0 0 16 16" fill="none" xmlns="http://www.w3.org/2000/svg">
<path d="M8.33203 13.4692C7.53833 13.4692 6.79173 13.3179 6.09223 13.0153C5.39273 12.7126 4.78415 12.3025 4.26648 11.7848C3.74882 11.2671 3.33866 10.6585 3.03601 9.95904C2.73336 9.25954 2.58203 8.51294 2.58203 7.71924C2.58203 6.92554 2.73336 6.17894 3.03601 5.47944C3.33866 4.77994 3.74882 4.17136 4.26648 3.65368C4.78415 3.13603 5.39273 2.72587 6.09223 2.42322C6.79173 2.12056 7.53833 1.96924 8.33203 1.96924C9.82113 1.96924 11.1057 2.46049 12.1856 3.44298C13.2656 4.42547 13.8838 5.63916 14.0403 7.08404H13.394C13.2818 6.15928 12.9478 5.32934 12.392 4.59421C11.8363 3.85908 11.1218 3.31664 10.2487 2.96689V3.24702C10.2487 3.59841 10.1236 3.89922 9.87335 4.14945C9.62312 4.39968 9.32231 4.52479 8.97092 4.52479H7.69314V5.80257C7.69314 5.98359 7.63192 6.13533 7.50946 6.25778C7.38701 6.38023 7.23527 6.44146 7.05425 6.44146H5.77648V7.71924H6.95596V9.63591H6.41536L3.3487 6.56924C3.31675 6.76091 3.28747 6.95257 3.26085 7.14424C3.23423 7.33591 3.22092 7.52757 3.22092 7.71924C3.22092 9.11415 3.71074 10.3121 4.69036 11.313C5.66999 12.3139 6.88388 12.8197 8.33203 12.8303V13.4692ZM14.0968 13.2972L11.8926 11.1176C11.7018 11.2536 11.4949 11.3601 11.2722 11.4371C11.0494 11.5141 10.8147 11.5526 10.5681 11.5526C9.94154 11.5526 9.41221 11.3365 8.98014 10.9045C8.54807 10.4724 8.33203 9.94306 8.33203 9.31646C8.33203 8.68986 8.54807 8.16052 8.98014 7.72845C9.41221 7.29638 9.94154 7.08035 10.5681 7.08035C11.1947 7.08035 11.7241 7.29638 12.1561 7.72845C12.5882 8.16052 12.8043 8.68986 12.8043 9.31646C12.8043 9.5712 12.7637 9.81201 12.6826 10.0389C12.6015 10.2658 12.4889 10.4747 12.3447 10.6655L14.5489 12.8451L14.0968 13.2972ZM10.5681 10.9137C11.0154 10.9137 11.3934 10.7593 11.7022 10.4505C12.011 10.1417 12.1654 9.76368 12.1654 9.31646C12.1654 8.86924 12.011 8.49123 11.7022 8.18243C11.3934 7.87364 11.0154 7.71924 10.5681 7.71924C10.1209 7.71924 9.74291 7.87364 9.43411 8.18243C9.12532 8.49123 8.97092 8.86924 8.97092 9.31646C8.97092 9.76368 9.12532 10.1417 9.43411 10.4505C9.74291 10.7593 10.1209 10.9137 10.5681 10.9137Z" fill="black"/>
</svg>
