<svg width="16" height="17" viewBox="0 0 16 17" fill="none" xmlns="http://www.w3.org/2000/svg">
<path d="M7.99805 0.5C3.59805 0.5 -0.00195312 4.1 -0.00195312 8.5C-0.00195312 12.9 3.59805 16.5 7.99805 16.5C12.398 16.5 15.998 12.9 15.998 8.5C15.998 4.1 12.398 0.5 7.99805 0.5ZM7.99805 3.16667C9.46471 3.16667 10.6647 4.63333 10.6647 6.5C10.6647 8.36667 9.46471 9.83333 7.99805 9.83333C6.53138 9.83333 5.33138 8.36667 5.33138 6.5C5.33138 4.63333 6.53138 3.16667 7.99805 3.16667ZM12.398 13.5C11.2647 14.5 9.66471 15.1667 7.99805 15.1667C6.33138 15.1667 4.73138 14.5 3.59805 13.5C3.33138 13.2333 3.26471 12.8333 3.53138 12.5667C4.26471 11.7 5.26471 11.1 6.33138 10.7667C6.75903 10.9805 7.18668 11.1086 7.64869 11.151C7.76287 11.1614 7.79189 13.7169 8.00949 13.7169C8.36088 13.7169 8.36088 11.1497 8.36088 11.1497C8.36088 11.1497 9.24123 10.9784 9.66471 10.7667C10.798 11.1 11.7314 11.7 12.4647 12.5667C12.7314 12.8333 12.7314 13.2333 12.398 13.5Z" fill="white"/>
</svg>
