<svg width="51" height="51" viewBox="0 0 51 51" fill="none" xmlns="http://www.w3.org/2000/svg">
<path d="M48.2756 8.41737C47.2908 8.94918 46.3145 9.48943 45.3339 10.0339C43.6402 7.27778 41.1272 5.84696 37.8458 5.77099C35.2649 5.7119 33.0618 6.63201 31.2916 8.49756C30.5191 9.31216 29.9248 10.2238 29.5088 11.2284C28.9994 9.45144 28.2268 7.83913 27.242 6.43786C28.0825 5.37847 29.0928 4.45835 30.2771 3.69019C32.7052 2.11164 35.4135 1.39835 38.334 1.56295C38.7373 1.58828 39.1448 1.62626 39.5608 1.68113C43.7972 2.26359 47.0319 4.36128 49.1841 7.91933L48.2756 8.41737ZM30.9138 21.0288C30.3705 20.8811 29.8399 20.7671 29.3135 20.6912C29.4324 20.3113 29.5427 19.9272 29.6404 19.5347C29.6658 19.4292 29.6871 19.3194 29.7083 19.2097C30.0266 19.8639 30.4299 20.4675 30.9138 21.0288ZM38.1557 24.1226C40.847 23.9833 43.0501 22.8353 44.7311 20.6954C45.5631 21.2863 46.3951 21.873 47.2314 22.4639L48.3138 23.2278C47.155 24.7768 45.7584 25.9628 44.0604 26.8365C42.9016 27.4358 41.6875 27.8537 40.431 28.0943C39.5735 26.5537 38.4656 25.2115 37.1497 24.1184C37.4765 24.131 37.8119 24.1352 38.1557 24.1226ZM40.3206 31.8338C40.9022 33.8682 40.9361 36.025 40.4267 38.2408C39.9725 40.2245 39.1618 42.0057 38.0199 43.5294C35.5875 46.7751 32.3911 48.59 28.5154 48.9319C26.7453 49.0838 24.9285 48.8601 23.1159 48.265C21.2396 47.6445 19.5841 46.6949 18.2045 45.4371C14.9529 42.4784 13.5223 38.7895 13.9511 34.4591C14.1124 32.8299 14.5411 31.2978 15.2245 29.8712C15.4071 29.8796 15.5854 29.8881 15.7721 29.8881C17.122 29.8881 18.5101 29.715 19.9067 29.3647C20.3397 29.255 20.7642 29.1283 21.1802 28.989C20.4161 29.7572 19.7624 30.6773 19.2403 31.762L19.2318 31.7789L19.1554 31.9562C19.0959 32.0913 19.0365 32.2348 18.9813 32.374C18.0771 34.6574 18.0474 36.9282 18.9049 39.1272C19.5926 40.8914 20.7854 42.3096 22.4494 43.331C22.806 43.5462 23.1583 43.7404 23.5149 43.905C25.2468 44.7069 27.0467 44.9137 28.8848 44.517C32.1321 43.8206 34.4244 41.7778 35.6979 38.4434C36.5257 36.2782 36.5469 34.1172 35.7573 32.0153C35.3965 31.0572 34.8956 30.2131 34.2631 29.4744C34.7046 29.5757 35.1588 29.6601 35.6172 29.7192C36.0545 29.7783 36.4917 29.8205 36.9247 29.8458C37.8161 29.8965 38.6948 29.8627 39.5565 29.7657C39.8579 30.4241 40.1169 31.1163 40.3206 31.8338ZM21.7151 11.6504L8.47509 11.6546C9.23494 9.49787 11.4381 6.99077 14.8807 6.91058C14.9401 6.90636 14.9996 6.90636 15.0547 6.90636C18.4719 6.91058 20.8873 9.1982 21.7151 11.6504ZM13.8365 28.2209C9.06514 27.5371 5.69466 25.2706 3.53398 21.2947C2.20956 18.8552 1.7214 16.1033 2.07373 13.1192C2.46426 9.84819 3.83113 7.10473 6.14038 4.9564C7.69402 3.51292 9.57878 2.50417 11.7479 1.9597C13.6624 1.47432 15.5811 1.40257 17.4489 1.74444C20.743 2.33956 23.3748 3.87168 25.2808 6.29436L25.3615 6.40832C24.3894 7.86446 23.6847 9.53163 23.2432 11.3972C22.3009 8.32029 19.3209 5.38269 15.059 5.38269C14.9868 5.38269 14.9189 5.38269 14.8467 5.38691C10.3174 5.4882 7.27802 9.02515 6.71769 12.2962L6.56487 13.191L22.9206 13.1783C22.7805 14.3137 22.7678 15.4448 22.8824 16.5718C18.2851 16.5675 13.6879 16.5718 9.09061 16.576H8.05909C7.92325 16.576 7.79166 16.5844 7.64309 16.5929L6.56063 16.652L6.74316 17.5256C6.96814 18.5935 7.38414 19.5642 8.01664 20.497C9.40049 22.5356 11.3659 23.8103 13.8492 24.2872C14.5793 24.4265 15.301 24.4982 16.0141 24.4982C16.4641 24.4982 16.9098 24.4645 17.3513 24.4096C17.0414 24.7008 16.7315 25.0089 16.4344 25.3381C15.5981 26.2583 14.8892 27.2375 14.3076 28.2673C14.1506 28.2589 13.9893 28.242 13.8365 28.2209ZM26.7538 22.8268C26.5925 22.5947 26.4354 22.3583 26.2869 22.1135C26.376 22.1093 26.4651 22.1009 26.5543 22.0924C26.7453 22.084 26.9321 22.084 27.1189 22.084C27.0042 22.3372 26.8811 22.582 26.7538 22.8268ZM25.8029 26.5115C26.2147 26.1907 26.6095 25.8573 26.9873 25.4943C27.0509 25.5534 27.1061 25.6209 27.1698 25.68C27.416 25.9164 27.6665 26.1359 27.9254 26.3553C27.2207 26.3131 26.5118 26.3722 25.8029 26.5115ZM25.2468 28.2335C27.0127 27.6553 28.8041 27.7777 30.57 28.5923C30.5742 28.5965 30.5742 28.5965 30.5785 28.5965C32.3868 29.4364 33.6433 30.766 34.314 32.5555C34.972 34.2987 34.9508 36.1009 34.2631 37.9074C33.1721 40.7648 31.3044 42.4362 28.5621 43.0271C26.7496 43.4196 24.9624 43.0862 23.2645 42.0352C21.8679 41.1784 20.917 40.0431 20.3439 38.5743C19.6181 36.7214 19.6435 34.8811 20.4119 32.9396C20.4628 32.8046 20.518 32.6737 20.5732 32.5471L20.6326 32.4078C21.6684 30.2721 23.1796 28.9089 25.2468 28.2335ZM24.6398 22.3203C25.0261 23.0379 25.4676 23.7216 25.9685 24.3547C24.1856 26.0768 22.0249 27.2628 19.5332 27.8832C18.3573 28.1745 17.2027 28.3306 16.0693 28.3559C16.5108 27.668 17.0117 27.0053 17.5847 26.3764C19.5544 24.1943 21.9231 22.8353 24.6398 22.3203ZM23.3961 19.2561C23.413 19.3152 23.4343 19.3743 23.4555 19.4334C23.2263 19.5431 23.0819 19.7288 22.98 19.8681C22.5004 20.4886 21.8764 21.0246 21.0613 21.5142C18.8794 22.8268 16.5532 23.2531 14.1463 22.7888C12.0493 22.3879 10.466 21.358 9.29861 19.6444C8.95902 19.1506 8.70007 18.6399 8.50905 18.1081H9.09485C13.7728 18.1039 18.4465 18.0996 23.1201 18.1039C23.1965 18.488 23.2899 18.872 23.3961 19.2561ZM23.8757 20.6658C23.9012 20.7291 23.9267 20.7967 23.9521 20.86C23.8715 20.8726 23.7908 20.8726 23.7187 20.86L23.8757 20.6658ZM33.7155 23.7174C35.8083 24.7261 37.5275 26.3089 38.767 28.3053C37.8076 28.3686 36.827 28.3433 35.8252 28.2082C32.8792 27.8115 30.328 26.5917 28.248 24.5826C28.0952 24.4391 27.9509 24.283 27.8108 24.131C28.1716 23.5106 28.49 22.8522 28.7786 22.1726C30.2941 22.3583 31.8053 22.8395 33.7155 23.7174ZM28.1504 19.1379C28.0315 19.6233 27.8914 20.0918 27.7344 20.5519C27.3269 20.5392 26.9109 20.5434 26.4864 20.5645C26.1638 20.5772 25.8454 20.6067 25.5313 20.6405C25.2808 20.0665 25.0601 19.4672 24.8775 18.8383C24.2408 16.6097 24.1729 14.3137 24.6738 12.0218C25.0134 10.4686 25.5525 9.0758 26.2869 7.83069C27.1528 9.16865 27.8065 10.6965 28.2183 12.3806C28.7404 14.5416 28.715 16.8123 28.1504 19.1379ZM50.674 7.42128C48.2756 3.26812 44.6038 0.828552 39.7688 0.165903C35.995 -0.353243 32.5184 0.402262 29.4324 2.40709C28.2395 3.1837 27.1995 4.09537 26.3208 5.13366C24.1941 2.52949 21.3033 0.879201 17.7248 0.233435C15.6363 -0.142208 13.5011 -0.0662351 11.3701 0.474014C8.94628 1.08602 6.8323 2.21716 5.08763 3.83791C2.50671 6.23949 0.978531 9.29949 0.545547 12.9377C0.150768 16.2425 0.70261 19.2983 2.17985 22.0207C4.54852 26.3849 8.38595 28.9806 13.586 29.7319C12.9662 31.1669 12.5757 32.699 12.4144 34.3114C11.939 39.1441 13.5351 43.2677 17.1602 46.5683C18.2639 47.5728 19.5162 48.4 20.9 49.0416C21.4519 49.299 22.0292 49.527 22.6235 49.7211C24.6356 50.388 26.6604 50.6328 28.6428 50.464C32.9726 50.0841 36.5384 48.0624 39.2467 44.4495C40.5201 42.7527 41.4201 40.7775 41.9252 38.5869C42.4898 36.1178 42.4473 33.7078 41.7979 31.4244C41.6111 30.766 41.3819 30.1329 41.1229 29.5209C42.3794 29.2423 43.5977 28.8033 44.7693 28.1956C46.8791 27.1066 48.6365 25.5281 49.9991 23.5021L50.3429 22.9957L49.8887 22.5103C49.842 22.4554 49.7699 22.3752 49.6595 22.2992L48.1228 21.2145C47.1507 20.5308 46.1786 19.847 45.2108 19.159C44.9603 18.9818 44.7056 18.9142 44.4425 18.9607C44.0477 19.0282 43.8397 19.3194 43.7633 19.4292C42.3285 21.4382 40.4692 22.4765 38.0793 22.5989C36.1733 22.7002 34.4923 22.1642 33.083 21.0077C31.1516 19.4207 30.2304 17.264 30.3493 14.5965C30.4342 12.6085 31.1303 10.9118 32.4165 9.56118C33.8768 8.02484 35.6936 7.26934 37.8161 7.31577C40.6687 7.37908 42.7402 8.61152 44.1665 11.0891C44.5443 11.7475 45.1386 11.9121 45.7924 11.5449C46.8621 10.9456 47.9403 10.3589 49.0143 9.77221L50.2198 9.11378C50.4873 8.96606 50.7929 8.79723 50.9033 8.40893C51.0136 8.00796 50.8353 7.69563 50.674 7.42128Z" fill="white"/>
</svg>
