<svg width="12" height="12" viewBox="0 0 12 12" fill="none" xmlns="http://www.w3.org/2000/svg">
<path d="M6.24026 3.78364C7.22396 3.82482 8.02396 4.62798 8.06242 5.61169C8.07192 5.85558 8.27237 6.04652 8.514 6.04652C8.52033 6.04652 8.52576 6.04652 8.5321 6.04607C8.78187 6.03657 8.97599 5.82616 8.96648 5.57639C8.90992 4.12482 7.72939 2.94021 6.27827 2.87958C6.0389 2.87777 5.81764 3.06284 5.80723 3.31261C5.79682 3.56238 5.99049 3.77324 6.24026 3.78364ZM5.80678 0.616699C5.55655 0.616699 5.35429 0.819413 5.35429 1.06918C5.35429 1.31896 5.55655 1.52167 5.80678 1.52167C8.30178 1.52167 10.3316 3.55152 10.3316 6.04652C10.3316 6.2963 10.5339 6.49901 10.7841 6.49901C11.0343 6.49901 11.2366 6.2963 11.2366 6.04652C11.2366 3.05243 8.80087 0.616699 5.80678 0.616699ZM7.61672 6.95149C6.71673 6.95149 5.92307 7.48 5.56198 8.26687C4.71222 7.83384 4.01946 7.14154 3.58689 6.29132C4.37285 5.93024 4.90181 5.13658 4.90181 4.23658C4.90181 2.98908 3.88688 1.97416 2.63938 1.97416C1.39188 1.97416 0.376953 2.98908 0.376953 4.23658C0.376953 8.22841 3.62489 11.4763 7.61672 11.4763C8.86422 11.4763 9.87915 10.4614 9.87915 9.21392C9.87915 7.96642 8.86422 6.95149 7.61672 6.95149ZM7.61672 10.5714C4.12353 10.5714 1.28192 7.72977 1.28192 4.23658C1.28192 3.48817 1.89097 2.87913 2.63938 2.87913C3.38779 2.87913 3.99684 3.48817 3.99684 4.23658C3.99684 4.89178 3.53078 5.45241 2.8887 5.5696L2.35341 5.66779L2.54707 6.17639C3.09639 7.6162 4.23711 8.75737 5.67737 9.30668L6.18596 9.50035L6.2837 8.96505C6.40089 8.32253 6.96197 7.85647 7.61672 7.85647C8.36513 7.85647 8.97418 8.46551 8.97418 9.21392C8.97418 9.96233 8.36513 10.5714 7.61672 10.5714Z" fill="white"/>
</svg>
