<svg width="22" height="16" viewBox="0 0 22 16" fill="none" xmlns="http://www.w3.org/2000/svg">
<path d="M21.5601 2.40546C21.437 1.95377 21.1964 1.54184 20.8623 1.21067C20.5281 0.8795 20.1121 0.640644 19.6556 0.517876C17.9629 0.0582711 11.1912 0.0507894 11.1912 0.0507894C11.1912 0.0507894 4.42052 0.0433072 2.72677 0.482604C2.27055 0.611022 1.85538 0.853256 1.52111 1.18605C1.18684 1.51884 0.944691 1.93102 0.817919 2.38302C0.371513 4.05683 0.367189 7.52845 0.367189 7.52845C0.367189 7.52845 0.362866 11.0172 0.806029 12.6739C1.05463 13.5899 1.78423 14.3135 2.71163 14.5604C4.4216 15.02 11.175 15.0275 11.175 15.0275C11.175 15.0275 17.9467 15.035 19.6394 14.5967C20.0961 14.4742 20.5125 14.2359 20.8475 13.9054C21.1824 13.5749 21.4244 13.1637 21.5493 12.7124C21.9968 11.0396 22.0001 7.56907 22.0001 7.56907C22.0001 7.56907 22.0217 4.07928 21.5601 2.40546ZM9.02509 10.7446L9.0305 4.33153L14.6587 7.54341L9.02509 10.7446Z" fill="#6000D1"/>
</svg>
