<svg width="13" height="12" viewBox="0 0 13 12" fill="none" xmlns="http://www.w3.org/2000/svg">
<path d="M1.17161 11.0765C0.925374 11.0765 0.716072 10.9913 0.543706 10.8211C0.371339 10.6509 0.285156 10.4441 0.285156 10.2009V1.44582C0.285156 1.20263 0.371339 0.995909 0.543706 0.82567C0.716072 0.655432 0.925374 0.570312 1.17161 0.570312H5.16066C5.4069 0.570312 5.6162 0.655432 5.78857 0.82567C5.96094 0.995909 6.04712 1.20263 6.04712 1.44582V2.97797H11.2181C11.4644 2.97797 11.6737 3.06309 11.846 3.23333C12.0184 3.40357 12.1046 3.61028 12.1046 3.85348V10.2009C12.1046 10.4441 12.0184 10.6509 11.846 10.8211C11.6737 10.9913 11.4644 11.0765 11.2181 11.0765H1.17161ZM1.17161 10.2009H5.16066V8.6688H1.17161V10.2009ZM1.17161 7.79329H5.16066V6.26114H1.17161V7.79329ZM1.17161 5.38563H5.16066V3.85348H1.17161V5.38563ZM1.17161 2.97797H5.16066V1.44582H1.17161V2.97797ZM6.04712 10.2009H11.2181V3.85348H6.04712V10.2009ZM7.22906 6.26114V5.38563H9.66681V6.26114H7.22906ZM7.22906 8.6688V7.79329H9.66681V8.6688H7.22906Z" fill="#6F7171"/>
</svg>
