<svg width="15" height="17" viewBox="0 0 15 17" fill="none" xmlns="http://www.w3.org/2000/svg">
<path d="M7.29511 16.3243C8.36532 16.3243 9.23343 15.4562 9.23343 14.3851H5.3568C5.3568 15.4562 6.22491 16.3243 7.29511 16.3243ZM13.8215 11.7881C13.2361 11.159 12.1407 10.2127 12.1407 7.11302C12.1407 4.75868 10.49 2.874 8.26412 2.41162V1.78016C8.26412 1.24475 7.83022 0.810547 7.29511 0.810547C6.76001 0.810547 6.32611 1.24475 6.32611 1.78016V2.41162C4.10024 2.874 2.44948 4.75868 2.44948 7.11302C2.44948 10.2127 1.35412 11.159 0.76872 11.7881C0.586917 11.9835 0.506318 12.2171 0.507833 12.4459C0.511166 12.9428 0.901132 13.4155 1.48047 13.4155H13.1098C13.6891 13.4155 14.0794 12.9428 14.0824 12.4459C14.0839 12.2171 14.0033 11.9832 13.8215 11.7881Z" fill="#151817"/>
</svg>
