<svg width="13" height="12" viewBox="0 0 13 12" fill="none" xmlns="http://www.w3.org/2000/svg">
<path d="M1.17161 11.0657C0.925374 11.0657 0.716072 10.9806 0.543706 10.8104C0.371339 10.6401 0.285156 10.4334 0.285156 10.1902V1.43508C0.285156 1.19188 0.371339 0.985166 0.543706 0.814928C0.716072 0.64469 0.925374 0.55957 1.17161 0.55957H5.16066C5.4069 0.55957 5.6162 0.64469 5.78857 0.814928C5.96094 0.985166 6.04712 1.19188 6.04712 1.43508V2.96723H11.2181C11.4644 2.96723 11.6737 3.05235 11.846 3.22259C12.0184 3.39282 12.1046 3.59954 12.1046 3.84274V10.1902C12.1046 10.4334 12.0184 10.6401 11.846 10.8104C11.6737 10.9806 11.4644 11.0657 11.2181 11.0657H1.17161ZM1.17161 10.1902H5.16066V8.65806H1.17161V10.1902ZM1.17161 7.78254H5.16066V6.2504H1.17161V7.78254ZM1.17161 5.37489H5.16066V3.84274H1.17161V5.37489ZM1.17161 2.96723H5.16066V1.43508H1.17161V2.96723ZM6.04712 10.1902H11.2181V3.84274H6.04712V10.1902ZM7.22906 6.2504V5.37489H9.66681V6.2504H7.22906ZM7.22906 8.65806V7.78254H9.66681V8.65806H7.22906Z" fill="#6F7171"/>
</svg>
