<svg width="49" height="7" viewBox="0 0 49 7" fill="none" xmlns="http://www.w3.org/2000/svg">
<path d="M2.41117 6.51109L0.228516 0.680176H1.18983L2.87606 5.37642L4.57018 0.680176H5.53149L3.33308 6.51109H2.41117Z" fill="#3F4241"/>
<path d="M6.16395 1.54693V0.680176H6.98343V1.54693H6.16395ZM6.16395 6.51109V2.22458H6.98343V6.51109H6.16395Z" fill="#3F4241"/>
<path d="M12.2489 4.62786H8.58484C8.62424 5.49462 9.38068 5.93587 10.0268 5.93587C10.602 5.93587 11.0275 5.66009 11.2639 5.21095H12.1149C11.91 5.68373 11.6106 6.03831 11.2481 6.2747C10.8857 6.51897 10.4602 6.63716 10.0268 6.63716C8.62424 6.63716 7.75748 5.51038 7.75748 4.37571C7.75748 3.14649 8.71879 2.09851 10.0189 2.09851C10.6335 2.09851 11.193 2.32701 11.6027 2.72887C12.107 3.24105 12.3198 3.91082 12.2489 4.62786ZM8.6006 3.98961H11.4373C11.3979 3.42228 10.8305 2.78403 10.0189 2.79979C9.18369 2.79979 8.64 3.40652 8.6006 3.98961Z" fill="#3F4241"/>
<path d="M13.8891 6.51109L12.455 2.22458H13.3139L14.3225 5.4631L15.2365 2.47673H15.922L16.8518 5.4631L17.8447 2.22458H18.6957L17.2695 6.51109H16.4894L15.5675 3.50896L14.6692 6.51109H13.8891Z" fill="#3F4241"/>
<path d="M21.6467 6.51109V0.680176H22.5765V6.51109H21.6467Z" fill="#3F4241"/>
<path d="M23.6776 6.51109V2.22458H24.4498V2.88647C24.6547 2.44521 25.1353 2.09063 25.8997 2.09851C27.2707 2.11426 27.6332 3.1071 27.6332 3.99749V6.51109H26.8058V4.1866C26.8058 3.4144 26.5064 2.86283 25.6712 2.87071C24.8674 2.87859 24.4971 3.38288 24.4971 4.12356V6.51109H23.6776Z" fill="#3F4241"/>
<path d="M32.066 2.22458L30.427 6.51109H29.6075L27.9686 2.22458H28.8274L30.0173 5.48674L31.2071 2.22458H32.066Z" fill="#3F4241"/>
<path d="M32.221 4.36783V4.35995C32.221 3.21741 33.0641 2.09851 34.506 2.09851C35.948 2.09851 36.7911 3.21741 36.7911 4.36783C36.7911 5.51826 35.948 6.62928 34.506 6.62928C33.0641 6.62928 32.221 5.51826 32.221 4.36783ZM33.0404 4.36783V4.37571C33.0404 5.22671 33.6866 5.86496 34.506 5.86496C35.3255 5.86496 35.9716 5.22671 35.9716 4.36783C35.9716 3.50896 35.3255 2.87071 34.506 2.87071C33.6866 2.87071 33.0404 3.50896 33.0404 4.36783Z" fill="#3F4241"/>
<path d="M37.6285 1.54693V0.680176H38.448V1.54693H37.6285ZM37.6285 6.51109V2.22458H38.448V6.51109H37.6285Z" fill="#3F4241"/>
<path d="M42.9018 5.00608H43.7449C43.4849 5.93587 42.6418 6.63716 41.5702 6.63716C40.1676 6.63716 39.2772 5.55765 39.2772 4.36783C39.2772 3.09922 40.2464 2.09851 41.5308 2.09851C42.5551 2.09851 43.477 2.72887 43.7449 3.7611H42.9018C42.6812 3.18589 42.1454 2.86283 41.5623 2.86283C41.1289 2.85495 40.8137 2.99678 40.5143 3.28045C40.2622 3.53259 40.0967 3.93445 40.0967 4.36783C40.0967 5.25035 40.7428 5.87284 41.5623 5.87284C42.2793 5.86496 42.7285 5.43158 42.9018 5.00608Z" fill="#3F4241"/>
<path d="M48.7305 4.62786H45.0665C45.1059 5.49462 45.8623 5.93587 46.5085 5.93587C47.0837 5.93587 47.5092 5.66009 47.7456 5.21095H48.5966C48.3917 5.68373 48.0923 6.03831 47.7298 6.2747C47.3673 6.51897 46.9419 6.63716 46.5085 6.63716C45.1059 6.63716 44.2391 5.51038 44.2391 4.37571C44.2391 3.14649 45.2005 2.09851 46.5006 2.09851C47.1152 2.09851 47.6747 2.32701 48.0844 2.72887C48.5887 3.24105 48.8014 3.91082 48.7305 4.62786ZM45.0823 3.98961H47.9189C47.8795 3.42228 47.3122 2.78403 46.5006 2.79979C45.6654 2.79979 45.1217 3.40652 45.0823 3.98961Z" fill="#3F4241"/>
</svg>
