<svg width="14" height="14" viewBox="0 0 14 14" fill="none" xmlns="http://www.w3.org/2000/svg">
<g clip-path="url(#clip0_816_118028)">
<path fill-rule="evenodd" clip-rule="evenodd" d="M6.84644 2.76957C6.98711 2.83717 7.07657 2.97943 7.07657 3.1355V10.7141C7.07657 10.8702 6.98711 11.0125 6.84644 11.0801C6.70578 11.1477 6.53881 11.1287 6.41694 11.0312L3.82149 8.95482H1.79858C1.57435 8.95482 1.39258 8.77305 1.39258 8.54882V5.30082C1.39258 5.0766 1.57435 4.89482 1.79858 4.89482H3.82149L6.41694 2.81846C6.53881 2.72097 6.70578 2.70196 6.84644 2.76957Z" fill="white"/>
<path fill-rule="evenodd" clip-rule="evenodd" d="M10.7506 2.81028C10.9091 2.65175 11.1662 2.65179 11.3247 2.81036C12.4157 3.90165 13.0286 5.38155 13.0286 6.92462C13.0286 8.4677 12.4157 9.9476 11.3247 11.0389C11.1662 11.1975 10.9091 11.1975 10.7506 11.039C10.592 10.8804 10.5919 10.6234 10.7505 10.4648C11.6892 9.52579 12.2166 8.25239 12.2166 6.92462C12.2166 5.59686 11.6892 4.32346 10.7505 3.38445C10.5919 3.22587 10.592 2.96881 10.7506 2.81028ZM8.83966 4.72118C8.99824 4.56265 9.2553 4.56269 9.41383 4.72127C9.99736 5.30498 10.3252 6.09655 10.3252 6.92192C10.3252 7.74728 9.99736 8.53886 9.41383 9.12257C9.2553 9.28115 8.99824 9.28118 8.83966 9.12266C8.68108 8.96413 8.68105 8.70706 8.83957 8.54849C9.27088 8.11705 9.51318 7.53197 9.51318 6.92192C9.51318 6.31186 9.27088 5.72679 8.83957 5.29535C8.68105 5.13677 8.68108 4.87971 8.83966 4.72118Z" fill="white"/>
</g>
<defs>
<clipPath id="clip0_816_118028">
<rect width="12.992" height="12.992" fill="white" transform="translate(0.714844 0.427734)"/>
</clipPath>
</defs>
</svg>
